<svg width="24" height="24" viewBox="0 0 24 24" fill="none" xmlns="http://www.w3.org/2000/svg">
<path fill-rule="evenodd" clip-rule="evenodd" d="M7 4V6H5C4.73478 6 4.4805 6.10543 4.29297 6.29297C4.10543 6.4805 4 6.73478 4 7V9H20V7C20 6.73478 19.8946 6.4805 19.707 6.29297C19.5195 6.10543 19.2652 6 19 6H17V4H19C19.7956 4 20.5585 4.3163 21.1211 4.87891C21.6837 5.44152 22 6.20435 22 7V19C22 19.7956 21.6837 20.5585 21.1211 21.1211C20.5585 21.6837 19.7956 22 19 22H5C4.20435 22 3.44152 21.6837 2.87891 21.1211C2.3163 20.5585 2 19.7956 2 19V7C2 6.20435 2.3163 5.44152 2.87891 4.87891C3.44152 4.3163 4.20435 4 5 4H7ZM4 19C4 19.2652 4.10543 19.5195 4.29297 19.707C4.4805 19.8946 4.73478 20 5 20H19C19.2652 20 19.5195 19.8946 19.707 19.707C19.8946 19.5195 20 19.2652 20 19V11H4V19Z" fill="#202939"/>
<path d="M15 6H9V4H15V6Z" fill="#202939"/>
<path fill-rule="evenodd" clip-rule="evenodd" d="M9.98145 11.5684C10.665 11.4136 11.3816 11.5101 12 11.8398C12.6184 11.5101 13.335 11.4136 14.0186 11.5684C14.7022 11.7232 15.3075 12.1195 15.7236 12.6836C16.1397 13.2478 16.3391 13.9427 16.2852 14.6416C16.2311 15.3403 15.9274 15.9967 15.4297 16.4902L12.71 19.21C12.617 19.3036 12.5065 19.3779 12.3848 19.4287C12.2629 19.4795 12.132 19.5058 12 19.5059C11.868 19.5059 11.7371 19.4795 11.6152 19.4287C11.5417 19.398 11.4722 19.3585 11.4082 19.3115C11.3665 19.2809 11.3266 19.2469 11.29 19.21L8.57031 16.4902C8.07257 15.9966 7.76886 15.3404 7.71484 14.6416C7.66089 13.9427 7.86031 13.2478 8.27637 12.6836C8.6925 12.1195 9.29775 11.7231 9.98145 11.5684ZM10.6504 13.501C10.4067 13.501 10.1725 13.5974 10 13.7695C9.82785 13.942 9.73148 14.1762 9.73145 14.4199C9.73145 14.6637 9.82782 14.8978 10 15.0703L12 17.0703L14 15.0703H14.0205C14.1814 14.8956 14.2685 14.6652 14.2637 14.4277C14.2589 14.1903 14.1621 13.9639 13.9941 13.7959C13.8471 13.6488 13.6551 13.5562 13.4502 13.5322L13.3623 13.5264C13.1249 13.5216 12.8943 13.6086 12.7197 13.7695C12.6851 13.8044 12.6484 13.837 12.6094 13.8662C12.5434 13.9155 12.4708 13.9574 12.3945 13.9893C12.2728 14.0399 12.1416 14.0654 12.0098 14.0654C11.9316 14.0654 11.854 14.0561 11.7783 14.0381C11.7266 14.0257 11.6753 14.0098 11.626 13.9893C11.5041 13.9385 11.3927 13.8633 11.2998 13.7695C11.149 13.6191 10.9513 13.5268 10.7412 13.5059L10.6504 13.501Z" fill="#046AF2"/>
<path d="M8 2C8.55228 2 9 2.44772 9 3V7C9 7.55228 8.55228 8 8 8C7.44772 8 7 7.55228 7 7V3C7 2.44772 7.44772 2 8 2Z" fill="#046AF2"/>
<path d="M16 2C16.5523 2 17 2.44772 17 3V7C17 7.55228 16.5523 8 16 8C15.4477 8 15 7.55228 15 7V3C15 2.44772 15.4477 2 16 2Z" fill="#046AF2"/>
</svg>
