<svg width="24" height="24" viewBox="0 0 24 24" fill="none" xmlns="http://www.w3.org/2000/svg">
<path d="M20.3979 9.41163C20.4968 9.34481 20.608 9.29814 20.725 9.27429C20.8432 9.2506 20.965 9.25068 21.0832 9.27453C21.2015 9.29838 21.3138 9.34551 21.4136 9.41319C21.5134 9.48087 21.5988 9.56774 21.6647 9.66874C21.7306 9.76974 21.7758 9.88285 21.7976 10.0015C21.9325 10.6595 21.9995 11.3296 21.9975 12.0012C21.9975 13.9788 21.4111 15.912 20.3124 17.5562C19.2138 19.2005 17.6522 20.4821 15.8251 21.2389C13.9981 21.9957 11.9877 22.1937 10.0481 21.8079C8.10854 21.4221 6.32693 20.4698 4.92858 19.0714C3.53022 17.6731 2.57793 15.8915 2.19213 13.9519C1.80632 12.0123 2.00433 10.0019 2.76112 8.17487C3.5179 6.34783 4.79947 4.78624 6.44375 3.68756C8.08804 2.58888 10.0212 2.00246 11.9988 2.00246C12.6753 1.98731 13.3515 2.04214 14.0167 2.16608C14.2578 2.21429 14.4698 2.3563 14.6062 2.56086C14.7426 2.76542 14.7921 3.01578 14.7439 3.25685C14.6957 3.49793 14.5537 3.70998 14.3491 3.84635C14.1445 3.98272 13.8942 4.03225 13.6531 3.98404C11.9295 3.62913 10.1374 3.83948 8.54281 4.58386C6.94823 5.32823 5.63617 6.56695 4.80141 8.11613C3.96666 9.66531 3.65369 11.4424 3.90898 13.1835C4.16427 14.9247 4.9742 16.5371 6.21854 17.7815C7.46289 19.0258 9.07531 19.8357 10.8165 20.091C12.5576 20.3463 14.3347 20.0333 15.8839 19.1986C17.4331 18.3638 18.6718 17.0518 19.4161 15.4572C20.1605 13.8626 20.3709 12.0705 20.016 10.3469C19.9921 10.2299 19.9914 10.1094 20.0142 9.99214C20.0368 9.87492 20.0824 9.76332 20.1483 9.66371C20.2141 9.5641 20.2989 9.47845 20.3979 9.41163Z" fill="#202939"/>
<path d="M12.0425 6.54736C12.2835 6.54742 12.5146 6.64355 12.6851 6.81396C12.8554 6.98441 12.9517 7.21558 12.9517 7.45654V11.4741L14.8599 12.5737H14.8423C15.0173 12.673 15.1541 12.8277 15.2319 13.0132C15.3097 13.1987 15.3239 13.4048 15.272 13.5991C15.22 13.7935 15.1049 13.9654 14.9448 14.0874C14.7848 14.2094 14.5885 14.2753 14.3872 14.2739C14.2282 14.275 14.0715 14.2341 13.9331 14.1558L11.5698 12.7915L11.4878 12.7104L11.3423 12.5923C11.3068 12.5473 11.2763 12.4984 11.2515 12.4468C11.2219 12.3981 11.1979 12.3462 11.1792 12.2925C11.1545 12.2347 11.1387 12.1725 11.1333 12.1099V7.45654C11.1333 7.21549 11.2295 6.98443 11.3999 6.81396C11.5704 6.6435 11.8014 6.54736 12.0425 6.54736Z" fill="#046AF2"/>
<path d="M19.27 2.00244C19.5111 2.00244 19.7431 2.09858 19.9136 2.26904C20.0838 2.43947 20.1792 2.67073 20.1792 2.91162V3.8208H21.0884L21.1782 3.82471C21.3862 3.84536 21.5818 3.93737 21.731 4.08643C21.9013 4.2568 21.9975 4.48806 21.9976 4.729C21.9976 4.97008 21.9014 5.20209 21.731 5.37256C21.5605 5.54284 21.3293 5.63818 21.0884 5.63818H20.1792V6.54736C20.1792 6.78829 20.0839 7.01951 19.9136 7.18994C19.7431 7.36041 19.5111 7.45654 19.27 7.45654C19.0291 7.45644 18.7978 7.36032 18.6274 7.18994C18.4571 7.0195 18.3618 6.78835 18.3618 6.54736V5.63818H17.4526C17.2118 5.63818 16.9805 5.54277 16.8101 5.37256C16.6396 5.20209 16.5435 4.97008 16.5435 4.729C16.5436 4.48806 16.6397 4.2568 16.8101 4.08643C16.9805 3.91614 17.2117 3.8208 17.4526 3.8208H18.3618V2.91162C18.3618 2.67068 18.4572 2.43948 18.6274 2.26904C18.7978 2.09866 19.0291 2.00254 19.27 2.00244Z" fill="#046AF2"/>
</svg>
