<svg width="24" height="24" viewBox="0 0 24 24" fill="none" xmlns="http://www.w3.org/2000/svg">
<path d="M12.3152 11.72C12.8495 11.2581 13.278 10.6869 13.5718 10.045C13.8655 9.40316 14.0175 8.70571 14.0175 8C14.0175 6.67392 13.49 5.40215 12.551 4.46447C11.6121 3.52678 10.3386 3 9.01076 3C7.68289 3 6.40941 3.52678 5.47047 4.46447C4.53153 5.40215 4.00403 6.67392 4.00403 8C4.00403 8.70571 4.15604 9.40316 4.44976 10.045C4.74348 10.6869 5.17203 11.2581 5.70632 11.72C4.30458 12.3539 3.11531 13.3775 2.2807 14.6685C1.44609 15.9596 1.00147 17.4633 1 19C1 19.2652 1.1055 19.5196 1.29329 19.7071C1.48108 19.8946 1.73577 20 2.00134 20C2.26692 20 2.52161 19.8946 2.7094 19.7071C2.89719 19.5196 3.00269 19.2652 3.00269 19C3.00269 17.4087 3.63568 15.8826 4.76241 14.7574C5.88914 13.6321 7.41732 13 9.01076 13C10.6042 13 12.1324 13.6321 13.2591 14.7574C14.3858 15.8826 15.0188 17.4087 15.0188 19C15.0188 19.2652 15.1243 19.5196 15.3121 19.7071C15.4999 19.8946 15.7546 20 16.0202 20C16.2857 20 16.5404 19.8946 16.7282 19.7071C16.916 19.5196 17.0215 19.2652 17.0215 19C17.02 17.4633 16.5754 15.9596 15.7408 14.6685C14.9062 13.3775 13.7169 12.3539 12.3152 11.72ZM9.01076 11C8.41662 11 7.83582 10.8241 7.34181 10.4944C6.8478 10.1648 6.46276 9.69623 6.23539 9.14805C6.00802 8.59987 5.94853 7.99667 6.06445 7.41473C6.18036 6.83279 6.46646 6.29824 6.88659 5.87868C7.30671 5.45912 7.84198 5.1734 8.4247 5.05764C9.00743 4.94189 9.61144 5.0013 10.1604 5.22836C10.7093 5.45542 11.1784 5.83994 11.5085 6.33329C11.8386 6.82664 12.0148 7.40666 12.0148 8C12.0148 8.79565 11.6983 9.55871 11.1349 10.1213C10.5716 10.6839 9.80748 11 9.01076 11Z" fill="#202939"/>
<path d="M18.7642 11.32C19.405 10.5993 19.8236 9.70906 19.9696 8.75634C20.1156 7.80362 19.9828 6.82907 19.5871 5.95C19.1914 5.07093 18.5497 4.3248 17.7393 3.80142C16.9289 3.27805 15.9843 2.99974 15.0192 3C14.7536 3 14.4989 3.10536 14.3111 3.29289C14.1233 3.48043 14.0178 3.73478 14.0178 4C14.0178 4.26522 14.1233 4.51957 14.3111 4.70711C14.4989 4.89464 14.7536 5 15.0192 5C15.8159 5 16.58 5.31607 17.1433 5.87868C17.7067 6.44129 18.0232 7.20435 18.0232 8C18.0218 8.52524 17.8823 9.0409 17.6187 9.49542C17.3551 9.94994 16.9767 10.3274 16.5212 10.59C16.3727 10.6755 16.2487 10.7977 16.1611 10.9447C16.0734 11.0918 16.025 11.2589 16.0205 11.43C16.0163 11.5998 16.0555 11.7678 16.1343 11.9183C16.2132 12.0687 16.3291 12.1967 16.4711 12.29L16.8616 12.55L16.9918 12.62C18.1988 13.1917 19.2171 14.096 19.9267 15.2263C20.6364 16.3566 21.0078 17.6659 20.9972 19C20.9972 19.2652 21.1027 19.5196 21.2905 19.7071C21.4783 19.8946 21.733 20 21.9985 20C22.2641 20 22.5188 19.8946 22.7066 19.7071C22.8944 19.5196 22.9999 19.2652 22.9999 19C23.0081 17.4654 22.6232 15.9543 21.8819 14.6101C21.1405 13.2659 20.0673 12.1333 18.7642 11.32Z" fill="#046AF2"/>
</svg>
