<svg width="24" height="24" viewBox="0 0 24 24" fill="none" xmlns="http://www.w3.org/2000/svg">
<path d="M17.874 15.4993C18.3572 15.4993 18.7489 15.8911 18.749 16.3743V17.511L18.9932 17.7551L19.0527 17.8215C19.3333 18.1652 19.3136 18.673 18.9932 18.9934C18.6729 19.3137 18.1659 19.3331 17.8223 19.053L17.7549 18.9934L17.2549 18.4934C17.0909 18.3293 16.999 18.1062 16.999 17.8743V16.3743C16.9992 15.8912 17.3909 15.4994 17.874 15.4993Z" fill="#046AF2"/>
<path fill-rule="evenodd" clip-rule="evenodd" d="M17.874 12.9993L18.1162 13.0051C19.3209 13.065 20.4643 13.5701 21.3213 14.427C22.2355 15.3412 22.749 16.5814 22.749 17.8743C22.749 19.1672 22.2355 20.4073 21.3213 21.3215C20.407 22.2358 19.1669 22.7493 17.874 22.7493C16.5812 22.7492 15.341 22.2357 14.4268 21.3215C13.5699 20.4646 13.0648 19.3211 13.0049 18.1165L12.999 17.8743C12.9991 16.5814 13.5126 15.3412 14.4268 14.427C15.341 13.5128 16.5812 12.9993 17.874 12.9993ZM17.874 14.7493C17.0453 14.7493 16.2501 15.0783 15.6641 15.6643C15.0781 16.2503 14.7491 17.0456 14.749 17.8743L14.7529 18.0295C14.7913 18.8017 15.1148 19.5349 15.6641 20.0842C16.2501 20.6702 17.0453 20.9992 17.874 20.9993C18.7028 20.9993 19.4979 20.6703 20.084 20.0842C20.67 19.4982 20.999 18.703 20.999 17.8743C20.999 17.0456 20.67 16.2503 20.084 15.6643C19.5347 15.1151 18.8015 14.7916 18.0293 14.7532L17.874 14.7493Z" fill="#046AF2"/>
<path d="M12 2C12.2652 2 12.5195 2.10543 12.707 2.29297C12.8946 2.48051 13 2.73478 13 3V4.08984C14.3971 4.32599 15.6659 5.04917 16.5811 6.13086C17.4961 7.21251 17.9986 8.58324 18 10V11C18 12.5 16 12.5 16 11V10C16 8.93913 15.5783 7.92202 14.8281 7.17188C14.078 6.42173 13.0609 6 12 6C10.9391 6 9.92202 6.42173 9.17188 7.17188C8.42173 7.92202 8 8.93913 8 10V13H10.3418H13C13.832 13 14 15 13 15H7C6.73478 15 6.48051 15.1054 6.29297 15.293C6.10543 15.4805 6 15.7348 6 16V17H11.5C12.415 17 12.415 19 11.5 19H10.2803C10.4548 19.3022 10.7051 19.5541 11.0068 19.7295C11.3085 19.9049 11.651 19.9979 12 20C12.1118 19.9993 12.2227 19.9879 12.332 19.9688C13.3438 19.6266 14.1005 21.9512 12 21.9512C11.1219 21.9512 10.2679 21.6622 9.57031 21.1289C8.87277 20.5956 8.36992 19.8473 8.13965 19H5C4.73478 19 4.48051 18.8946 4.29297 18.707C4.10543 18.5195 4 18.2652 4 18V16C4.00174 15.3811 4.19467 14.7773 4.55273 14.2725C4.91079 13.7677 5.41653 13.386 6 13.1797V10C6.00144 8.58324 6.50395 7.21251 7.41895 6.13086C8.33408 5.04917 9.60294 4.32599 11 4.08984V3C11 2.73478 11.1054 2.48051 11.293 2.29297C11.4805 2.10543 11.7348 2 12 2Z" fill="#202939"/>
</svg>
