<svg width="24" height="24" viewBox="0 0 24 24" fill="none" xmlns="http://www.w3.org/2000/svg">
<path d="M10.2 12.9H3.9C3.66131 12.9 3.43239 12.9948 3.2636 13.1636C3.09482 13.3324 3 13.5613 3 13.8V20.1C3 20.3387 3.09482 20.5676 3.2636 20.7364C3.43239 20.9052 3.66131 21 3.9 21H10.2C10.4387 21 10.6676 20.9052 10.8364 20.7364C11.0052 20.5676 11.1 20.3387 11.1 20.1V13.8C11.1 13.5613 11.0052 13.3324 10.8364 13.1636C10.6676 12.9948 10.4387 12.9 10.2 12.9ZM9.3 19.2H4.8V14.7H9.3V19.2ZM20.1 12.9H13.8C13.5613 12.9 13.3324 12.9948 13.1636 13.1636C12.9948 13.3324 12.9 13.5613 12.9 13.8V20.1C12.9 20.3387 12.9948 20.5676 13.1636 20.7364C13.3324 20.9052 13.5613 21 13.8 21H20.1C20.3387 21 20.5676 20.9052 20.7364 20.7364C20.9052 20.5676 21 20.3387 21 20.1V13.8C21 13.5613 20.9052 13.3324 20.7364 13.1636C20.5676 12.9948 20.3387 12.9 20.1 12.9ZM19.2 19.2H14.7V14.7H19.2V19.2ZM10.2 3H3.9C3.66131 3 3.43239 3.09482 3.2636 3.2636C3.09482 3.43239 3 3.66131 3 3.9V10.2C3 10.4387 3.09482 10.6676 3.2636 10.8364C3.43239 11.0052 3.66131 11.1 3.9 11.1H10.2C10.4387 11.1 10.6676 11.0052 10.8364 10.8364C11.0052 10.6676 11.1 10.4387 11.1 10.2V3.9C11.1 3.66131 11.0052 3.43239 10.8364 3.2636C10.6676 3.09482 10.4387 3 10.2 3ZM9.3 9.3H4.8V4.8H9.3V9.3Z" fill="#202939"/>
<path fill-rule="evenodd" clip-rule="evenodd" d="M20.0996 3C20.3383 3 20.5675 3.09489 20.7363 3.26367C20.9051 3.43245 21 3.6617 21 3.90039V10.2002C20.9999 10.4387 20.9049 10.6672 20.7363 10.8359C20.5675 11.0047 20.3383 11.0996 20.0996 11.0996H13.7998C13.5612 11.0996 13.3328 11.0047 13.1641 10.8359C12.9953 10.6672 12.9004 10.4388 12.9004 10.2002V3.90039C12.9004 3.6617 12.9953 3.43245 13.1641 3.26367C13.3328 3.09506 13.5613 3.00005 13.7998 3H20.0996ZM14.9004 9.09961H19V5H14.9004V9.09961Z" fill="#046AF2"/>
</svg>
