<svg width="24" height="24" viewBox="0 0 24 24" fill="none" xmlns="http://www.w3.org/2000/svg">
<path d="M17.874 15.4993C18.3572 15.4993 18.7489 15.8911 18.749 16.3743V17.511L18.9932 17.7551L19.0527 17.8215C19.3333 18.1652 19.3136 18.673 18.9932 18.9934C18.6729 19.3137 18.1659 19.3331 17.8223 19.053L17.7549 18.9934L17.2549 18.4934C17.0909 18.3293 16.999 18.1062 16.999 17.8743V16.3743C16.9992 15.8912 17.3909 15.4994 17.874 15.4993Z" fill="#046AF2"/>
<path fill-rule="evenodd" clip-rule="evenodd" d="M17.874 12.9993L18.1162 13.0051C19.3209 13.065 20.4643 13.5701 21.3213 14.427C22.2355 15.3412 22.749 16.5814 22.749 17.8743C22.749 19.1672 22.2355 20.4073 21.3213 21.3215C20.407 22.2358 19.1669 22.7493 17.874 22.7493C16.5812 22.7492 15.341 22.2357 14.4268 21.3215C13.5699 20.4646 13.0648 19.3211 13.0049 18.1165L12.999 17.8743C12.9991 16.5814 13.5126 15.3412 14.4268 14.427C15.341 13.5128 16.5812 12.9993 17.874 12.9993ZM17.874 14.7493C17.0453 14.7493 16.2501 15.0783 15.6641 15.6643C15.0781 16.2503 14.7491 17.0456 14.749 17.8743L14.7529 18.0295C14.7913 18.8017 15.1148 19.5349 15.6641 20.0842C16.2501 20.6702 17.0453 20.9992 17.874 20.9993C18.7028 20.9993 19.4979 20.6703 20.084 20.0842C20.67 19.4982 20.999 18.703 20.999 17.8743C20.999 17.0456 20.67 16.2503 20.084 15.6643C19.5347 15.1151 18.8015 14.7916 18.0293 14.7532L17.874 14.7493Z" fill="#046AF2"/>
<path d="M11.875 2C15.1197 2 17.75 4.63033 17.75 7.875C17.75 9.80246 16.8215 11.5127 15.3877 12.584C15.3926 12.5857 15.3975 12.5872 15.4023 12.5889C14.7237 12.9153 14.117 13.3672 13.6094 13.9121C13.0527 13.8066 12.4728 13.75 11.875 13.75C7.28795 13.75 3.75 17.034 3.75 20.875C3.75 21.3582 3.35825 21.75 2.875 21.75C2.39175 21.75 2 21.3582 2 20.875C2 17.0275 4.68268 13.8449 8.36133 12.584C6.92794 11.5126 6 9.80217 6 7.875C6 4.63033 8.63033 2 11.875 2ZM11.875 3.75C9.59683 3.75 7.75 5.59683 7.75 7.875C7.75 10.1532 9.59683 12 11.875 12C14.1532 12 16 10.1532 16 7.875C16 5.59683 14.1532 3.75 11.875 3.75Z" fill="#202939"/>
</svg>
