<svg width="24" height="24" viewBox="0 0 24 24" fill="none" xmlns="http://www.w3.org/2000/svg">
<path d="M11.9999 2C13.3131 2.00003 14.6139 2.25822 15.8271 2.76074C17.0402 3.26329 18.1427 4.00019 19.0712 4.92871C19.9997 5.85717 20.7357 6.95981 21.2382 8.17285C21.7024 9.29341 21.9589 10.4886 21.9954 11.6993C21.9954 13 19.9903 13 19.9903 11.6083C19.9195 10.1635 19.4576 8.76244 18.6513 7.55566C17.7723 6.24018 16.5231 5.2149 15.0615 4.60938C13.5998 4.00393 11.9911 3.84475 10.4394 4.15332C8.8876 4.46199 7.46153 5.22401 6.34272 6.34277C5.22391 7.46159 4.46196 8.88762 4.15327 10.4395C3.84465 11.9912 4.00385 13.5998 4.60932 15.0615C5.21484 16.5232 6.2401 17.7724 7.55561 18.6514C7.93189 18.9028 8.32719 19.1203 8.73678 19.303C10 20 9.20705 21.6707 8.13008 21.2192C6.93942 20.72 5.85056 19.9932 4.92866 19.0713C3.53022 17.6728 2.57823 15.8909 2.19233 13.9512C1.80648 12.0114 2.00382 10.0001 2.76069 8.17285C3.51757 6.34569 4.79987 4.78432 6.44429 3.68555C8.08875 2.58678 10.0222 2 11.9999 2Z" fill="#202939"/>
<path d="M12.0986 6.00488C12.3275 6.02763 12.5429 6.12887 12.707 6.29297C12.8945 6.4805 12.9999 6.73483 12.9999 7V11H14.9999L15.0986 11.0049C15.3275 11.0276 15.5429 11.1289 15.707 11.293C15.8945 11.4805 15.9999 11.7348 15.9999 12C15.9999 12.2652 15.8945 12.5195 15.707 12.707C15.5195 12.8945 15.2651 12.9999 14.9999 13H11.9999C11.7348 13 11.4804 12.8945 11.2929 12.707C11.1054 12.5195 10.9999 12.2652 10.9999 12V7C10.9999 6.73478 11.1054 6.4805 11.2929 6.29297C11.4804 6.10549 11.7348 6 11.9999 6L12.0986 6.00488Z" fill="#202939"/>
<path fill-rule="evenodd" clip-rule="evenodd" d="M15.1221 14L15.3877 14.0127C16.003 14.0686 16.5836 14.3167 17.0273 14.7227C17.5348 15.187 17.8221 15.8198 17.8223 16.4814V16.4873L17.8193 16.6074V16.6143C17.8012 16.9213 17.7198 17.2231 17.5801 17.5029C17.4886 17.6861 17.3704 17.8556 17.2344 18.0107C17.7742 18.3061 18.2378 18.711 18.583 19.2002C19.0137 19.8108 19.2443 20.524 19.2451 21.2529V21.2646L19.2441 21.2754L19.2314 21.3818L19.2305 21.3916L19.2285 21.4023C19.1967 21.5475 19.1188 21.6809 19.0049 21.7852C18.8721 21.9066 18.6991 21.9807 18.5176 21.9971L18.4404 22C18.231 21.9999 18.0274 21.9237 17.876 21.7852C17.7243 21.6463 17.6368 21.4548 17.6367 21.2529C17.6366 20.6495 17.3745 20.0679 16.9043 19.6377C16.4336 19.2071 15.7924 18.9639 15.1221 18.9639C14.452 18.964 13.8115 19.2073 13.3408 19.6377C12.8706 20.0679 12.6085 20.6495 12.6084 21.2529C12.6084 21.4547 12.5206 21.6464 12.3691 21.7852C12.2364 21.9066 12.0633 21.9806 11.8818 21.9971L11.8037 22C11.5942 21.9999 11.3906 21.9236 11.2393 21.7852C11.1262 21.6816 11.0476 21.5484 11.0156 21.4023L11.0127 21.3906L11.0117 21.3799L11 21.2637V21.2529C11.0008 20.524 11.2313 19.8108 11.6621 19.2002C12.0072 18.7113 12.4692 18.3052 13.0088 18.0098C12.8733 17.8547 12.7563 17.6856 12.665 17.5029C12.5252 17.223 12.4438 16.9206 12.4258 16.6133V16.6074L12.4229 16.4873V16.4814C12.423 15.8198 12.7103 15.187 13.2178 14.7227C13.7248 14.2589 14.41 14.0001 15.1221 14ZM14.9062 15.5127C14.7461 15.542 14.5966 15.6032 14.4678 15.6904L14.3457 15.7861C14.1939 15.925 14.092 16.1014 14.0508 16.291C14.0096 16.4803 14.0303 16.6772 14.1113 16.8564C14.1923 17.0352 14.3311 17.1898 14.5107 17.2998C14.6908 17.4099 14.9039 17.4706 15.1221 17.4707C15.4155 17.4707 15.6946 17.3631 15.8984 17.1768C16.1017 16.9907 16.2138 16.74 16.2139 16.4814L16.2109 16.4092L16.1924 16.2852C16.1647 16.1621 16.111 16.0441 16.0332 15.9375C15.9146 15.775 15.7447 15.6464 15.5439 15.5703C15.3428 15.4941 15.1201 15.4738 14.9062 15.5127Z" fill="#046AF2"/>
<path d="M18.8984 14L19.0781 14.0059H19.0859L19.2539 14.0215C19.6441 14.07 20.0204 14.1969 20.3545 14.3945C20.7909 14.6528 21.1387 15.0229 21.3535 15.46C21.5684 15.8974 21.641 16.3843 21.5615 16.8594C21.5018 17.2161 21.3557 17.552 21.1416 17.8486C21.6681 18.2067 22.1085 18.6639 22.4277 19.1943C22.8068 19.8243 23.004 20.5333 23 21.2539V21.2646L22.999 21.2754L22.9873 21.3818L22.9863 21.3916L22.9834 21.4023C22.9515 21.5475 22.8737 21.6809 22.7598 21.7852C22.6086 21.9233 22.4064 21.9997 22.1973 22C21.988 21.9999 21.7834 21.9237 21.6318 21.7852C21.4803 21.6463 21.3916 21.4548 21.3916 21.2529L21.3857 21.0576C21.3546 20.6085 21.2019 20.1716 20.9385 19.7871C20.6393 19.3505 20.2101 18.9983 19.6992 18.7744L19.6895 18.7715L19.6738 18.7637L19.6123 18.7334L19.6006 18.7266L19.5918 18.7227L19.5859 18.7188L19.4004 18.6064C19.2876 18.538 19.1949 18.4426 19.1309 18.3311C19.0664 18.2182 19.0328 18.0905 19.0361 17.9619V17.9551L19.0371 17.9473L19.0439 17.8789L19.0459 17.8652C19.062 17.7703 19.0972 17.678 19.1514 17.5947C19.2204 17.4886 19.3171 17.402 19.4297 17.3398L19.5645 17.2559C19.6755 17.1772 19.7688 17.0803 19.8389 16.9697C19.9332 16.8207 19.9827 16.6519 19.9834 16.4814L19.9795 16.3857L19.9668 16.3018C19.9274 16.1093 19.8247 15.9287 19.6689 15.7861C19.4651 15.5997 19.185 15.4932 18.8916 15.4932C18.6821 15.493 18.4785 15.4168 18.3271 15.2783C18.1758 15.1396 18.088 14.9488 18.0879 14.7471C18.0879 14.5453 18.1756 14.3537 18.3271 14.2148C18.4785 14.0764 18.6821 14.0001 18.8916 14H18.8984Z" fill="#046AF2"/>
</svg>
