<svg width="24" height="24" viewBox="0 0 24 24" fill="none" xmlns="http://www.w3.org/2000/svg">
<path fill-rule="evenodd" clip-rule="evenodd" d="M11.0596 2L11.3398 2.09961C11.3696 2.09539 11.4 2.09542 11.4297 2.09961L11.5771 2.18359C11.6241 2.21543 11.6685 2.25104 11.71 2.29004L17.71 8.29004C17.8486 8.43057 17.943 8.60889 17.9805 8.80273C18.0178 8.9967 17.9965 9.19779 17.9199 9.37988C17.8449 9.5625 17.7174 9.71877 17.5537 9.8291C17.39 9.93943 17.1974 9.99901 17 10H13C12.2044 10 11.4415 9.6837 10.8789 9.12109C10.3163 8.55848 10 7.79565 10 7V4H5C4.73478 4 4.48051 4.10543 4.29297 4.29297C4.10543 4.48051 4 4.73478 4 5V19C4 19.2652 4.10543 19.5195 4.29297 19.707C4.48051 19.8946 4.73478 20 5 20H10C10.2652 20 10.5195 20.1054 10.707 20.293C10.8946 20.4805 11 20.7348 11 21C11 21.2652 10.8946 21.5195 10.707 21.707C10.5195 21.8946 10.2652 22 10 22H5C4.20435 22 3.44152 21.6837 2.87891 21.1211C2.3163 20.5585 2 19.7956 2 19V5C2 4.20435 2.3163 3.44152 2.87891 2.87891C3.44152 2.3163 4.20435 2 5 2H11.0596ZM12 7C12 7.26522 12.1054 7.5195 12.293 7.70703C12.4805 7.89457 12.7348 8 13 8H14.5898L12 5.41016V7Z" fill="#202939"/>
<path d="M9 16C9.26522 16 9.5195 16.1054 9.70703 16.293C9.89457 16.4805 10 16.7348 10 17C10 17.2652 9.89457 17.5195 9.70703 17.707C9.5195 17.8946 9.26522 18 9 18H7C6.73478 18 6.4805 17.8946 6.29297 17.707C6.10543 17.5195 6 17.2652 6 17C6 16.7348 6.10543 16.4805 6.29297 16.293C6.4805 16.1054 6.73478 16 7 16H9Z" fill="#202939"/>
<path d="M12 12C12.2652 12 12.5195 12.1054 12.707 12.293C12.8946 12.4805 13 12.7348 13 13C13 13.2652 12.8946 13.5195 12.707 13.707C12.5195 13.8946 12.2652 14 12 14H7C6.73478 14 6.4805 13.8946 6.29297 13.707C6.10543 13.5195 6 13.2652 6 13C6 12.7348 6.10543 12.4805 6.29297 12.293C6.4805 12.1054 6.73478 12 7 12H12Z" fill="#202939"/>
<path d="M8 8C8.26522 8 8.5195 8.10543 8.70703 8.29297C8.89457 8.4805 9 8.73478 9 9C9 9.26522 8.89457 9.5195 8.70703 9.70703C8.5195 9.89457 8.26522 10 8 10H7C6.73478 10 6.4805 9.89457 6.29297 9.70703C6.10543 9.5195 6 9.26522 6 9C6 8.73478 6.10543 8.4805 6.29297 8.29297C6.4805 8.10543 6.73478 8 7 8H8Z" fill="#202939"/>
<path fill-rule="evenodd" clip-rule="evenodd" d="M17 12C17.7956 12 18.5585 12.3163 19.1211 12.8789C19.6837 13.4415 20 14.2044 20 15V15.1797C20.5835 15.386 21.0892 15.7677 21.4473 16.2725C21.8053 16.7773 21.9983 17.3811 22 18V19C22 19.7956 21.6837 20.5585 21.1211 21.1211C20.5585 21.6837 19.7956 22 19 22H15C14.2044 22 13.4415 21.6837 12.8789 21.1211C12.3163 20.5585 12 19.7956 12 19V18C12.0017 17.3811 12.1947 16.7773 12.5527 16.2725C12.9108 15.7677 13.4165 15.386 14 15.1797V15C14 14.2044 14.3163 13.4415 14.8789 12.8789C15.4415 12.3163 16.2044 12 17 12ZM15 17C14.7348 17 14.4805 17.1054 14.293 17.293C14.1054 17.4805 14 17.7348 14 18V19C14 19.2652 14.1054 19.5195 14.293 19.707C14.4805 19.8946 14.7348 20 15 20H19C19.2652 20 19.5195 19.8946 19.707 19.707C19.8946 19.5195 20 19.2652 20 19V18C20 17.7348 19.8946 17.4805 19.707 17.293C19.5195 17.1054 19.2652 17 19 17H15ZM17 14C16.7348 14 16.4805 14.1054 16.293 14.293C16.1054 14.4805 16 14.7348 16 15H18C18 14.7348 17.8946 14.4805 17.707 14.293C17.5195 14.1054 17.2652 14 17 14Z" fill="#046AF2"/>
</svg>
