<svg width="24" height="24" viewBox="0 0 24 24" fill="none" xmlns="http://www.w3.org/2000/svg">
<path d="M15.3877 12.584C19.0668 13.8447 21.75 17.0272 21.75 20.875C21.75 21.3582 21.3582 21.75 20.875 21.75C20.3918 21.75 20 21.3582 20 20.875C20 17.034 16.462 13.75 11.875 13.75C7.28795 13.75 3.75 17.034 3.75 20.875C3.75 21.3582 3.35825 21.75 2.875 21.75C2.39175 21.75 2 21.3582 2 20.875C2 17.0275 4.68268 13.8449 8.36133 12.584C9.34128 13.3164 10.5575 13.75 11.875 13.75C13.1922 13.75 14.4079 13.3161 15.3877 12.584Z" fill="#202939"/>
<path fill-rule="evenodd" clip-rule="evenodd" d="M11.875 2C15.1197 2 17.75 4.63033 17.75 7.875C17.75 11.1197 15.1197 13.75 11.875 13.75C8.63033 13.75 6 11.1197 6 7.875C6 4.63033 8.63033 2 11.875 2ZM11.875 3.75C9.59683 3.75 7.75 5.59683 7.75 7.875C7.75 10.1532 9.59683 12 11.875 12C14.1532 12 16 10.1532 16 7.875C16 5.59683 14.1532 3.75 11.875 3.75Z" fill="#046AF2"/>
</svg>
