<svg width="24" height="24" viewBox="0 0 24 24" fill="none" xmlns="http://www.w3.org/2000/svg">
<path d="M17.5967 2C18.4051 2 19.1803 2.31632 19.752 2.87891C20.3236 3.44152 20.6455 4.20435 20.6455 5V11C20.6455 11.5523 20.1901 12 19.6289 12C19.0677 12 18.6133 11.5523 18.6133 11V5C18.6133 4.73485 18.5059 4.48049 18.3154 4.29297C18.1249 4.10543 17.8662 4 17.5967 4H5.40332C5.13383 4 4.87513 4.10543 4.68457 4.29297C4.49408 4.48049 4.38672 4.73483 4.38672 5V7H4.72559C5.28678 7 5.74219 7.44772 5.74219 8C5.74219 8.55228 5.28678 9 4.72559 9H4.38672V11H4.72559C5.28678 11 5.74219 11.4477 5.74219 12C5.74219 12.5523 5.28678 13 4.72559 13H4.38672V15H4.72559C5.28678 15 5.74219 15.4477 5.74219 16C5.74219 16.5523 5.28678 17 4.72559 17H4.38672V19C4.38672 19.2652 4.49408 19.5195 4.68457 19.707C4.87513 19.8946 5.13383 20 5.40332 20H6.75781C7.319 20 7.77441 20.4477 7.77441 21C7.77441 21.5523 7.319 22 6.75781 22H5.40332C4.59487 22 3.81972 21.6837 3.24805 21.1211C2.67637 20.5585 2.35449 19.7956 2.35449 19V17H2.0166C1.45541 17 1 16.5523 1 16C1 15.4477 1.45541 15 2.0166 15H2.35449V13H2.0166C1.45541 13 1 12.5523 1 12C1 11.4477 1.45541 11 2.0166 11H2.35449V9H2.0166C1.45541 9 1 8.55228 1 8C1 7.44772 1.45541 7 2.0166 7H2.35449V5C2.35449 4.20435 2.67637 3.44152 3.24805 2.87891C3.81972 2.31634 4.59487 2 5.40332 2H17.5967Z" fill="#202939"/>
<path d="M8.45117 16.667C8.72067 16.667 8.97936 16.7724 9.16992 16.96C9.36038 17.1475 9.46777 17.4018 9.46777 17.667C9.46766 17.9321 9.36038 18.1866 9.16992 18.374C8.97938 18.5614 8.72055 18.667 8.45117 18.667H8.11328C7.84391 18.667 7.58507 18.5614 7.39453 18.374C7.20407 18.1866 7.09679 17.9321 7.09668 17.667C7.09668 17.4018 7.20407 17.1475 7.39453 16.96C7.58509 16.7724 7.84379 16.667 8.11328 16.667H8.45117Z" fill="#202939"/>
<path d="M9.12891 13.333C9.3984 13.333 9.6571 13.4384 9.84766 13.626C10.0382 13.8135 10.1454 14.0679 10.1455 14.333C10.1455 14.5981 10.0381 14.8525 9.84766 15.04C9.6571 15.2276 9.3984 15.333 9.12891 15.333H8.11328C7.84379 15.333 7.58509 15.2276 7.39453 15.04C7.20402 14.8525 7.09668 14.5982 7.09668 14.333C7.09675 14.0679 7.20403 13.8135 7.39453 13.626C7.58508 13.4385 7.84387 13.333 8.11328 13.333H9.12891Z" fill="#202939"/>
<path fill-rule="evenodd" clip-rule="evenodd" d="M15.2256 5.25C16.0206 5.25 16.665 5.88459 16.665 6.66699V10.667C16.6649 11.4492 16.0205 12.083 15.2256 12.083H8.45117C7.65645 12.0828 7.0119 11.4491 7.01172 10.667V6.66699C7.01172 5.88473 7.65634 5.25022 8.45117 5.25H15.2256ZM8.53613 10.583H15.1406V6.75H8.53613V10.583Z" fill="#202939"/>
<path fill-rule="evenodd" clip-rule="evenodd" d="M13.9949 14L14.2654 14.0127C14.8904 14.0687 15.4806 14.3168 15.9314 14.7227C16.4468 15.1869 16.7387 15.8201 16.739 16.4814V16.4873L16.7361 16.6074V16.6143C16.7177 16.9211 16.6347 17.2233 16.4929 17.5029C16.4 17.6859 16.2804 17.8557 16.1423 18.0107C16.6905 18.3061 17.1619 18.7113 17.5125 19.2002C17.9499 19.8106 18.1834 20.5242 18.1843 21.2529V21.2646L18.1833 21.2754L18.1707 21.3818V21.3916L18.1677 21.4023C18.1354 21.5473 18.0567 21.6809 17.9412 21.7852C17.8062 21.9066 17.6295 21.9807 17.4451 21.9971L17.3669 22C17.1543 21.9998 16.9475 21.9235 16.7937 21.7852C16.6397 21.6464 16.5507 21.4547 16.5505 21.2529C16.5503 20.6497 16.283 20.0678 15.8054 19.6377C15.3273 19.2075 14.6757 18.964 13.9949 18.9639C13.3142 18.9641 12.6634 19.2075 12.1853 19.6377C11.7076 20.0678 11.4414 20.6496 11.4412 21.2529C11.441 21.4545 11.3517 21.6464 11.198 21.7852C11.0632 21.9065 10.8871 21.9806 10.7029 21.9971L10.6238 22C10.4109 21.9999 10.2033 21.9235 10.0496 21.7852C9.93477 21.6816 9.85454 21.5484 9.82202 21.4023L9.82007 21.3906L9.81812 21.3799L9.8064 21.2637V21.2529C9.80732 20.5242 10.0417 19.8107 10.4792 19.2002C10.8298 18.7114 11.3002 18.3051 11.8484 18.0098C11.7108 17.8548 11.5915 17.6854 11.4988 17.5029C11.3568 17.223 11.274 16.9205 11.2556 16.6133V16.6074L11.2527 16.4873V16.4814C11.253 15.8199 11.5447 15.1869 12.0603 14.7227C12.5754 14.2591 13.2715 14.0002 13.9949 14ZM13.7761 15.5127C13.6136 15.5419 13.4615 15.6034 13.3308 15.6904L13.2058 15.7861C13.0517 15.925 12.9479 16.1015 12.906 16.291C12.8643 16.4801 12.8854 16.6774 12.9675 16.8564C13.0498 17.035 13.1916 17.1899 13.3738 17.2998C13.5566 17.4097 13.7735 17.4706 13.9949 17.4707C14.293 17.4706 14.5779 17.3632 14.7849 17.1768C14.9912 16.9908 15.1041 16.7398 15.1042 16.4814L15.1013 16.4092L15.0828 16.2852C15.0546 16.1621 14.9997 16.0441 14.9207 15.9375C14.8002 15.7751 14.6274 15.6464 14.4236 15.5703C14.2195 15.4943 13.9932 15.4739 13.7761 15.5127Z" fill="#046AF2"/>
<path d="M17.8318 14L18.0144 14.0059H18.0232L18.1931 14.0215C18.5896 14.07 18.9728 14.1969 19.3123 14.3945C19.7554 14.6528 20.1086 15.0232 20.3269 15.46C20.5451 15.8973 20.6195 16.3844 20.5388 16.8594C20.4781 17.216 20.3295 17.5521 20.1121 17.8486C20.6468 18.2066 21.0944 18.6641 21.4187 19.1943C21.8038 19.8243 22.0038 20.5334 21.9998 21.2539V21.2646L21.9988 21.2754L21.9871 21.3818L21.9861 21.3916L21.9832 21.4023C21.9509 21.5471 21.8729 21.681 21.7576 21.7852C21.604 21.9234 21.3969 21.9997 21.1843 22C20.9718 21.9999 20.7641 21.9236 20.6101 21.7852C20.4562 21.6464 20.3661 21.4547 20.366 21.2529L20.3611 21.0576C20.3294 20.6087 20.1726 20.1715 19.905 19.7871C19.6011 19.3507 19.1651 18.9983 18.6462 18.7744L18.6355 18.7715L18.6199 18.7637L18.5583 18.7334L18.5457 18.7266L18.5369 18.7227L18.531 18.7188L18.3425 18.6064C18.228 18.5381 18.1332 18.4425 18.0681 18.3311C18.0028 18.2184 17.9691 18.0902 17.9724 17.9619V17.9551L17.9734 17.9473L17.9802 17.8789L17.9822 17.8652C17.9985 17.7704 18.0346 17.6779 18.0896 17.5947C18.1597 17.4887 18.2576 17.4019 18.3718 17.3398L18.5085 17.2559C18.6214 17.1772 18.7166 17.0803 18.7878 16.9697C18.8836 16.8208 18.9346 16.6518 18.9353 16.4814L18.9314 16.3857L18.9177 16.3018C18.8777 16.1095 18.773 15.9285 18.615 15.7861C18.408 15.6001 18.1237 15.4933 17.8259 15.4932C17.6133 15.493 17.4064 15.4165 17.2527 15.2783C17.099 15.1397 17.0088 14.9486 17.0085 14.7471C17.0087 14.5452 17.0986 14.3536 17.2527 14.2148C17.4064 14.0765 17.6131 14.0001 17.8259 14H17.8318Z" fill="#046AF2"/>
</svg>
