<svg width="24" height="24" viewBox="0 0 24 24" fill="none" xmlns="http://www.w3.org/2000/svg">
<path fill-rule="evenodd" clip-rule="evenodd" d="M14 2C14.5304 2 15.039 2.21086 15.4141 2.58594C15.7891 2.96101 16 3.46957 16 4V5H19C19.7956 5 20.5585 5.3163 21.1211 5.87891C21.6837 6.44152 22 7.20435 22 8V9.28027C22 10.5 21.5265 10.6757 20 11.2391C18.1756 11.9124 15.7064 12.8212 15.3203 12.9502C15.2164 12.9814 15.1084 12.998 15 13H9C8.89382 13.0144 8.78587 13.0144 8.67969 13L4 11.3896V19C4 19.2652 4.10543 19.5195 4.29297 19.707C4.48051 19.8946 4.73478 20 5 20H11C12.5 20 12.5 22 11 22H5C4.20435 22 3.44152 21.6837 2.87891 21.1211C2.3163 20.5585 2 19.7956 2 19V8C2 7.20435 2.3163 6.44152 2.87891 5.87891C3.44152 5.3163 4.20435 5 5 5H8V4C8 3.46957 8.21087 2.96101 8.58594 2.58594C8.96101 2.21086 9.46957 2 10 2H14ZM5 7C4.73478 7 4.48051 7.10543 4.29297 7.29297C4.10543 7.4805 4 7.73478 4 8V9.28027L9.16016 11H14.8398L20 9.28027V8C20 7.73478 19.8946 7.4805 19.707 7.29297C19.5195 7.10543 19.2652 7 19 7H5ZM10 5H14V4H10V5Z" fill="#202939"/>
<path d="M18.875 15.5C19.3582 15.5 19.7499 15.8919 19.75 16.375V17.5117L19.9941 17.7559L20.0537 17.8223C20.3343 18.1659 20.3145 18.6737 19.9941 18.9941C19.6739 19.3144 19.1669 19.3338 18.8232 19.0537L18.7559 18.9941L18.2559 18.4941C18.0919 18.3301 18 18.107 18 17.875V16.375C18.0001 15.8919 18.3919 15.5001 18.875 15.5Z" fill="#046AF2"/>
<path fill-rule="evenodd" clip-rule="evenodd" d="M18.875 13L19.1172 13.0059C20.3218 13.0657 21.4653 13.5709 22.3223 14.4277C23.2364 15.3419 23.7499 16.5822 23.75 17.875C23.75 19.1679 23.2365 20.408 22.3223 21.3223C21.408 22.2365 20.1679 22.75 18.875 22.75C17.5821 22.75 16.3419 22.2365 15.4277 21.3223C14.5709 20.4653 14.0657 19.3218 14.0059 18.1172L14 17.875C14.0001 16.5822 14.5136 15.3419 15.4277 14.4277C16.3419 13.5136 17.5822 13 18.875 13ZM18.875 14.75C18.0463 14.75 17.251 15.0791 16.665 15.665C16.0791 16.251 15.7501 17.0463 15.75 17.875L15.7539 18.0303C15.7923 18.8024 16.1158 19.5356 16.665 20.085C17.251 20.671 18.0463 21 18.875 21C19.7038 21 20.4989 20.671 21.085 20.085C21.671 19.4989 22 18.7038 22 17.875C21.9999 17.0463 21.6709 16.251 21.085 15.665C20.5356 15.1158 19.8024 14.7923 19.0303 14.7539L18.875 14.75Z" fill="#046AF2"/>
</svg>
