<svg width="24" height="24" viewBox="0 0 24 24" fill="none" xmlns="http://www.w3.org/2000/svg">
<path fill-rule="evenodd" clip-rule="evenodd" d="M7 4V6H5C4.73478 6 4.48051 6.10543 4.29297 6.29297C4.10543 6.48051 4 6.73478 4 7V9H20V7C20 6.73478 19.8946 6.48051 19.707 6.29297C19.5195 6.10543 19.2652 6 19 6H17V4H19C19.7956 4 20.5585 4.3163 21.1211 4.87891C21.6837 5.44152 22 6.20435 22 7V19C22 19.7956 21.6837 20.5585 21.1211 21.1211C20.5585 21.6837 19.7956 22 19 22H5C4.20435 22 3.44152 21.6837 2.87891 21.1211C2.3163 20.5585 2 19.7956 2 19V7C2 6.20435 2.3163 5.44152 2.87891 4.87891C3.44152 4.3163 4.20435 4 5 4H7ZM4 19C4 19.2652 4.10543 19.5195 4.29297 19.707C4.48051 19.8946 4.73478 20 5 20H19C19.2652 20 19.5195 19.8946 19.707 19.707C19.8946 19.5195 20 19.2652 20 19V11H4V19Z" fill="#202939"/>
<path d="M15 6H9V4H15V6Z" fill="#202939"/>
<path d="M7.79958 16C7.99647 15.9682 8.1987 15.9962 8.37966 16.0801C8.50235 16.1277 8.61466 16.1991 8.70973 16.29C8.80077 16.3851 8.8721 16.4974 8.91969 16.6201C8.9726 16.7398 8.99977 16.8691 8.99977 17C8.99977 17.1309 8.9726 17.2602 8.91969 17.3799C8.86905 17.5011 8.79806 17.6128 8.70973 17.71C8.61256 17.7982 8.50079 17.8693 8.37966 17.9199C8.26104 17.9758 8.13085 18.0034 7.99977 18C7.86698 17.9981 7.73577 17.9701 7.61403 17.917C7.49217 17.8638 7.38156 17.7867 7.28981 17.6904C7.20154 17.5933 7.13049 17.4814 7.07985 17.3604C7.02701 17.2408 6.99984 17.1112 6.99977 16.9805C6.99977 16.8496 7.02695 16.7193 7.07985 16.5996C7.12744 16.477 7.19884 16.3646 7.28981 16.2695C7.33728 16.2266 7.38788 16.1873 7.4402 16.1504C7.49595 16.1125 7.55617 16.0815 7.61989 16.0596L7.79958 16Z" fill="#046AF2"/>
<path d="M11.6199 16.0801C11.7988 16.0006 11.9986 15.979 12.1902 16.0195C12.2563 16.0288 12.3202 16.0497 12.3797 16.0801C12.441 16.1 12.4986 16.1305 12.5496 16.1699C12.6067 16.2044 12.6606 16.2448 12.7097 16.29C12.8008 16.3851 12.8721 16.4974 12.9197 16.6201C12.9709 16.7403 12.9982 16.8693 12.9998 17C13.0005 17.1316 12.9753 17.262 12.9256 17.3838C12.8758 17.5056 12.8024 17.6165 12.7097 17.71C12.6126 17.7982 12.5008 17.8693 12.3797 17.9199C12.261 17.9758 12.1309 18.0034 11.9998 18C11.8682 18.0007 11.7377 17.9755 11.616 17.9258C11.4942 17.876 11.3832 17.8026 11.2898 17.71C11.2019 17.6105 11.128 17.4993 11.0701 17.3799C11.0223 17.259 10.9982 17.13 10.9998 17C10.9964 16.8689 11.0239 16.7388 11.0799 16.6201C11.1247 16.4961 11.1965 16.3833 11.2898 16.29C11.3831 16.1968 11.4958 16.125 11.6199 16.0801Z" fill="#046AF2"/>
<path d="M15.8035 16.0195C15.9973 15.9823 16.1977 16.0036 16.3797 16.0801C16.5008 16.1307 16.6126 16.2018 16.7097 16.29C16.8008 16.3851 16.8721 16.4974 16.9197 16.6201C16.9963 16.8022 17.0176 17.0033 16.9802 17.1973C16.9428 17.3911 16.8484 17.5694 16.7097 17.71C16.6126 17.7982 16.5008 17.8693 16.3797 17.9199C16.261 17.9758 16.1309 18.0034 15.9998 18C15.8682 18.0007 15.7377 17.9755 15.616 17.9258C15.4942 17.876 15.3832 17.8026 15.2898 17.71C15.2015 17.6128 15.1305 17.501 15.0799 17.3799C15.027 17.2602 14.9998 17.1308 14.9998 17C14.9998 16.8692 15.027 16.7398 15.0799 16.6201C15.1274 16.4974 15.1988 16.3851 15.2898 16.29C15.4304 16.1513 15.6095 16.0569 15.8035 16.0195Z" fill="#046AF2"/>
<path d="M7.79958 13C7.92786 12.9701 8.06192 12.9701 8.1902 13C8.25753 13.0155 8.32152 13.0428 8.37966 13.0801C8.44097 13.1 8.4986 13.1305 8.54958 13.1699L8.70973 13.29C8.89247 13.4817 8.99609 13.7352 8.99977 14C8.99896 14.1637 8.95817 14.3246 8.88063 14.4688C8.80299 14.613 8.69074 14.7363 8.55446 14.8271C8.41835 14.9178 8.26213 14.974 8.09938 14.9902C7.9364 15.0064 7.77139 14.9822 7.61989 14.9199C7.49875 14.8693 7.38698 14.7983 7.28981 14.71C7.19718 14.6165 7.12374 14.5056 7.07399 14.3838C7.02428 14.262 6.99901 14.1315 6.99977 14C6.99835 13.7283 7.10234 13.4662 7.28981 13.2695L7.4402 13.1504L7.61989 13.0596L7.79958 13Z" fill="#046AF2"/>
<path d="M11.6199 13.0801C11.802 13.0035 12.003 12.9822 12.197 13.0195C12.3909 13.0569 12.5692 13.1514 12.7097 13.29C12.8925 13.4817 12.9961 13.7352 12.9998 14C13.0005 14.1316 12.9753 14.262 12.9256 14.3838C12.8758 14.5056 12.8024 14.6165 12.7097 14.71C12.6126 14.7982 12.5008 14.8693 12.3797 14.9199C12.2283 14.9821 12.064 15.0064 11.9011 14.9902C11.7382 14.974 11.5814 14.918 11.4451 14.8271C11.3089 14.7363 11.1975 14.6129 11.1199 14.4688C11.0423 14.3246 11.0006 14.1638 10.9998 14C11.0035 13.7353 11.1071 13.4817 11.2898 13.29C11.3849 13.199 11.4972 13.1277 11.6199 13.0801Z" fill="#046AF2"/>
<path d="M15.7996 13.0195C15.9279 12.9897 16.0619 12.9897 16.1902 13.0195C16.2563 13.0288 16.3202 13.0497 16.3797 13.0801C16.441 13.1 16.4986 13.1305 16.5496 13.1699L16.7097 13.29C16.8925 13.4817 16.9961 13.7352 16.9998 14C17.0005 14.1316 16.9753 14.262 16.9256 14.3838C16.8758 14.5056 16.8024 14.6165 16.7097 14.71C16.6126 14.7982 16.5008 14.8693 16.3797 14.9199C16.2283 14.9821 16.064 15.0064 15.9011 14.9902C15.7382 14.974 15.5814 14.918 15.4451 14.8271C15.3089 14.7363 15.1975 14.6129 15.1199 14.4688C15.0423 14.3246 15.0006 14.1638 14.9998 14C15.0035 13.7353 15.1071 13.4817 15.2898 13.29L15.4402 13.1699L15.6199 13.0801L15.7996 13.0195Z" fill="#046AF2"/>
<path d="M7.99977 2C8.55206 2 8.99977 2.44772 8.99977 3V7C8.99977 7.55228 8.55206 8 7.99977 8C7.44759 7.99987 6.99977 7.55221 6.99977 7V3C6.99977 2.44779 7.44759 2.00013 7.99977 2Z" fill="#046AF2"/>
<path d="M15.9998 2C16.5521 2 16.9998 2.44772 16.9998 3V7C16.9998 7.55228 16.5521 8 15.9998 8C15.4476 7.99987 14.9998 7.55221 14.9998 7V3C14.9998 2.44779 15.4476 2.00013 15.9998 2Z" fill="#046AF2"/>
</svg>
