<svg width="24" height="24" viewBox="0 0 24 24" fill="none" xmlns="http://www.w3.org/2000/svg">
<path fill-rule="evenodd" clip-rule="evenodd" d="M15 2C15.5523 2 16 2.44772 16 3V4H18C18.7956 4 19.5585 4.3163 20.1211 4.87891C20.6837 5.44152 21 6.20435 21 7V9C21 9 21 11 19 11H3V19C3 19.2652 3.10543 19.5195 3.29297 19.707C3.48051 19.8946 3.73478 20 4 20H7.5C9 20 9 22 7.5 22H4C3.20435 22 2.44152 21.6837 1.87891 21.1211C1.3163 20.5585 1 19.7956 1 19V7C1 6.20435 1.3163 5.44152 1.87891 4.87891C2.44152 4.3163 3.20435 4 4 4H6V3C6 2.44772 6.44772 2 7 2C7.55228 2 8 2.44772 8 3V4H14V3C14 2.44772 14.4477 2 15 2ZM4 6C3.73478 6 3.48051 6.10543 3.29297 6.29297C3.10543 6.4805 3 6.73478 3 7V9H19V7C19 6.73478 18.8946 6.4805 18.707 6.29297C18.5195 6.10543 18.2652 6 18 6H16V7C16 7.55228 15.5523 8 15 8C14.4477 8 14 7.55228 14 7V6H8V7C8 7.55228 7.55228 8 7 8C6.44772 8 6 7.55228 6 7V6H4Z" fill="#202939"/>
<path d="M6.80078 15.999C6.99738 15.9674 7.19918 15.9955 7.37988 16.0791C7.5024 16.1266 7.61497 16.1983 7.70996 16.2891C7.80082 16.384 7.87234 16.4967 7.91992 16.6191C7.97271 16.7386 8.00088 16.8684 8.00098 16.999C8.00096 17.1297 7.97267 17.2594 7.91992 17.3789C7.86932 17.5 7.79818 17.6119 7.70996 17.709C7.61281 17.7972 7.50098 17.8683 7.37988 17.9189C7.26128 17.9748 7.13108 18.0024 7 17.999C6.86721 17.9971 6.73598 17.9691 6.61426 17.916C6.49244 17.8628 6.38176 17.7857 6.29004 17.6895C6.20186 17.5923 6.13067 17.4804 6.08008 17.3594C6.02733 17.2399 6.00005 17.1101 6 16.9795C6.00006 16.8489 6.02737 16.719 6.08008 16.5996C6.12762 16.4771 6.19924 16.3645 6.29004 16.2695C6.33748 16.2266 6.38813 16.1863 6.44043 16.1494C6.49603 16.1117 6.55658 16.0814 6.62012 16.0596L6.80078 15.999Z" fill="#202939"/>
<path d="M10.6201 16.0791C10.7988 15.9998 10.9982 15.9792 11.1895 16.0195C11.2556 16.0288 11.3204 16.0487 11.3799 16.0791C11.4411 16.099 11.4989 16.1295 11.5498 16.1689C11.6069 16.2034 11.6609 16.2439 11.71 16.2891C11.8008 16.384 11.8723 16.4966 11.9199 16.6191C11.971 16.7391 11.9983 16.8686 12 16.999C12.0007 17.1303 11.9753 17.2612 11.9258 17.3828C11.8761 17.5044 11.8024 17.6157 11.71 17.709C11.6128 17.7972 11.501 17.8683 11.3799 17.9189C11.2612 17.9749 11.1311 18.0024 11 17.999C10.8685 17.9998 10.738 17.9745 10.6162 17.9248C10.4945 17.8751 10.3834 17.8016 10.29 17.709C10.2022 17.6096 10.1282 17.4982 10.0703 17.3789C10.0227 17.2582 9.99843 17.1288 10 16.999C9.99674 16.8681 10.0242 16.7376 10.0801 16.6191C10.125 16.4953 10.1969 16.3822 10.29 16.2891C10.3833 16.1959 10.4962 16.124 10.6201 16.0791Z" fill="#202939"/>
<path d="M6.80078 11.999C6.92886 11.9693 7.06235 11.9692 7.19043 11.999C7.25781 12.0145 7.32268 12.0417 7.38086 12.0791C7.44207 12.099 7.49988 12.1295 7.55078 12.1689L7.71094 12.2891C7.89341 12.4805 7.99615 12.7346 8 12.999C7.99916 13.1626 7.95837 13.3247 7.88086 13.4688C7.80326 13.6127 7.69075 13.7354 7.55469 13.8262C7.41855 13.9169 7.26238 13.973 7.09961 13.9893C6.93665 14.0055 6.77159 13.9812 6.62012 13.9189C6.49919 13.8683 6.38707 13.7971 6.29004 13.709C6.19767 13.6157 6.12388 13.5043 6.07422 13.3828C6.02471 13.2613 5.99926 13.1303 6 12.999C5.99876 12.7278 6.10297 12.466 6.29004 12.2695L6.44043 12.1494L6.62012 12.0596L6.80078 11.999Z" fill="#202939"/>
<path d="M10.6201 12.0791C10.8021 12.0026 11.0034 11.9822 11.1973 12.0195C11.3909 12.0569 11.5695 12.1506 11.71 12.2891C11.8925 12.4805 11.9961 12.7345 12 12.999C12.0007 13.1303 11.9753 13.2612 11.9258 13.3828C11.8761 13.5045 11.8025 13.6156 11.71 13.709C11.6128 13.7973 11.501 13.8683 11.3799 13.9189C11.2285 13.9811 11.0642 14.0054 10.9014 13.9893C10.7384 13.973 10.5816 13.917 10.4453 13.8262C10.3093 13.7354 10.1967 13.6128 10.1191 13.4688C10.0416 13.3247 10.0008 13.1626 10 12.999C10.0039 12.7345 10.1075 12.4805 10.29 12.2891C10.3851 12.1982 10.4975 12.1266 10.6201 12.0791Z" fill="#202939"/>
<path d="M14.7998 12C14.928 11.9702 15.0622 11.9702 15.1904 12C15.2564 12.0093 15.3206 12.0293 15.3799 12.0596C15.4411 12.0795 15.4989 12.11 15.5498 12.1494L15.71 12.2695C15.8925 12.461 15.9962 12.7149 16 12.9795C16.0003 13.0275 15.9949 13.0757 15.9883 13.123C15.6722 13.0427 15.3411 13 15 13C14.6296 13 14.2995 13.0248 14.0059 13.0723C14.0029 13.0416 14.0002 13.0104 14 12.9795C14.0038 12.715 14.1075 12.461 14.29 12.2695L14.4404 12.1494L14.6201 12.0596L14.7998 12Z" fill="#202939"/>
<path fill-rule="evenodd" clip-rule="evenodd" d="M15.1221 14L15.3877 14.0127C16.003 14.0686 16.5836 14.3167 17.0273 14.7227C17.5348 15.187 17.8221 15.8198 17.8223 16.4814V16.4873L17.8193 16.6074V16.6143C17.8012 16.9213 17.7198 17.2231 17.5801 17.5029C17.4886 17.686 17.3713 17.8556 17.2354 18.0107C17.775 18.3061 18.2379 18.7112 18.583 19.2002C19.0137 19.8108 19.2443 20.524 19.2451 21.2529V21.2646L19.2441 21.2754L19.2314 21.3818V21.3916L19.2285 21.4023C19.1967 21.5475 19.1188 21.6809 19.0049 21.7852C18.8721 21.9066 18.6991 21.9807 18.5176 21.9971L18.4404 22C18.231 21.9999 18.0274 21.9237 17.876 21.7852C17.7243 21.6463 17.6368 21.4548 17.6367 21.2529C17.6366 20.6495 17.3745 20.0679 16.9043 19.6377C16.4336 19.2071 15.7924 18.9639 15.1221 18.9639C14.452 18.964 13.8115 19.2073 13.3408 19.6377C12.8706 20.0679 12.6085 20.6495 12.6084 21.2529C12.6084 21.4547 12.5206 21.6464 12.3691 21.7852C12.2364 21.9066 12.0633 21.9806 11.8818 21.9971L11.8037 22C11.5942 21.9999 11.3906 21.9236 11.2393 21.7852C11.1262 21.6816 11.0476 21.5484 11.0156 21.4023L11.0127 21.3906L11.0117 21.3799L11 21.2637V21.2529C11.0008 20.524 11.2313 19.8108 11.6621 19.2002C12.0072 18.7113 12.4692 18.3052 13.0088 18.0098C12.8733 17.8547 12.7563 17.6856 12.665 17.5029C12.5253 17.223 12.4438 16.9206 12.4258 16.6133V16.6074L12.4229 16.4873V16.4814C12.423 15.8198 12.7103 15.187 13.2178 14.7227C13.7248 14.2589 14.41 14.0001 15.1221 14ZM14.9062 15.5127C14.7461 15.542 14.5966 15.6032 14.4678 15.6904L14.3457 15.7861C14.1939 15.925 14.092 16.1014 14.0508 16.291C14.0096 16.4803 14.0303 16.6773 14.1113 16.8564C14.1923 17.0352 14.3311 17.1898 14.5107 17.2998C14.6908 17.4099 14.9039 17.4706 15.1221 17.4707C15.4156 17.4707 15.6956 17.3633 15.8994 17.1768C16.1025 16.9907 16.2138 16.7399 16.2139 16.4814L16.2109 16.4092L16.1924 16.2852C16.1647 16.1621 16.111 16.0441 16.0332 15.9375C15.9146 15.775 15.7447 15.6464 15.5439 15.5703C15.3429 15.4942 15.1201 15.4738 14.9062 15.5127Z" fill="#046AF2"/>
<path d="M18.8984 14L19.0781 14.0059H19.0859L19.2539 14.0215C19.6441 14.07 20.0204 14.1969 20.3545 14.3945C20.7909 14.6528 21.1387 15.0229 21.3535 15.46C21.5684 15.8974 21.641 16.3843 21.5615 16.8594C21.5018 17.2161 21.3557 17.552 21.1416 17.8486C21.6681 18.2067 22.1085 18.6639 22.4277 19.1943C22.8068 19.8243 23.004 20.5333 23 21.2539V21.2646L22.999 21.2754L22.9873 21.3818L22.9863 21.3916L22.9834 21.4023C22.9516 21.5473 22.8745 21.6809 22.7607 21.7852C22.6095 21.9234 22.4065 21.9997 22.1973 22C21.988 21.9999 21.7834 21.9237 21.6318 21.7852C21.4803 21.6463 21.3916 21.4548 21.3916 21.2529L21.3867 21.0576C21.3556 20.6085 21.2019 20.1716 20.9385 19.7871C20.6393 19.3505 20.2101 18.9983 19.6992 18.7744L19.6895 18.7715L19.6738 18.7637L19.6123 18.7334L19.6006 18.7266L19.5918 18.7227L19.5859 18.7188L19.4004 18.6064C19.2876 18.538 19.1949 18.4426 19.1309 18.3311C19.0664 18.2182 19.0328 18.0905 19.0361 17.9619V17.9551L19.0371 17.9473L19.0439 17.8789L19.0459 17.8652C19.062 17.7704 19.0972 17.678 19.1514 17.5947C19.2204 17.4886 19.3171 17.402 19.4297 17.3398L19.5645 17.2559C19.6755 17.1772 19.7687 17.0803 19.8389 16.9697C19.9332 16.8207 19.9827 16.6519 19.9834 16.4814L19.9795 16.3857L19.9668 16.3018C19.9274 16.1093 19.8247 15.9287 19.6689 15.7861C19.4651 15.5997 19.185 15.4932 18.8916 15.4932C18.6823 15.493 18.4794 15.4166 18.3281 15.2783C18.1767 15.1396 18.088 14.9488 18.0879 14.7471C18.0879 14.5451 18.1764 14.3537 18.3281 14.2148C18.4794 14.0765 18.6822 14.0001 18.8916 14H18.8984Z" fill="#046AF2"/>
</svg>
