<svg width="24" height="24" viewBox="0 0 24 24" fill="none" xmlns="http://www.w3.org/2000/svg">
<path fill-rule="evenodd" clip-rule="evenodd" d="M11.0596 2L11.3398 2.09961C11.3696 2.09539 11.4 2.09542 11.4297 2.09961L11.5771 2.18359C11.6241 2.21543 11.6685 2.25104 11.71 2.29004L17.71 8.29004C17.8486 8.43057 17.943 8.60889 17.9805 8.80273C18.0178 8.9967 17.9965 9.19779 17.9199 9.37988C17.8449 9.5625 17.7174 9.71877 17.5537 9.8291C17.39 9.93943 17.1974 9.99901 17 10H13C12.2044 10 11.4415 9.6837 10.8789 9.12109C10.3163 8.55848 10 7.79565 10 7V4H5C4.73478 4 4.48051 4.10543 4.29297 4.29297C4.10543 4.48051 4 4.73478 4 5V19C4 19.2652 4.10543 19.5195 4.29297 19.707C4.48051 19.8946 4.73478 20 5 20H8C8.26522 20 8.5195 20.1054 8.70703 20.293C8.89457 20.4805 9 20.7348 9 21C9 21.2652 8.89457 21.5195 8.70703 21.707C8.5195 21.8946 8.26522 22 8 22H5C4.20435 22 3.44152 21.6837 2.87891 21.1211C2.3163 20.5585 2 19.7956 2 19V5C2 4.20435 2.3163 3.44152 2.87891 2.87891C3.44152 2.3163 4.20435 2 5 2H11.0596ZM12 7C12 7.26522 12.1054 7.5195 12.293 7.70703C12.4805 7.89457 12.7348 8 13 8H14.5898L12 5.41016V7Z" fill="#202939"/>
<path d="M7 16C7.26522 16 7.5195 16.1054 7.70703 16.293C7.89457 16.4805 8 16.7348 8 17C8 17.2652 7.89457 17.5195 7.70703 17.707C7.5195 17.8946 7.26522 18 7 18C6.73478 18 6.4805 17.8946 6.29297 17.707C6.10543 17.5195 6 17.2652 6 17C6 16.7348 6.10543 16.4805 6.29297 16.293C6.4805 16.1054 6.73478 16 7 16Z" fill="#202939"/>
<path d="M10 12C10.2652 12 10.5195 12.1054 10.707 12.293C10.8946 12.4805 11 12.7348 11 13C11 13.2652 10.8946 13.5195 10.707 13.707C10.5195 13.8946 10.2652 14 10 14H7C6.73478 14 6.4805 13.8946 6.29297 13.707C6.10543 13.5195 6 13.2652 6 13C6 12.7348 6.10543 12.4805 6.29297 12.293C6.4805 12.1054 6.73478 12 7 12H10Z" fill="#202939"/>
<path d="M8 8C8.26522 8 8.5195 8.10543 8.70703 8.29297C8.89457 8.4805 9 8.73478 9 9C9 9.26522 8.89457 9.5195 8.70703 9.70703C8.5195 9.89457 8.26522 10 8 10H7C6.73478 10 6.4805 9.89457 6.29297 9.70703C6.10543 9.5195 6 9.26522 6 9C6 8.73478 6.10543 8.4805 6.29297 8.29297C6.4805 8.10543 6.73478 8 7 8H8Z" fill="#202939"/>
<path fill-rule="evenodd" clip-rule="evenodd" d="M15.122 14L15.3876 14.0123C16.0029 14.0682 16.5834 14.3169 17.0272 14.7229C17.5348 15.1873 17.8223 15.8201 17.8224 16.4819V16.4877L17.8189 16.6077V16.6143C17.8008 16.9215 17.7199 17.2234 17.5801 17.5033C17.4886 17.6865 17.3709 17.8555 17.2349 18.0107C17.7748 18.3061 18.2377 18.7114 18.5829 19.2007C19.0137 19.8114 19.2441 20.5242 19.2448 21.2533V21.2648L19.244 21.2755L19.2318 21.3816L19.231 21.3914L19.2284 21.4021C19.1966 21.5474 19.1191 21.681 19.0052 21.7854C18.8724 21.9069 18.6995 21.9803 18.518 21.9967L18.4402 22C18.2307 21.9999 18.0274 21.9239 17.876 21.7854C17.7243 21.6465 17.6364 21.4552 17.6363 21.2533C17.6363 20.6498 17.3746 20.0685 16.9044 19.6382C16.4336 19.2074 15.7925 18.9638 15.122 18.9638C14.4517 18.9639 13.8111 19.2075 13.3405 19.6382C12.8702 20.0685 12.6085 20.6498 12.6085 21.2533C12.6084 21.4552 12.5204 21.6465 12.3688 21.7854C12.236 21.9069 12.0632 21.9803 11.8817 21.9967L11.8038 22C11.5942 21.9999 11.391 21.9238 11.2397 21.7854C11.1264 21.6817 11.0476 21.5484 11.0156 21.4021L11.013 21.3906L11.0121 21.3799L11.0009 21.2738L11 21.264V21.2533C11.0008 20.5242 11.2311 19.8114 11.6619 19.2007C12.007 18.7115 12.4693 18.3054 13.0091 18.0099C12.8735 17.8547 12.756 17.686 12.6647 17.5033C12.5249 17.2233 12.444 16.9208 12.4259 16.6135V16.6077L12.4224 16.4877V16.4819C12.4225 15.8201 12.71 15.1873 13.2176 14.7229C13.7247 14.259 14.4098 14.0001 15.122 14ZM14.9065 15.5123C14.7462 15.5416 14.5968 15.6035 14.4679 15.6908L14.3459 15.7862C14.194 15.9251 14.092 16.1015 14.0508 16.2911C14.0096 16.4805 14.0302 16.6776 14.1114 16.8569C14.1925 17.0358 14.3313 17.1902 14.5111 17.3002C14.6912 17.4103 14.9038 17.4703 15.122 17.4704C15.4155 17.4704 15.6951 17.3633 15.899 17.1768C16.1022 16.9908 16.2138 16.7405 16.2139 16.4819L16.2113 16.4095L16.1923 16.2854C16.1646 16.1622 16.1109 16.0441 16.0331 15.9375C15.9144 15.775 15.745 15.646 15.5442 15.5699C15.3431 15.4937 15.1204 15.4734 14.9065 15.5123Z" fill="#046AF2"/>
<path d="M18.8987 14L19.0778 14.0058H19.0856C19.5357 14.0354 19.973 14.1687 20.3549 14.3947C20.7913 14.653 21.1385 15.0227 21.3534 15.4597C21.5683 15.8972 21.6414 16.3842 21.5619 16.8594C21.5022 17.2162 21.3556 17.552 21.1414 17.8487C21.6679 18.2067 22.1087 18.6636 22.428 19.1941C22.8072 19.8241 23.004 20.5334 22.9999 21.2541V21.2648L22.9991 21.2755L22.987 21.3816L22.9861 21.3914L22.9835 21.4021C22.9517 21.5473 22.8743 21.681 22.7603 21.7854C22.609 21.9237 22.4063 21.9998 22.197 22C21.9878 21.9999 21.7835 21.9239 21.632 21.7854C21.4803 21.6465 21.3915 21.4552 21.3915 21.2533L21.3863 21.0576C21.3551 20.6085 21.2024 20.1715 20.9389 19.787C20.6397 19.3503 20.21 18.9986 19.6991 18.7747L19.6896 18.7714L19.674 18.764L19.6125 18.7336L19.6004 18.727L19.5918 18.7229L19.5857 18.7188L19.4006 18.6061C19.2877 18.5377 19.1946 18.443 19.1306 18.3314C19.0661 18.2186 19.0329 18.0908 19.0363 17.9622V17.9548L19.0372 17.9474L19.0441 17.8791L19.045 17.8717L19.0458 17.8651C19.0619 17.7702 19.0972 17.6779 19.1514 17.5946C19.2205 17.4883 19.3173 17.4018 19.43 17.3396L19.5641 17.2558C19.6753 17.177 19.7691 17.0804 19.8392 16.9696C19.9336 16.8204 19.9831 16.6517 19.9837 16.4811L19.9794 16.3857L19.9664 16.3018C19.927 16.1093 19.8246 15.9287 19.6688 15.7862C19.4649 15.5998 19.1852 15.4934 18.8918 15.4934C18.6823 15.4933 18.4791 15.4165 18.3277 15.278C18.1762 15.1391 18.088 14.9486 18.088 14.7467C18.088 14.5448 18.1759 14.3535 18.3277 14.2146C18.479 14.0762 18.6823 14.0001 18.8918 14H18.8987Z" fill="#046AF2"/>
</svg>
