<svg width="24" height="24" viewBox="0 0 24 24" fill="none" xmlns="http://www.w3.org/2000/svg">
<path fill-rule="evenodd" clip-rule="evenodd" d="M12 2C13.3261 2 14.5975 2.52716 15.5352 3.46484C16.4728 4.40253 17 5.67392 17 7V9C17.7956 9 18.5585 9.3163 19.1211 9.87891C19.6837 10.4415 20 11.2044 20 12V19C20 19.7956 19.6837 20.5585 19.1211 21.1211C18.5585 21.6837 17.7956 22 17 22H7C6.20435 22 5.44152 21.6837 4.87891 21.1211C4.3163 20.5585 4 19.7956 4 19V12C4 11.2044 4.3163 10.4415 4.87891 9.87891C5.44152 9.3163 6.20435 9 7 9V7C7 5.67392 7.52716 4.40253 8.46484 3.46484C9.40253 2.52716 10.6739 2 12 2ZM7 11C6.73478 11 6.48051 11.1054 6.29297 11.293C6.10543 11.4805 6 11.7348 6 12V19C6 19.2652 6.10543 19.5195 6.29297 19.707C6.48051 19.8946 6.73478 20 7 20H17C17.2652 20 17.5195 19.8946 17.707 19.707C17.8946 19.5195 18 19.2652 18 19V12C18 11.7348 17.8946 11.4805 17.707 11.293C17.5195 11.1054 17.2652 11 17 11H7ZM12 4C11.2044 4 10.4415 4.3163 9.87891 4.87891C9.3163 5.44152 9 6.20435 9 7V9H15V7C15 6.20435 14.6837 5.44152 14.1211 4.87891C13.5585 4.3163 12.7956 4 12 4Z" fill="#202939"/>
<path d="M11.1455 13.2574C11.3974 13.0863 11.6956 12.9965 12.0001 13.0001C12.3045 12.9965 12.6028 13.0863 12.8546 13.2574C13.1065 13.4285 13.2999 13.6726 13.4089 13.9569C13.5178 14.2412 13.537 14.5521 13.4639 14.8477C13.3909 15.1432 13.229 15.4093 13.0001 15.6101V17.0001C13.0001 17.2653 12.8947 17.5197 12.7072 17.7072C12.5197 17.8947 12.2653 18.0001 12.0001 18.0001C11.7349 18.0001 11.4805 17.8947 11.293 17.7072C11.1054 17.5197 11.0001 17.2653 11.0001 17.0001V15.6101C10.7712 15.4093 10.6093 15.1432 10.5362 14.8477C10.4632 14.5521 10.4824 14.2412 10.5913 13.9569C10.7002 13.6726 10.8937 13.4285 11.1455 13.2574Z" fill="#046AF2"/>
</svg>
