<svg width="24" height="24" viewBox="0 0 24 24" fill="none" xmlns="http://www.w3.org/2000/svg">
<path d="M18.001 5.49973L18.2979 5.51047C18.5937 5.53589 18.8847 5.60526 19.1611 5.71652C19.5297 5.8649 19.8656 6.08492 20.1484 6.36398C20.4312 6.64304 20.6553 6.97597 20.8086 7.3425C20.9618 7.70903 21.041 8.10246 21.041 8.49973V20.4997C21.0417 20.6948 20.9854 20.8861 20.8789 21.0495C20.7724 21.2129 20.6201 21.3416 20.4414 21.4196C20.3142 21.471 20.1782 21.4982 20.041 21.4997C19.7885 21.4989 19.5457 21.4027 19.3613 21.2302L16.3613 18.4997H8.00098C7.20549 18.4997 6.44246 18.1842 5.87988 17.6218C5.31727 17.0592 5.00098 16.2954 5.00098 15.4997V14.4997C5.00105 14.2346 5.10647 13.9802 5.29395 13.7927C5.48147 13.6052 5.73582 13.4997 6.00098 13.4997L6.09961 13.5046C6.32856 13.5273 6.54388 13.6286 6.70801 13.7927C6.89548 13.9802 7.00091 14.2346 7.00098 14.4997V15.4997C7.00098 15.7649 7.10649 16.0192 7.29395 16.2068C7.48148 16.3943 7.73576 16.4997 8.00098 16.4997H16.751L16.8447 16.5046C17.0631 16.5259 17.2692 16.6191 17.4307 16.7702L19.001 18.2204V8.49973C19.0009 8.23461 18.8955 7.98017 18.708 7.79269C18.5439 7.62862 18.3286 7.52729 18.0996 7.50461L18.001 7.49973H14.001C13.7358 7.49973 13.4815 7.39429 13.2939 7.20676C13.1065 7.01923 13.001 6.76488 13.001 6.49973C13.001 6.2346 13.1065 5.98017 13.2939 5.79269C13.4815 5.60524 13.7358 5.49973 14.001 5.49973H18.001Z" fill="#202939"/>
<path fill-rule="evenodd" clip-rule="evenodd" d="M5.42578 2.49902C5.68997 2.49902 5.9435 2.60379 6.13086 2.79004L11.7109 8.37012C11.8036 8.46353 11.877 8.57451 11.9268 8.69629C11.9765 8.81806 12.0017 8.94856 12.001 9.08008V11.5C12.001 11.7652 11.8955 12.0195 11.708 12.207C11.5205 12.3945 11.2661 12.5 11.001 12.5H8.58105C8.44957 12.5008 8.31901 12.4755 8.19727 12.4258C8.07549 12.376 7.96451 12.3026 7.87109 12.21L2.29102 6.62988C2.10476 6.44252 2 6.18899 2 5.9248C2.00005 5.66069 2.10481 5.40704 2.29102 5.21973L4.7207 2.79004C4.90806 2.60379 5.1616 2.49903 5.42578 2.49902ZM4.41113 5.91992L9.00098 10.4902H10.001V9.49023L5.4209 4.91016L4.41113 5.91992Z" fill="#046AF2"/>
</svg>
