<svg width="24" height="24" viewBox="0 0 24 24" fill="none" xmlns="http://www.w3.org/2000/svg">
<path fill-rule="evenodd" clip-rule="evenodd" d="M11.9999 2C13.3132 2 14.6138 2.2582 15.8271 2.76074C17.0403 3.26329 18.1427 4.00015 19.0712 4.92871C19.9998 5.85727 20.7367 6.95964 21.2392 8.17285C21.7418 9.38611 22 10.6868 22 12C22 13.9778 21.4132 15.9112 20.3144 17.5557C19.2156 19.2001 17.6543 20.4824 15.8271 21.2393C13.9998 21.9961 11.9886 22.1935 10.0488 21.8076C8.10909 21.4217 6.32711 20.4697 4.92866 19.0713C3.53021 17.6728 2.57822 15.8909 2.19233 13.9512C1.80648 12.0114 2.00382 10.0001 2.76069 8.17285C3.51756 6.34567 4.79987 4.78434 6.44429 3.68555C8.08878 2.58673 10.0221 2 11.9999 2ZM15.0615 4.60938C13.5997 4.00391 11.9912 3.8447 10.4394 4.15332C8.88755 4.462 7.46154 5.22395 6.34272 6.34277C5.2239 7.46159 4.46195 8.88761 4.15327 10.4395C3.84465 11.9912 4.00386 13.5998 4.60932 15.0615C5.21483 16.5232 6.24009 17.7724 7.55561 18.6514C8.87121 19.5304 10.4177 20 11.9999 20C14.1217 20 16.1569 19.1575 17.6572 17.6572C19.1575 16.1569 20 14.1217 20 12C20 10.4177 19.5304 8.87126 18.6513 7.55566C17.7723 6.24014 16.5232 5.21488 15.0615 4.60938Z" fill="#202939"/>
<path d="M11.9999 14.9941C12.1319 14.9941 12.2628 15.0205 12.3846 15.0713C12.5064 15.122 12.6169 15.1964 12.7098 15.29C12.8025 15.3835 12.8759 15.4944 12.9257 15.6162C12.9754 15.738 13.0006 15.8684 12.9999 16C13.0047 16.1293 12.9847 16.2583 12.9403 16.3799C12.8954 16.5039 12.8236 16.6167 12.7303 16.71C12.6371 16.8032 12.5243 16.875 12.4003 16.9199C12.2806 16.9728 12.1512 17 12.0204 17C11.8896 17 11.7601 16.9727 11.6405 16.9199C11.5165 16.875 11.4037 16.8032 11.3104 16.71C11.2171 16.6166 11.1454 16.504 11.1005 16.3799C11.0445 16.2612 11.017 16.1312 11.0204 16C11.0155 15.9334 11.0155 15.8664 11.0204 15.7998C11.0313 15.7373 11.0512 15.6767 11.08 15.6201C11.1018 15.5566 11.1321 15.4961 11.1698 15.4404C11.2067 15.3881 11.2469 15.3375 11.2899 15.29C11.3828 15.1964 11.4934 15.1221 11.6151 15.0713C11.7369 15.0205 11.8679 14.9942 11.9999 14.9941Z" fill="#046AF2"/>
<path d="M11.9999 7C12.7034 7.00546 13.3826 7.25837 13.9188 7.71387C14.455 8.16937 14.8143 8.79879 14.9335 9.49219C15.0525 10.1854 14.9245 10.8986 14.5712 11.5068C14.2177 12.1152 13.6612 12.5803 12.9999 12.8203V13C12.9999 13.2652 12.8944 13.5195 12.7069 13.707C12.5194 13.8945 12.265 14 11.9999 14C11.7347 13.9999 11.4803 13.8945 11.2928 13.707C11.1054 13.5195 10.9999 13.2652 10.9999 13V12C10.9999 11.7348 11.1054 11.4805 11.2928 11.293C11.4569 11.1289 11.6723 11.0276 11.9012 11.0049L12.0985 10.9951C12.3275 10.9725 12.5427 10.8712 12.7069 10.707C12.8944 10.5195 12.9999 10.2652 12.9999 10C12.9999 9.73478 12.8944 9.48051 12.7069 9.29297C12.5194 9.1055 12.265 9 11.9999 9C11.8238 8.99934 11.6506 9.0451 11.4979 9.13281C11.3451 9.22062 11.2179 9.3474 11.1298 9.5C11.0672 9.61945 10.9812 9.72519 10.8768 9.81055C10.7725 9.89585 10.6518 9.95952 10.5223 9.99707C10.3931 10.0345 10.2575 10.0455 10.1239 10.0293C9.99016 10.0131 9.86068 9.96971 9.74401 9.90234C9.62735 9.83491 9.52509 9.74449 9.44421 9.63672C9.36329 9.52882 9.30442 9.40541 9.27233 9.27441C9.24026 9.14344 9.2358 9.00708 9.25769 8.87402C9.27959 8.74102 9.32795 8.61376 9.40026 8.5C9.66372 8.04371 10.0425 7.66467 10.4989 7.40137C10.9553 7.13808 11.473 6.9997 11.9999 7Z" fill="#046AF2"/>
</svg>
