<svg width="24" height="24" viewBox="0 0 24 24" fill="none" xmlns="http://www.w3.org/2000/svg">
<path fill-rule="evenodd" clip-rule="evenodd" d="M11.4913 2.00808C11.7491 1.99806 12.0072 1.99694 12.2648 2.0071C12.3724 1.99359 12.4811 1.99984 12.5851 2.02566C13.3711 2.08232 14.1514 2.23254 14.9083 2.47683C16.6376 3.03499 18.1799 4.05978 19.3644 5.43777C20.5487 6.81571 21.3301 8.49407 21.6222 10.2874C21.6998 10.7643 21.3755 11.2146 20.8986 11.2923C20.4217 11.3697 19.9723 11.0455 19.8946 10.5686C19.8721 10.4304 19.8462 10.2929 19.8165 10.1565L19.7169 9.74929H15.6984C15.7245 9.96732 15.7477 10.1863 15.7657 10.4055C15.8054 10.8871 15.4475 11.3092 14.9659 11.3489C14.4844 11.3885 14.0623 11.0306 14.0226 10.5491C14.0116 10.4153 13.9983 10.2819 13.9835 10.1487L13.9347 9.74929H9.81262C9.78988 9.92026 9.76836 10.092 9.75109 10.2639C9.62583 11.5112 9.64858 12.7648 9.81262 13.9993H10.3741L10.464 14.0042C10.905 14.0491 11.249 14.4214 11.2491 14.8743C11.2491 15.3575 10.8574 15.7493 10.3741 15.7493H10.1427C10.2541 16.1996 10.3858 16.6457 10.5363 17.0862L10.6915 17.5218L10.7189 17.6077C10.8311 18.0365 10.6029 18.489 10.1788 18.6477C9.75451 18.8063 9.2845 18.6146 9.08801 18.2171L9.05285 18.135L8.88 17.6516C8.71996 17.183 8.58005 16.7086 8.46008 16.2298L8.3468 15.7493H4.73449C5.2023 16.6114 5.82383 17.3861 6.57336 18.0315C7.6356 18.9461 8.91563 19.5697 10.2872 19.843L10.5626 19.8928L10.6505 19.9114C11.0784 20.027 11.3573 20.4508 11.2843 20.8977C11.2111 21.3446 10.8117 21.657 10.3693 21.6302L10.2794 21.6194L9.94543 21.5589C8.27835 21.2267 6.72282 20.4693 5.43176 19.3577C4.05486 18.172 3.03136 16.6294 2.47473 14.8997C1.91817 13.1701 1.84952 11.3201 2.27648 9.55398C2.70359 7.78778 3.61017 6.17327 4.89562 4.88894C6.1811 3.6046 7.79601 2.69925 9.56262 2.27371C10.0895 2.1468 10.624 2.06557 11.1603 2.02664C11.2677 1.99954 11.3801 1.99312 11.4913 2.00808ZM3.97766 9.96511C3.65611 11.2951 3.67752 12.6826 4.0343 13.9993H8.04894C7.89411 12.7054 7.87882 11.3942 8.00988 10.0891L8.04894 9.74929H4.03332C4.01394 9.82081 3.99511 9.89295 3.97766 9.96511ZM9.73254 4.03738C8.37285 4.4091 7.13113 5.12893 6.13195 6.12722C5.57576 6.68301 5.10708 7.31468 4.73547 7.99929H8.3468C8.65119 6.62906 9.11676 5.29939 9.73254 4.03738ZM11.8673 3.74929C11.0915 5.07906 10.5123 6.51089 10.1437 7.99929H13.6027C13.2804 6.69746 12.7977 5.43861 12.1622 4.2532L11.88 3.74929C11.8758 3.74929 11.8715 3.74929 11.8673 3.74929ZM14.0148 4.0364C14.6308 5.29897 15.0953 6.62916 15.3995 7.99929H19.0148C18.741 7.4949 18.4147 7.01754 18.0372 6.57839C17.0627 5.44466 15.7939 4.60112 14.3712 4.14187C14.2532 4.10379 14.134 4.06895 14.0148 4.0364Z" fill="#202939"/>
<path d="M17.874 15.4993C18.3572 15.4993 18.7489 15.8911 18.749 16.3743V17.511L18.9932 17.7551L19.0527 17.8215C19.3333 18.1652 19.3136 18.673 18.9932 18.9934C18.6729 19.3137 18.1659 19.3331 17.8223 19.053L17.7549 18.9934L17.2549 18.4934C17.0909 18.3293 16.999 18.1062 16.999 17.8743V16.3743C16.9992 15.8912 17.3909 15.4994 17.874 15.4993Z" fill="#046AF2"/>
<path fill-rule="evenodd" clip-rule="evenodd" d="M17.874 12.9993L18.1162 13.0051C19.3209 13.065 20.4643 13.5701 21.3213 14.427C22.2355 15.3412 22.749 16.5814 22.749 17.8743C22.749 19.1672 22.2355 20.4073 21.3213 21.3215C20.407 22.2358 19.1669 22.7493 17.874 22.7493C16.5812 22.7492 15.341 22.2357 14.4268 21.3215C13.5699 20.4646 13.0648 19.3211 13.0049 18.1165L12.999 17.8743C12.9991 16.5814 13.5126 15.3412 14.4268 14.427C15.341 13.5128 16.5812 12.9993 17.874 12.9993ZM17.874 14.7493C17.0453 14.7493 16.2501 15.0783 15.6641 15.6643C15.0781 16.2503 14.7491 17.0456 14.749 17.8743L14.7529 18.0295C14.7913 18.8017 15.1148 19.5349 15.6641 20.0842C16.2501 20.6702 17.0453 20.9992 17.874 20.9993C18.7028 20.9993 19.4979 20.6703 20.084 20.0842C20.67 19.4982 20.999 18.703 20.999 17.8743C20.999 17.0456 20.67 16.2503 20.084 15.6643C19.5347 15.1151 18.8015 14.7916 18.0293 14.7532L17.874 14.7493Z" fill="#046AF2"/>
</svg>
