<svg width="24" height="24" viewBox="0 0 24 24" fill="none" xmlns="http://www.w3.org/2000/svg">
<path fill-rule="evenodd" clip-rule="evenodd" d="M19 6.47949C17.0283 8.10399 14.5547 8.99542 12 9.00195H9V13.002H12C14.5546 13.0083 17.0283 13.8992 19 15.5234V18.3652C18.2239 17.406 17.2594 16.6158 16.166 16.0439C15.2093 15.5435 14.1714 15.2197 13.1025 15.0859L12.6426 15.04L10.5 15L10.4834 15.002L6.5 15L6.4834 15.002H6C5.20462 15.0011 4.4423 14.6845 3.87988 14.1221C3.31748 13.5597 3.00087 12.7973 3 12.002V10.002C3.00088 9.20659 3.31747 8.44425 3.87988 7.88184C4.4423 7.31943 5.20463 7.00282 6 7.00195H12C13.3434 6.99696 14.669 6.69216 15.8799 6.11035C17.0907 5.52855 18.1567 4.6843 19 3.63867V6.47949ZM6 9.00195C5.73485 9.00213 5.48046 9.10744 5.29297 9.29492C5.10548 9.48241 5.00019 9.73681 5 10.002V12.002C5.00018 12.2671 5.10549 12.5215 5.29297 12.709C5.48047 12.8965 5.73484 13.0018 6 13.002L7.5 13V9.00195H6Z" fill="#202939"/>
<path d="M12.6426 15.04L9.91894 21.3955C9.84208 21.5755 9.71411 21.7291 9.55077 21.8369C9.38739 21.9447 9.19574 22.0021 8.99999 22.002H4.99999C4.83451 22.0021 4.67111 21.9612 4.52538 21.8828C4.37979 21.8044 4.25606 21.6908 4.16503 21.5527C4.07395 21.4146 4.01855 21.2556 4.0039 21.0908C3.98931 20.9261 4.0158 20.7603 4.08105 20.6084L6.48339 15.002L6.49999 15L8.65917 15.002L6.51659 20.002H8.34081L10.4834 15.002L10.5 15L12.6426 15.04Z" fill="#046AF2"/>
<path d="M20 2C20.5523 2.00001 21 2.44772 21 3V19C21 19.5523 20.5523 20 20 20C19.4477 20 19 19.5523 19 19V3C19 2.44772 19.4477 2 20 2Z" fill="#046AF2"/>
</svg>
