<svg width="24" height="24" viewBox="0 0 24 24" fill="none" xmlns="http://www.w3.org/2000/svg">
<path fill-rule="evenodd" clip-rule="evenodd" d="M16 2C16.5523 2 17 2.44772 17 3V4H19C20.6569 4 22 5.34315 22 7V19C22 20.6569 20.6569 22 19 22H5C3.34315 22 2 20.6569 2 19V7C2 5.34315 3.34315 4 5 4H7V3C7 2.44772 7.44772 2 8 2C8.55228 2 9 2.44772 9 3V4H15V3C15 2.44772 15.4477 2 16 2ZM5 6C4.44772 6 4 6.44772 4 7V9V11V19C4 19.5523 4.44772 20 5 20H19C19.5523 20 20 19.5523 20 19V11V9V7C20 6.44772 19.5523 6 19 6H17C17 6.55229 16.5523 7 16 7C15.4477 7 15 6.55229 15 6H9C9 6.55229 8.55228 7 8 7C7.44772 7 7 6.55229 7 6H5Z" fill="#202939"/>
<path fill-rule="evenodd" clip-rule="evenodd" d="M10.4764 9.81746C11.002 9.76015 11.5291 9.84576 12.0077 10.0528C12.452 9.86485 12.9376 9.78082 13.4247 9.81844C14.0483 9.86681 14.641 10.1071 15.12 10.503L15.3182 10.6817L15.3192 10.6837C15.8803 11.2406 16.1989 11.997 16.1991 12.7882C16.199 13.5796 15.8806 14.3365 15.3192 14.8936L15.3182 14.8956L13.3299 16.8595L13.3241 16.8653C12.9698 17.2092 12.4952 17.3993 12.0038 17.3995C11.5124 17.3994 11.0368 17.2092 10.6825 16.8653L10.6766 16.8595L8.68834 14.8956L8.68932 14.8946C8.15057 14.3652 7.83071 13.6519 7.80064 12.8966C7.77072 12.1395 8.03324 11.4007 8.53111 10.8302C9.02863 10.2602 9.72473 9.89965 10.4764 9.81746ZM10.6932 11.8057C10.4364 11.8339 10.2025 11.957 10.038 12.1456C9.87382 12.3337 9.79012 12.5743 9.79967 12.8175C9.80823 13.03 9.8876 13.236 10.0272 13.4014L10.0917 13.4698L10.0946 13.4727L12.0028 15.3585L13.912 13.4727C14.0971 13.2884 14.199 13.0418 14.1991 12.7882C14.1989 12.5347 14.097 12.2879 13.912 12.1036C13.7424 11.9362 13.5146 11.8316 13.2704 11.8126C13.0257 11.7937 12.7832 11.8625 12.5878 12.003L11.9979 12.4268L11.412 11.9971C11.2076 11.8473 10.9501 11.7777 10.6932 11.8057Z" fill="#046AF2"/>
</svg>
