<svg width="24" height="24" viewBox="0 0 24 24" fill="none" xmlns="http://www.w3.org/2000/svg">
<g clip-path="url(#clip0_29452_23758)">
<path d="M14 2C14.5523 2 15 2.44772 15 3V4H17C18.6569 4 20 5.34315 20 7V11.0723C20.0361 12.5005 18 12.5005 18 11.0723V7C18 6.44772 17.5523 6 17 6H15C15 6.55229 14.5523 7 14 7C13.4477 7 13 6.55229 13 6H7C7 6.55229 6.55228 7 6 7C5.44772 7 5 6.55229 5 6H3C2.44772 6 2 6.44772 2 7V19C2 19.5523 2.44772 20 3 20L10.0361 20.0005C11.3301 20.0005 11.3242 22 10.0361 22H3C1.34315 22 0 20.6569 0 19V7C0 5.34315 1.34315 4 3 4H5V3C5 2.44772 5.44772 2 6 2C6.55228 2 7 2.44772 7 3V4H13V3C13 2.44772 13.4477 2 14 2Z" fill="#202939"/>
<path fill-rule="evenodd" clip-rule="evenodd" d="M8.47656 9.81738C9.00213 9.76008 9.52923 9.84568 10.0078 10.0527C10.4521 9.86477 10.9377 9.78074 11.4248 9.81836C12.0484 9.86673 12.6411 10.107 13.1201 10.5029L13.3184 10.6816L13.3193 10.6836C13.8804 11.2406 14.199 11.997 14.1992 12.7881C14.1992 13.5795 13.8807 14.3364 13.3193 14.8936L13.3184 14.8955L11.3301 16.8594L11.3242 16.8652C10.9699 17.2092 10.4953 17.3992 10.0039 17.3994C9.51251 17.3993 9.03696 17.2091 8.68262 16.8652L8.67676 16.8594L6.68848 14.8955L6.68945 14.8945C6.15071 14.3651 5.83084 13.6518 5.80078 12.8965C5.77085 12.1395 6.03338 11.4006 6.53125 10.8301C7.02877 10.2601 7.72486 9.89957 8.47656 9.81738ZM8.69336 11.8057C8.43649 11.8338 8.20263 11.957 8.03809 12.1455C7.87395 12.3336 7.79025 12.5742 7.79981 12.8174C7.80837 13.03 7.88773 13.2359 8.02734 13.4014L8.0918 13.4697L8.09473 13.4727L10.0029 15.3584L11.9121 13.4727C12.0972 13.2883 12.1992 13.0417 12.1992 12.7881C12.199 12.5346 12.0972 12.2878 11.9121 12.1035C11.7425 11.9361 11.5148 11.8315 11.2705 11.8125C11.0259 11.7937 10.7833 11.8624 10.5879 12.0029L9.99805 12.4268L9.41211 11.9971C9.2077 11.8473 8.95025 11.7777 8.69336 11.8057Z" fill="#202939"/>
<path fill-rule="evenodd" clip-rule="evenodd" d="M16.1221 14L16.3877 14.0127C17.003 14.0686 17.5836 14.3167 18.0273 14.7227C18.5348 15.187 18.8221 15.8198 18.8223 16.4814V16.4873L18.8193 16.6074V16.6143C18.8012 16.9213 18.7198 17.2231 18.5801 17.5029C18.4886 17.686 18.3713 17.8556 18.2354 18.0107C18.775 18.3061 19.2379 18.7112 19.583 19.2002C20.0137 19.8108 20.2443 20.524 20.2451 21.2529V21.2647L20.2441 21.2754L20.2314 21.3818V21.3916L20.2285 21.4023C20.1967 21.5475 20.1188 21.6809 20.0049 21.7852C19.8721 21.9066 19.6991 21.9807 19.5176 21.9971L19.4404 22C19.231 21.9999 19.0274 21.9237 18.876 21.7852C18.7243 21.6463 18.6368 21.4548 18.6367 21.2529C18.6366 20.6495 18.3745 20.0679 17.9043 19.6377C17.4336 19.2072 16.7924 18.9639 16.1221 18.9639C15.452 18.964 14.8115 19.2073 14.3408 19.6377C13.8706 20.0679 13.6085 20.6495 13.6084 21.2529C13.6084 21.4547 13.5206 21.6464 13.3691 21.7852C13.2364 21.9066 13.0633 21.9806 12.8818 21.9971L12.8037 22C12.5942 21.9999 12.3906 21.9236 12.2393 21.7852C12.1262 21.6816 12.0476 21.5484 12.0156 21.4023L12.0127 21.3906L12.0117 21.3799L12 21.2637V21.2529C12.0008 20.524 12.2313 19.8108 12.6621 19.2002C13.0072 18.7113 13.4692 18.3052 14.0088 18.0098C13.8733 17.8547 13.7563 17.6856 13.665 17.5029C13.5253 17.223 13.4438 16.9206 13.4258 16.6133V16.6074L13.4229 16.4873V16.4814C13.4231 15.8198 13.7103 15.187 14.2178 14.7227C14.7249 14.2589 15.41 14.0001 16.1221 14ZM15.9063 15.5127C15.7461 15.542 15.5966 15.6032 15.4678 15.6904L15.3457 15.7861C15.1939 15.925 15.092 16.1014 15.0508 16.291C15.0096 16.4803 15.0303 16.6773 15.1113 16.8564C15.1923 17.0352 15.3311 17.1898 15.5107 17.2998C15.6908 17.4099 15.9039 17.4706 16.1221 17.4707C16.4156 17.4707 16.6956 17.3633 16.8994 17.1768C17.1025 16.9907 17.2138 16.7399 17.2139 16.4814L17.2109 16.4092L17.1924 16.2852C17.1647 16.1621 17.111 16.0441 17.0332 15.9375C16.9146 15.775 16.7447 15.6464 16.5439 15.5703C16.3429 15.4942 16.1201 15.4738 15.9063 15.5127Z" fill="#046AF2"/>
<path d="M19.8984 14L20.0781 14.0059H20.0859L20.2539 14.0215C20.6441 14.07 21.0204 14.1969 21.3545 14.3945C21.7909 14.6528 22.1387 15.0229 22.3535 15.46C22.5684 15.8974 22.641 16.3843 22.5615 16.8594C22.5018 17.2161 22.3557 17.552 22.1416 17.8486C22.6681 18.2067 23.1085 18.6639 23.4277 19.1943C23.8068 19.8243 24.004 20.5333 24 21.2539V21.2647L23.999 21.2754L23.9873 21.3818L23.9863 21.3916L23.9834 21.4023C23.9516 21.5473 23.8745 21.6809 23.7607 21.7852C23.6095 21.9234 23.4065 21.9997 23.1973 22C22.988 21.9999 22.7834 21.9237 22.6318 21.7852C22.4803 21.6463 22.3916 21.4548 22.3916 21.2529L22.3867 21.0576C22.3556 20.6085 22.2019 20.1716 21.9385 19.7871C21.6393 19.3505 21.2101 18.9983 20.6992 18.7744L20.6895 18.7715L20.6738 18.7637L20.6123 18.7334L20.6006 18.7266L20.5918 18.7227L20.5859 18.7188L20.4004 18.6064C20.2876 18.538 20.1949 18.4426 20.1309 18.3311C20.0664 18.2182 20.0328 18.0905 20.0361 17.9619V17.9551L20.0371 17.9473L20.0439 17.8789L20.0459 17.8652C20.062 17.7704 20.0972 17.678 20.1514 17.5947C20.2204 17.4886 20.3171 17.402 20.4297 17.3398L20.5645 17.2559C20.6755 17.1772 20.7687 17.0803 20.8389 16.9697C20.9332 16.8207 20.9827 16.6519 20.9834 16.4814L20.9795 16.3857L20.9668 16.3018C20.9274 16.1093 20.8247 15.9287 20.6689 15.7861C20.4651 15.5997 20.185 15.4932 19.8916 15.4932C19.6823 15.493 19.4794 15.4166 19.3281 15.2783C19.1767 15.1396 19.088 14.9488 19.0879 14.7471C19.0879 14.5451 19.1764 14.3537 19.3281 14.2148C19.4794 14.0765 19.6822 14.0001 19.8916 14H19.8984Z" fill="#046AF2"/>
</g>
<defs>
<clipPath id="clip0_29452_23758">
<rect width="24" height="24" fill="white"/>
</clipPath>
</defs>
</svg>
