<svg width="24" height="24" viewBox="0 0 24 24" fill="none" xmlns="http://www.w3.org/2000/svg">
<path d="M12 16C12.2652 16 12.5195 16.1054 12.707 16.293C12.8946 16.4805 13 16.7348 13 17C13 17.2652 12.8946 17.5195 12.707 17.707C12.5195 17.8946 12.2652 18 12 18H8C7.73478 18 7.4805 17.8946 7.29297 17.707C7.10543 17.5195 7 17.2652 7 17C7 16.7348 7.10543 16.4805 7.29297 16.293C7.4805 16.1054 7.73478 16 8 16H12Z" fill="#202939"/>
<path d="M14 12C14.2652 12 14.5195 12.1054 14.707 12.293C14.8946 12.4805 15 12.7348 15 13C15 13.2652 14.8946 13.5195 14.707 13.707C14.5195 13.8946 14.2652 14 14 14H8C7.73478 14 7.4805 13.8946 7.29297 13.707C7.10543 13.5195 7 13.2652 7 13C7 12.7348 7.10543 12.4805 7.29297 12.293C7.4805 12.1054 7.73478 12 8 12H14Z" fill="#202939"/>
<path d="M9 8C9.26522 8 9.5195 8.10543 9.70703 8.29297C9.89457 8.4805 10 8.73478 10 9C10 9.26522 9.89457 9.5195 9.70703 9.70703C9.5195 9.89457 9.26522 10 9 10H8C7.73478 10 7.4805 9.89457 7.29297 9.70703C7.10543 9.5195 7 9.26522 7 9C7 8.73478 7.10543 8.4805 7.29297 8.29297C7.4805 8.10543 7.73478 8 8 8H9Z" fill="#202939"/>
<path fill-rule="evenodd" clip-rule="evenodd" d="M12.0596 2L12.2188 2.04297C12.2707 2.06139 12.3214 2.08428 12.3701 2.11035C12.4031 2.10458 12.4367 2.1046 12.4697 2.11035C12.5725 2.15841 12.6674 2.22206 12.75 2.2998L18.75 8.2998C18.8278 8.38247 18.8923 8.47726 18.9404 8.58008V8.66992C18.9699 8.75753 18.9896 8.84859 19 8.94043V15C19 15.2652 18.8946 15.5195 18.707 15.707C18.5195 15.8946 18.2652 16 18 16C17.7348 16 17.4805 15.8946 17.293 15.707C17.1054 15.5195 17 15.2652 17 15V10H14C13.2044 10 12.4415 9.6837 11.8789 9.12109C11.3163 8.55848 11 7.79565 11 7V4H6C5.73478 4 5.48051 4.10543 5.29297 4.29297C5.10543 4.48051 5 4.73478 5 5V19C5 19.2652 5.10543 19.5195 5.29297 19.707C5.48051 19.8946 5.73478 20 6 20H12C12.2652 20 12.5195 20.1054 12.707 20.293C12.8946 20.4805 13 20.7348 13 21C13 21.2652 12.8946 21.5195 12.707 21.707C12.5195 21.8946 12.2652 22 12 22H6C5.20435 22 4.44152 21.6837 3.87891 21.1211C3.3163 20.5585 3 19.7956 3 19V5C3 4.20435 3.3163 3.44152 3.87891 2.87891C4.44152 2.3163 5.20435 2 6 2H12.0596ZM13 7C13 7.26522 13.1054 7.5195 13.293 7.70703C13.4805 7.89457 13.7348 8 14 8H15.5898L13 5.41016V7Z" fill="#202939"/>
<path d="M21.0986 15.999C21.1968 16.0088 21.2934 16.0332 21.3848 16.0713C21.5065 16.1221 21.6171 16.1964 21.71 16.29C21.8036 16.3829 21.8779 16.4935 21.9287 16.6152C21.9795 16.7371 22.0059 16.868 22.0059 17C22.0059 17.132 21.9795 17.2629 21.9287 17.3848C21.8779 17.5065 21.8036 17.6171 21.71 17.71L17.71 21.71C17.6171 21.8036 17.5065 21.8779 17.3848 21.9287C17.2629 21.9795 17.132 22.0059 17 22.0059C16.868 22.0059 16.7371 21.9795 16.6152 21.9287C16.4935 21.8779 16.3829 21.8036 16.29 21.71L14.29 19.71C14.1968 19.6167 14.1227 19.5056 14.0723 19.3838C14.0219 19.2621 13.9961 19.1317 13.9961 19C13.9961 18.8683 14.0219 18.7379 14.0723 18.6162C14.1227 18.4944 14.1968 18.3833 14.29 18.29C14.3833 18.1968 14.4944 18.1227 14.6162 18.0723C14.7379 18.0219 14.8683 17.9961 15 17.9961L15.0986 18.001C15.1965 18.0106 15.2926 18.0345 15.3838 18.0723C15.5056 18.1227 15.6167 18.1968 15.71 18.29L17 19.5898L20.29 16.29C20.3829 16.1964 20.4935 16.1221 20.6152 16.0713C20.7371 16.0205 20.868 15.9941 21 15.9941L21.0986 15.999Z" fill="#046AF2"/>
</svg>
