<svg width="24" height="24" viewBox="0 0 24 24" fill="none" xmlns="http://www.w3.org/2000/svg">
<path fill-rule="evenodd" clip-rule="evenodd" d="M18 7.00513C18.7956 7.00513 19.5585 7.32142 20.1211 7.88403C20.6837 8.44664 21 9.20948 21 10.0051V12.0051L20.9951 12.1038C20.9724 12.3328 20.8712 12.548 20.707 12.7122L20.6338 12.7786C20.4812 12.9036 20.295 12.9808 20.0986 13.0002L20 13.0051H19V19.0051C19 19.8008 18.6837 20.5636 18.1211 21.1262L17.9014 21.3254C17.3675 21.7629 16.6963 22.0051 16 22.0051H8C7.30372 22.0051 6.6325 21.7629 6.09863 21.3254L5.87891 21.1262C5.3163 20.5636 5 19.8008 5 19.0051V13.0051H4L3.90137 13.0002C3.70504 12.9808 3.5188 12.9036 3.36621 12.7786L3.29297 12.7122C3.12883 12.548 3.02757 12.3328 3.00488 12.1038L3 12.0051V10.0051C3 9.30885 3.24218 8.63763 3.67969 8.10376L3.87891 7.88403C4.44152 7.32142 5.20435 7.00513 6 7.00513H18ZM7 19.0051C7 19.2703 7.10543 19.5246 7.29297 19.7122C7.48051 19.8997 7.73478 20.0051 8 20.0051H11V13.0051H7V19.0051ZM13 20.0051H16C16.2652 20.0051 16.5195 19.8997 16.707 19.7122C16.8946 19.5246 17 19.2703 17 19.0051V13.0051H13V20.0051ZM6 9.00513C5.76791 9.00513 5.54417 9.08585 5.36621 9.23169L5.29297 9.2981C5.10543 9.48563 5 9.73991 5 10.0051V11.0051H11V9.00513H6ZM13 11.0051H19V10.0051C19 9.77303 18.9193 9.54929 18.7734 9.37134L18.707 9.2981C18.5195 9.11056 18.2652 9.00513 18 9.00513H13V11.0051Z" fill="#202939"/>
<path d="M13.7881 2.07537C14.4697 1.93138 15.179 1.99466 15.8243 2.25701C16.4695 2.5194 17.0216 2.96933 17.4092 3.54803C17.7968 4.12675 18.003 4.80855 18 5.50506C17.9979 6.02493 17.8776 6.5379 17.6494 7.00506H14.5C14.7965 7.00498 15.0865 6.91779 15.333 6.7531C15.5797 6.58828 15.7722 6.35337 15.8858 6.07928C15.9992 5.80533 16.0285 5.50387 15.9707 5.21307C15.9129 4.92209 15.7704 4.65429 15.5606 4.44451C15.3508 4.23475 15.083 4.09223 14.792 4.03435C14.5012 3.97656 14.1997 4.00592 13.9258 4.11932C13.6517 4.23285 13.4168 4.42538 13.252 4.67205C13.0873 4.91857 13.0001 5.2086 13 5.50506V7.00506H11V5.50506C10.9999 5.20856 10.9118 4.91859 10.7471 4.67205C10.5823 4.42538 10.3474 4.23285 10.0733 4.11932C9.79933 4.00595 9.49785 3.97653 9.20706 4.03435C8.91609 4.09223 8.64829 4.23473 8.43851 4.44451C8.22876 4.65428 8.08622 4.92212 8.02835 5.21307C7.97053 5.50395 8.00081 5.80526 8.11429 6.07928C8.22782 6.35337 8.41937 6.58828 8.66605 6.7531C8.91272 6.91792 9.20336 7.00506 9.50003 7.00506H6.34964C6.12154 6.53792 6.00216 6.0249 6.00003 5.50506C5.9971 4.80855 6.20229 4.12676 6.58987 3.54803C6.97753 2.96929 7.52957 2.51942 8.17484 2.25701C8.82012 1.99462 9.52941 1.9314 10.211 2.07537C10.8926 2.21938 11.516 2.56455 12 3.0656C12.484 2.56465 13.1066 2.21937 13.7881 2.07537Z" fill="#046AF2"/>
</svg>
