<svg width="24" height="24" viewBox="0 0 24 24" fill="none" xmlns="http://www.w3.org/2000/svg">
<path d="M7.97075 3.99995C7.71095 4.00769 7.46437 4.11626 7.28325 4.30268L3.29302 8.29292C3.10555 8.48046 3.00024 8.73478 3.00024 8.99995C3.00024 9.26512 3.10555 9.51943 3.29302 9.70698L7.28325 13.6972C7.3754 13.7931 7.48577 13.8697 7.60789 13.9225C7.73001 13.9752 7.86142 14.0031 7.99444 14.0044C8.12746 14.0058 8.25941 13.9805 8.38256 13.9303C8.50571 13.88 8.6176 13.8056 8.71166 13.7116C8.80572 13.6175 8.88007 13.5056 8.93036 13.3825C8.98065 13.2593 9.00587 13.1274 9.00453 12.9943C9.00319 12.8613 8.97534 12.7299 8.92258 12.6078C8.86983 12.4857 8.79325 12.3753 8.69732 12.2831L6.41411 9.99995H14.9805C17.2275 9.99995 19 11.7691 19 13.9999C19 16.2308 17.2275 17.9999 14.9805 17.9999H9.00005C8.86754 17.9981 8.73597 18.0226 8.61301 18.072C8.49004 18.1214 8.37812 18.1947 8.28375 18.2878C8.18938 18.3808 8.11444 18.4917 8.06329 18.614C8.01215 18.7362 7.98581 18.8674 7.98581 18.9999C7.98581 19.1325 8.01215 19.2637 8.06329 19.3859C8.11444 19.5082 8.18938 19.6191 8.28375 19.7121C8.37812 19.8052 8.49004 19.8785 8.61301 19.9279C8.73597 19.9773 8.86754 20.0018 9.00005 19.9999H14.9805C18.2964 19.9999 21 17.3087 21 13.9999C21 10.6912 18.2964 7.99995 14.9805 7.99995H6.41411L8.69732 5.71675C8.84182 5.57628 8.94052 5.39544 8.98048 5.19792C9.02044 5.0004 8.9998 4.79541 8.92126 4.60983C8.84271 4.42424 8.70994 4.26671 8.54033 4.15788C8.37072 4.04905 8.17218 3.994 7.97075 3.99995Z" fill="#697586"/>
</svg>
