<svg width="24" height="24" viewBox="0 0 24 24" fill="none" xmlns="http://www.w3.org/2000/svg">
<path d="M5 22C5.79565 22 6.55871 21.6839 7.12132 21.1213C7.68393 20.5587 8 19.7957 8 19C7.99735 18.553 7.89485 18.1123 7.7 17.71L10 15.43C10.6039 15.7933 11.2953 15.9852 12 15.9852C12.7047 15.9852 13.3961 15.7933 14 15.43L15.27 16.7C15.084 17.1077 14.9918 17.5519 15 18C15 18.5933 15.1759 19.1734 15.5056 19.6667C15.8352 20.1601 16.3038 20.5446 16.8519 20.7716C17.4001 20.9987 18.0033 21.0581 18.5853 20.9424C19.1672 20.8266 19.7018 20.5409 20.1213 20.1213C20.5409 19.7018 20.8266 19.1672 20.9424 18.5853C21.0581 18.0033 20.9987 17.4001 20.7716 16.852C20.5446 16.3038 20.1601 15.8352 19.6667 15.5056C19.1734 15.1759 18.5933 15 18 15C17.5413 15.0044 17.0898 15.1138 16.68 15.32L15.43 14C15.7933 13.3961 15.9852 12.7047 15.9852 12C15.9852 11.2953 15.7933 10.6039 15.43 10L17.71 7.7C18.1123 7.89486 18.553 7.99735 19 8C19.5933 8 20.1734 7.82405 20.6667 7.49441C21.1601 7.16477 21.5446 6.69623 21.7716 6.14805C21.9987 5.59987 22.0581 4.99667 21.9424 4.41473C21.8266 3.83279 21.5409 3.29824 21.1213 2.87868C20.7018 2.45912 20.1672 2.1734 19.5853 2.05765C19.0033 1.94189 18.4001 2.0013 17.8519 2.22836C17.3038 2.45543 16.8352 2.83994 16.5056 3.33329C16.1759 3.82664 16 4.40666 16 5C16.0026 5.44698 16.1051 5.88772 16.3 6.29L14 8.57C13.3961 8.20675 12.7047 8.01482 12 8.01482C11.2953 8.01482 10.6039 8.20675 10 8.57L8.7 7.29C8.89485 6.88772 8.99735 6.44698 9 6C9 5.40666 8.82405 4.82664 8.49441 4.33329C8.16476 3.83994 7.69623 3.45543 7.14805 3.22836C6.59987 3.0013 5.99667 2.94189 5.41473 3.05765C4.83279 3.1734 4.29824 3.45912 3.87868 3.87868C3.45912 4.29824 3.1734 4.83279 3.05764 5.41473C2.94189 5.99667 3.0013 6.59987 3.22836 7.14805C3.45542 7.69623 3.83994 8.16477 4.33329 8.49441C4.82664 8.82405 5.40666 9 6 9C6.44698 8.99735 6.88772 8.89486 7.29 8.7L8.57 10C8.20675 10.6039 8.01482 11.2953 8.01482 12C8.01482 12.7047 8.20675 13.3961 8.57 14L6.29 16.3C5.88772 16.1051 5.44698 16.0027 5 16C4.20435 16 3.44129 16.3161 2.87868 16.8787C2.31607 17.4413 2 18.2044 2 19C2 19.7957 2.31607 20.5587 2.87868 21.1213C3.44129 21.6839 4.20435 22 5 22ZM18 17C18.1978 17 18.3911 17.0586 18.5556 17.1685C18.72 17.2784 18.8482 17.4346 18.9239 17.6173C18.9996 17.8 19.0194 18.0011 18.9808 18.1951C18.9422 18.3891 18.847 18.5673 18.7071 18.7071C18.5673 18.847 18.3891 18.9422 18.1951 18.9808C18.0011 19.0194 17.8 18.9996 17.6173 18.9239C17.4346 18.8482 17.2784 18.72 17.1685 18.5556C17.0586 18.3911 17 18.1978 17 18C17 17.7348 17.1054 17.4804 17.2929 17.2929C17.4804 17.1054 17.7348 17 18 17ZM19 4C19.1978 4 19.3911 4.05865 19.5556 4.16853C19.72 4.27841 19.8482 4.43459 19.9239 4.61732C19.9996 4.80004 20.0194 5.00111 19.9808 5.19509C19.9422 5.38907 19.847 5.56726 19.7071 5.70711C19.5673 5.84696 19.3891 5.9422 19.1951 5.98079C19.0011 6.01937 18.8 5.99957 18.6173 5.92388C18.4346 5.84819 18.2784 5.72002 18.1685 5.55557C18.0586 5.39112 18 5.19778 18 5C18 4.73478 18.1054 4.48043 18.2929 4.29289C18.4804 4.10536 18.7348 4 19 4ZM14 12C14 12.3956 13.8827 12.7822 13.6629 13.1111C13.4432 13.44 13.1308 13.6964 12.7654 13.8478C12.3999 13.9991 11.9978 14.0387 11.6098 13.9616C11.2219 13.8844 10.8655 13.6939 10.5858 13.4142C10.3061 13.1345 10.1156 12.7781 10.0384 12.3902C9.96126 12.0022 10.0009 11.6001 10.1522 11.2346C10.3036 10.8692 10.56 10.5568 10.8889 10.3371C11.2178 10.1173 11.6044 10 12 10C12.5304 10 13.0391 10.2107 13.4142 10.5858C13.7893 10.9609 14 11.4696 14 12ZM5 6C5 5.80222 5.05865 5.60888 5.16853 5.44443C5.27841 5.27998 5.43459 5.15181 5.61732 5.07612C5.80004 5.00043 6.00111 4.98063 6.19509 5.01922C6.38907 5.0578 6.56725 5.15304 6.70711 5.29289C6.84696 5.43275 6.9422 5.61093 6.98079 5.80491C7.01937 5.99889 6.99957 6.19996 6.92388 6.38268C6.84819 6.56541 6.72002 6.72159 6.55557 6.83147C6.39112 6.94135 6.19778 7 6 7C5.73478 7 5.48043 6.89464 5.29289 6.70711C5.10536 6.51957 5 6.26522 5 6ZM5 18C5.19778 18 5.39112 18.0586 5.55557 18.1685C5.72002 18.2784 5.84819 18.4346 5.92388 18.6173C5.99957 18.8 6.01937 19.0011 5.98079 19.1951C5.9422 19.3891 5.84696 19.5673 5.70711 19.7071C5.56725 19.847 5.38907 19.9422 5.19509 19.9808C5.00111 20.0194 4.80004 19.9996 4.61732 19.9239C4.43459 19.8482 4.27841 19.72 4.16853 19.5556C4.05865 19.3911 4 19.1978 4 19C4 18.7348 4.10536 18.4804 4.29289 18.2929C4.48043 18.1054 4.73478 18 5 18Z" fill="#697586"/>
</svg>
