<svg width="24" height="24" viewBox="0 0 24 24" fill="none" xmlns="http://www.w3.org/2000/svg">
<path d="M12 1.5972C12 0.715091 11.2818 -0.0109378 10.4075 0.106127C8.33769 0.383258 6.36617 1.19732 4.69486 2.47976C2.59913 4.08787 1.09259 6.34257 0.40889 8.89417C-0.274809 11.4458 -0.0974551 14.1517 0.913445 16.5922C1.92435 19.0327 3.7123 21.0715 6 22.3923C8.2877 23.7131 10.9473 24.2421 13.5663 23.8973C16.1853 23.5525 18.6174 22.3532 20.4853 20.4853C22.3532 18.6174 23.5525 16.1853 23.8973 13.5663C24.1723 11.4777 23.8915 9.36328 23.0967 7.43225C22.7609 6.61655 21.773 6.35755 21.0091 6.7986C20.2452 7.23966 19.999 8.21414 20.295 9.0451C20.7607 10.3523 20.9134 11.7586 20.7303 13.1494C20.4773 15.0712 19.5972 16.8558 18.2265 18.2265C16.8558 19.5972 15.0712 20.4773 13.1494 20.7303C11.2275 20.9833 9.27592 20.5951 7.5972 19.6259C5.91848 18.6567 4.60648 17.1606 3.86469 15.3698C3.12289 13.5789 2.99274 11.5933 3.49444 9.72094C3.99614 7.84858 5.10164 6.19408 6.63949 5.01405C7.75235 4.16012 9.0466 3.58919 10.4115 3.33885C11.2791 3.17972 12 2.47931 12 1.5972Z" fill="#F3F6F9"/>
<circle cx="11.9999" cy="22.4" r="1.6" fill="#F3F6F9"/>
</svg>
