<svg width="24" height="24" viewBox="0 0 24 24" fill="none" xmlns="http://www.w3.org/2000/svg">
<path d="M15.998 4C15.7993 4.00044 15.6052 4.0601 15.4404 4.17136C15.2757 4.28262 15.1479 4.44044 15.0733 4.62467C14.9987 4.8089 14.9807 5.01119 15.0215 5.20571C15.0624 5.40024 15.1603 5.57817 15.3027 5.7168L17.5859 8H9.01953C5.7036 8 3 10.6912 3 14C3 17.3088 5.7036 20 9.01953 20H15C15.1325 20.0019 15.2641 19.9774 15.387 19.928C15.51 19.8786 15.6219 19.8052 15.7163 19.7122C15.8107 19.6191 15.8856 19.5082 15.9368 19.386C15.9879 19.2637 16.0142 19.1325 16.0142 19C16.0142 18.8675 15.9879 18.7363 15.9368 18.614C15.8856 18.4918 15.8107 18.3809 15.7163 18.2878C15.6219 18.1948 15.51 18.1214 15.387 18.072C15.2641 18.0226 15.1325 17.9981 15 18H9.01953C6.77251 18 5 16.2309 5 14C5 11.7691 6.77251 10 9.01953 10H17.5859L15.3027 12.2832C15.2068 12.3754 15.1302 12.4857 15.0775 12.6078C15.0247 12.73 14.9969 12.8614 14.9955 12.9944C14.9942 13.1274 15.0194 13.2594 15.0697 13.3825C15.12 13.5057 15.1943 13.6175 15.2884 13.7116C15.3825 13.8057 15.4943 13.88 15.6175 13.9303C15.7406 13.9806 15.8726 14.0058 16.0056 14.0045C16.1386 14.0031 16.27 13.9753 16.3922 13.9225C16.5143 13.8698 16.6246 13.7932 16.7168 13.6973L20.707 9.70703C20.8945 9.51949 20.9998 9.26517 20.9998 9C20.9998 8.73483 20.8945 8.48051 20.707 8.29297L16.7168 4.30273C16.6234 4.2067 16.5116 4.13042 16.3882 4.07842C16.2647 4.02641 16.132 3.99975 15.998 4Z" fill="#697586"/>
</svg>
