<svg width="24" height="24" viewBox="0 0 24 24" fill="none" xmlns="http://www.w3.org/2000/svg">
<path fill-rule="evenodd" clip-rule="evenodd" d="M12.0211 5.71823C10.8322 6.41838 9.6243 7.34605 8.48589 8.48434C8.18962 8.78158 7.90731 9.08207 7.64151 9.38476C7.27709 9.79975 6.64526 9.84075 6.23026 9.47634C5.81527 9.11192 5.77427 8.48008 6.13869 8.06509C6.43475 7.72794 6.74628 7.39657 7.06985 7.07196L7.07099 7.07082C7.97454 6.16726 8.92954 5.37275 9.9025 4.7006C9.67859 4.61793 9.45751 4.54453 9.23994 4.48054C7.21276 3.88434 5.74262 4.15861 4.9512 4.95003L4.95105 4.95018C4.15927 5.74163 3.88479 7.21167 4.48108 9.23886C5.06522 11.2248 6.43363 13.5037 8.48712 15.5567L8.4872 15.5568C9.62528 16.6949 10.8329 17.6225 12.0216 18.3227C13.2106 17.6223 14.4185 16.6943 15.557 15.5558C15.8397 15.2731 16.1094 14.9862 16.3653 14.6963C16.7307 14.2822 17.3626 14.2427 17.7767 14.6081C18.1908 14.9735 18.2303 15.6054 17.8649 16.0195C17.5808 16.3416 17.2825 16.6588 16.9712 16.97C16.0676 17.8736 15.1126 18.6682 14.1396 19.3405C14.3643 19.4235 14.586 19.4971 14.8043 19.5613C16.8314 20.1575 18.3016 19.8832 19.093 19.0918L19.0931 19.0917C19.8849 18.3003 20.1592 16.8303 19.5628 14.803C19.3527 14.089 19.0413 13.3371 18.6331 12.5714C18.6028 12.525 18.5765 12.4763 18.5543 12.4258C17.8321 11.1075 16.8251 9.75317 15.557 8.48503C14.4184 7.34647 13.2102 6.41854 12.0211 5.71823ZM14.1396 4.70057C15.1126 5.37274 16.0677 6.16728 16.9712 7.07082C17.8748 7.97438 18.6694 8.9294 19.3417 9.90238C19.6606 9.03935 19.8378 8.22874 19.8759 7.50735C19.9372 6.34455 19.6386 5.49534 19.0932 4.95025L19.0931 4.95018C18.3011 4.15848 16.8305 3.88414 14.8032 4.48019C14.5853 4.54426 14.3638 4.61776 14.1396 4.70057ZM20.5989 12.0201C20.9717 12.7681 21.2678 13.5125 21.4814 14.2386C22.165 16.562 22.0593 18.9544 20.5072 20.506C18.9556 22.0576 16.5633 22.1633 14.2399 21.48C13.514 21.2665 12.7696 20.9705 12.0217 20.5978C11.2738 20.9706 10.5294 21.2667 9.80346 21.4803C7.48017 22.1638 5.08784 22.0582 3.53621 20.5063C2.47439 19.4451 2.08907 17.9731 2.16946 16.4323C2.24211 15.0398 2.69381 13.5249 3.44377 12.0196C3.07148 11.2723 2.77572 10.5286 2.56236 9.80324C1.87892 7.47975 1.98492 5.08737 3.53699 3.53582M3.53714 3.53567C5.08873 1.98423 7.48101 1.87853 9.80425 2.56181C10.5297 2.77518 11.2736 3.07097 12.021 3.44328C12.7689 3.07075 13.5131 2.77483 14.239 2.56141C16.5627 1.87822 18.955 1.98437 20.507 3.5356C21.5696 4.59751 21.9545 6.0708 21.8731 7.61275C21.7997 9.00373 21.3481 10.5166 20.5989 12.0201M4.70098 14.1378C4.38165 15.0023 4.20443 15.8142 4.16674 16.5365C4.10613 17.6982 4.4048 18.5468 4.94998 19.0916L4.95035 19.092C5.74174 19.8837 7.2117 20.158 9.23898 19.5616C9.45725 19.4974 9.67905 19.4237 9.90371 19.3407C8.93102 18.6686 7.97631 17.8743 7.07307 16.9711M10.5859 10.5857C10.961 10.2106 11.4697 9.99992 12.0001 9.99992C12.5305 9.99992 13.0392 10.2106 13.4143 10.5857C13.7894 10.9608 14.0001 11.4695 14.0001 11.9999C14.0001 12.5304 13.7894 13.0391 13.4143 13.4141C13.0392 13.7892 12.5305 13.9999 12.0001 13.9999C11.4697 13.9999 10.961 13.7892 10.5859 13.4141C10.2108 13.0391 10.0001 12.5304 10.0001 11.9999C10.0001 11.4695 10.2108 10.9608 10.5859 10.5857Z" fill="#697586"/>
</svg>
