<svg width="20" height="20" viewBox="0 0 20 20" fill="none" xmlns="http://www.w3.org/2000/svg">
<g clip-path="url(#clip0_2544_3433)">
<path d="M16.6667 20H3.33333C1.5 20 0 18.5 0 16.6667V3.33333C0 1.5 1.5 0 3.33333 0H16.6667C18.5 0 20 1.5 20 3.33333V16.6667C20 18.5 18.5 20 16.6667 20ZM3.33333 1.66667C2.41667 1.66667 1.66667 2.41667 1.66667 3.33333V16.6667C1.66667 17.5833 2.41667 18.3333 3.33333 18.3333H16.6667C17.5833 18.3333 18.3333 17.5833 18.3333 16.6667V3.33333C18.3333 2.41667 17.5833 1.66667 16.6667 1.66667H3.33333Z" fill="#697586"/>
<path d="M6.66671 20C6.16671 20 5.83337 19.6667 5.83337 19.1667V0.833333C5.83337 0.333333 6.16671 0 6.66671 0C7.16671 0 7.50004 0.333333 7.50004 0.833333V19.1667C7.50004 19.6667 7.16671 20 6.66671 20Z" fill="#697586"/>
<path d="M14.1667 10.8333C13.9167 10.8333 13.75 10.75 13.5834 10.5833L11.0834 8.08329C10.75 7.74996 10.75 7.24996 11.0834 6.91663C11.4167 6.58329 11.9167 6.58329 12.25 6.91663L14.75 9.41663C15.0834 9.74996 15.0834 10.25 14.75 10.5833C14.5834 10.75 14.4167 10.8333 14.1667 10.8333Z" fill="#697586"/>
<path d="M11.6667 13.3333C11.4167 13.3333 11.25 13.25 11.0834 13.0833C10.75 12.75 10.75 12.25 11.0834 11.9166L13.5834 9.41663C13.9167 9.08329 14.4167 9.08329 14.75 9.41663C15.0834 9.74996 15.0834 10.25 14.75 10.5833L12.25 13.0833C12.0834 13.25 11.9167 13.3333 11.6667 13.3333Z" fill="#697586"/>
</g>
<defs>
<clipPath id="clip0_2544_3433">
<rect width="20" height="20" fill="white"/>
</clipPath>
</defs>
</svg>
