<svg width="24" height="24" viewBox="0 0 24 24" fill="none" xmlns="http://www.w3.org/2000/svg">
<path d="M20.3979 9.41163C20.4968 9.34481 20.608 9.29814 20.725 9.27429C20.8432 9.2506 20.965 9.25068 21.0832 9.27453C21.2015 9.29838 21.3138 9.34551 21.4136 9.41319C21.5134 9.48087 21.5988 9.56774 21.6647 9.66874C21.7306 9.76974 21.7758 9.88285 21.7976 10.0015C21.9325 10.6595 21.9995 11.3296 21.9975 12.0012C21.9975 13.9788 21.4111 15.912 20.3124 17.5562C19.2138 19.2005 17.6522 20.4821 15.8251 21.2389C13.9981 21.9957 11.9877 22.1937 10.0481 21.8079C8.10854 21.4221 6.32693 20.4698 4.92858 19.0714C3.53022 17.6731 2.57793 15.8915 2.19213 13.9519C1.80632 12.0123 2.00433 10.0019 2.76112 8.17487C3.5179 6.34783 4.79947 4.78624 6.44375 3.68756C8.08804 2.58888 10.0212 2.00246 11.9988 2.00246C12.6753 1.98731 13.3515 2.04214 14.0167 2.16608C14.2578 2.21429 14.4698 2.3563 14.6062 2.56086C14.7426 2.76542 14.7921 3.01578 14.7439 3.25685C14.6957 3.49793 14.5537 3.70998 14.3491 3.84635C14.1445 3.98272 13.8942 4.03225 13.6531 3.98404C11.9295 3.62913 10.1374 3.83948 8.54281 4.58386C6.94823 5.32823 5.63617 6.56695 4.80141 8.11613C3.96666 9.66531 3.65369 11.4424 3.90898 13.1835C4.16427 14.9247 4.9742 16.5371 6.21854 17.7815C7.46289 19.0258 9.07531 19.8357 10.8165 20.091C12.5576 20.3463 14.3347 20.0333 15.8839 19.1986C17.4331 18.3638 18.6718 17.0518 19.4161 15.4572C20.1605 13.8626 20.3709 12.0705 20.016 10.3469C19.9921 10.2299 19.9914 10.1094 20.0142 9.99214C20.0368 9.87492 20.0824 9.76332 20.1483 9.66371C20.2141 9.5641 20.2989 9.47845 20.3979 9.41163Z" fill="#697586"/>
<path d="M18.6279 7.1901C18.4574 7.01963 18.3616 6.78843 18.3616 6.54736V5.63838H17.4526C17.2116 5.63838 16.9804 5.54261 16.8099 5.37214C16.6394 5.20168 16.5437 4.97047 16.5437 4.7294C16.5437 4.48832 16.6394 4.25712 16.8099 4.08665C16.9804 3.91619 17.2116 3.82042 17.4526 3.82042H18.3616V2.91144C18.3616 2.67036 18.4574 2.43916 18.6279 2.2687C18.7983 2.09823 19.0295 2.00246 19.2706 2.00246C19.5117 2.00246 19.7429 2.09823 19.9133 2.2687C20.0838 2.43916 20.1796 2.67036 20.1796 2.91144V3.82042H21.0886C21.3296 3.82042 21.5608 3.91619 21.7313 4.08665C21.9018 4.25712 21.9975 4.48832 21.9975 4.7294C21.9975 4.97047 21.9018 5.20168 21.7313 5.37214C21.5608 5.54261 21.3296 5.63838 21.0886 5.63838H20.1796V6.54736C20.1796 6.78843 20.0838 7.01963 19.9133 7.1901C19.7429 7.36057 19.5117 7.45633 19.2706 7.45633C19.0295 7.45633 18.7983 7.36057 18.6279 7.1901Z" fill="#697586"/>
<path d="M12.9511 11.474L14.86 12.5738H14.8418C15.0169 12.673 15.1541 12.8276 15.232 13.0132C15.3098 13.1988 15.3238 13.405 15.2718 13.5995C15.2198 13.7939 15.1048 13.9656 14.9447 14.0876C14.7846 14.2096 14.5886 14.275 14.3873 14.2736C14.2281 14.2747 14.0714 14.234 13.9328 14.1554L11.5695 12.792L11.4877 12.7102L11.3422 12.592C11.3067 12.547 11.2762 12.4982 11.2514 12.4466C11.2217 12.3978 11.1974 12.346 11.1786 12.292C11.1539 12.2342 11.1386 12.1729 11.1332 12.1102V7.45627C11.1332 7.2152 11.229 6.98399 11.3994 6.81353C11.5699 6.64306 11.8011 6.54729 12.0422 6.54729C12.2832 6.54729 12.5144 6.64306 12.6849 6.81353C12.8554 6.98399 12.9511 7.2152 12.9511 7.45627V11.474Z" fill="#697586"/>
</svg>
