<svg width="24" height="24" viewBox="0 0 24 24" fill="none" xmlns="http://www.w3.org/2000/svg">
<path fill-rule="evenodd" clip-rule="evenodd" d="M17.253 16.659C17.0784 16.8587 16.8315 16.9809 16.5668 16.9986C16.3021 17.0163 16.0412 16.9281 15.8415 16.7535C15.6418 16.5789 15.5196 16.332 15.5019 16.0673C15.4842 15.8026 15.5724 15.5417 15.747 15.342L17.797 13H8C7.73478 13 7.48043 12.8946 7.29289 12.7071C7.10536 12.5196 7 12.2652 7 12C7 11.7348 7.10536 11.4804 7.29289 11.2929C7.48043 11.1054 7.73478 11 8 11H17.796L15.747 8.659C15.6605 8.56011 15.5942 8.44515 15.5521 8.32068C15.51 8.1962 15.4928 8.06465 15.5016 7.93353C15.5192 7.66873 15.6413 7.42178 15.841 7.247C16.0407 7.07222 16.3017 6.98394 16.5665 7.00157C16.8313 7.01919 17.0782 7.14129 17.253 7.341L20.753 11.341C20.9128 11.5234 21.0009 11.7576 21.0009 12C21.0009 12.2424 20.9128 12.4766 20.753 12.659L17.253 16.659ZM8 4C8.26522 4 8.51957 3.89464 8.70711 3.70711C8.89464 3.51957 9 3.26522 9 3C9 2.73478 8.89464 2.48043 8.70711 2.29289C8.51957 2.10536 8.26522 2 8 2H5C4.46957 2 3.96086 2.21071 3.58579 2.58579C3.21071 2.96086 3 3.46957 3 4V20C3 20.5304 3.21071 21.0391 3.58579 21.4142C3.96086 21.7893 4.46957 22 5 22H8C8.26522 22 8.51957 21.8946 8.70711 21.7071C8.89464 21.5196 9 21.2652 9 21C9 20.7348 8.89464 20.4804 8.70711 20.2929C8.51957 20.1054 8.26522 20 8 20H5V4H8Z" fill="#697586"/>
</svg>
