<svg width="24" height="24" viewBox="0 0 24 24" fill="none" xmlns="http://www.w3.org/2000/svg">
<path fill-rule="evenodd" clip-rule="evenodd" d="M12.0001 11.8401C11.3815 11.5102 10.6649 11.4138 9.9812 11.5687C9.29748 11.7235 8.69232 12.1191 8.27618 12.6832C7.86005 13.2474 7.66077 13.9424 7.71472 14.6414C7.76868 15.3402 8.07226 15.9965 8.57007 16.4901L11.29 19.2101C11.3267 19.2471 11.3661 19.281 11.4078 19.3116C11.472 19.3588 11.5417 19.3982 11.6155 19.4289C11.7374 19.4797 11.868 19.5059 12.0001 19.5059C12.1321 19.5059 12.2628 19.4797 12.3846 19.4289C12.5065 19.3782 12.6171 19.3038 12.7101 19.2101L15.4301 16.4901C15.9279 15.9965 16.2314 15.3402 16.2854 14.6414C16.3394 13.9424 16.1401 13.2474 15.7239 12.6832C15.3078 12.1191 14.7026 11.7235 14.0189 11.5687C13.3352 11.4138 12.6186 11.5102 12.0001 11.8401ZM14.0001 15.0701L12.0001 17.0701L10.0001 15.0701C9.82794 14.8976 9.7312 14.6638 9.7312 14.42C9.7312 14.1763 9.82794 13.9425 10.0001 13.77C10.1726 13.5978 10.4064 13.5011 10.6501 13.5011C10.8939 13.5011 11.1276 13.5978 11.3001 13.77C11.3931 13.8638 11.5037 13.9381 11.6255 13.9889C11.6751 14.0095 11.7261 14.0261 11.778 14.0386C11.8539 14.0566 11.9318 14.0658 12.0101 14.0658C12.1422 14.0658 12.2728 14.0397 12.3947 13.9889C12.4711 13.957 12.543 13.9159 12.609 13.8666C12.6483 13.8373 12.6854 13.805 12.7202 13.77C12.8948 13.609 13.1249 13.5218 13.3624 13.5266C13.5999 13.5315 13.8262 13.6279 13.9942 13.7959C14.1622 13.9639 14.2587 14.1903 14.2635 14.4277C14.2683 14.6653 14.1811 14.8954 14.0201 15.0701H14.0001Z" fill="#697586"/>
<path fill-rule="evenodd" clip-rule="evenodd" d="M21.1213 4.87868C20.5587 4.31607 19.7956 4 19 4H17V3C17 2.73478 16.8946 2.48043 16.7071 2.29289C16.5196 2.10536 16.2652 2 16 2C15.7348 2 15.4804 2.10536 15.2929 2.29289C15.1054 2.48043 15 2.73478 15 3V4H9V3C9 2.73478 8.89464 2.48043 8.70711 2.29289C8.51957 2.10536 8.26522 2 8 2C7.73478 2 7.48043 2.10536 7.29289 2.29289C7.10536 2.48043 7 2.73478 7 3V4H5C4.20435 4 3.44129 4.31607 2.87868 4.87868C2.31607 5.44129 2 6.20435 2 7V19C2 19.7956 2.31607 20.5587 2.87868 21.1213C3.44129 21.6839 4.20435 22 5 22H19C19.7956 22 20.5587 21.6839 21.1213 21.1213C21.6839 20.5587 22 19.7956 22 19V7C22 6.20435 21.6839 5.44129 21.1213 4.87868ZM20 19C20 19.2652 19.8946 19.5196 19.7071 19.7071C19.5196 19.8946 19.2652 20 19 20H5C4.73478 20 4.48043 19.8946 4.29289 19.7071C4.10536 19.5196 4 19.2652 4 19V11H20V19ZM19.7071 6.29289C19.8946 6.48043 20 6.73478 20 7V9H4V7C4 6.73478 4.10536 6.48043 4.29289 6.29289C4.48043 6.10536 4.73478 6 5 6H7V7C7 7.26522 7.10536 7.51957 7.29289 7.70711C7.48043 7.89464 7.73478 8 8 8C8.26522 8 8.51957 7.89464 8.70711 7.70711C8.89464 7.51957 9 7.26522 9 7V6H15V7C15 7.26522 15.1054 7.51957 15.2929 7.70711C15.4804 7.89464 15.7348 8 16 8C16.2652 8 16.5196 7.89464 16.7071 7.70711C16.8946 7.51957 17 7.26522 17 7V6H19C19.2652 6 19.5196 6.10536 19.7071 6.29289Z" fill="#697586"/>
</svg>
