<svg width="24" height="24" viewBox="0 0 24 24" fill="none" xmlns="http://www.w3.org/2000/svg">
<path d="M7.75778 10.7578C8.35113 10.7578 8.93115 10.5819 9.4245 10.2522C9.91784 9.92258 10.3024 9.45404 10.5294 8.90586C10.7565 8.35768 10.8159 7.75448 10.7001 7.17254C10.5844 6.5906 10.2987 6.05605 9.87911 5.63649C9.45955 5.21693 8.925 4.93121 8.34306 4.81545C7.76111 4.6997 7.15791 4.75911 6.60973 4.98617C6.06156 5.21323 5.59302 5.59775 5.26338 6.0911C4.93373 6.58445 4.75778 7.16447 4.75778 7.75781C4.75865 8.55319 5.075 9.31575 5.63742 9.87817C6.19984 10.4406 6.9624 10.7569 7.75778 10.7578ZM7.75778 6.75781C7.95557 6.75781 8.14891 6.81646 8.31335 6.92634C8.4778 7.03622 8.60598 7.1924 8.68166 7.37513C8.75735 7.55785 8.77715 7.75892 8.73857 7.9529C8.69998 8.14688 8.60474 8.32507 8.46489 8.46492C8.32504 8.60477 8.14686 8.70001 7.95287 8.7386C7.75889 8.77718 7.55783 8.75738 7.3751 8.68169C7.19237 8.606 7.0362 8.47783 6.92632 8.31338C6.81643 8.14893 6.75778 7.95559 6.75778 7.75781C6.75796 7.49265 6.86338 7.2384 7.05087 7.0509C7.23837 6.8634 7.49262 6.75799 7.75778 6.75781ZM16.2422 13.2422C15.6488 13.2422 15.0688 13.4181 14.5755 13.7478C14.0821 14.0774 13.6976 14.546 13.4705 15.0941C13.2435 15.6423 13.1841 16.2455 13.2998 16.8275C13.4156 17.4094 13.7013 17.944 14.1208 18.3635C14.5404 18.7831 15.075 19.0688 15.6569 19.1845C16.2388 19.3003 16.842 19.2409 17.3902 19.0138C17.9384 18.7868 18.4069 18.4022 18.7366 17.9089C19.0662 17.4156 19.2422 16.8355 19.2422 16.2422C19.2413 15.4468 18.9249 14.6843 18.3625 14.1218C17.8001 13.5594 17.0375 13.2431 16.2422 13.2422ZM16.2422 17.2422C16.0444 17.2422 15.851 17.1835 15.6866 17.0737C15.5221 16.9638 15.394 16.8076 15.3183 16.6249C15.2426 16.4421 15.2228 16.2411 15.2614 16.0471C15.3 15.8531 15.3952 15.6749 15.5351 15.5351C15.6749 15.3952 15.8531 15.3 16.0471 15.2614C16.2411 15.2228 16.4421 15.2426 16.6248 15.3183C16.8076 15.394 16.9638 15.5222 17.0736 15.6866C17.1835 15.8511 17.2422 16.0444 17.2422 16.2422C17.242 16.5074 17.1366 16.7616 16.9491 16.9491C16.7616 17.1366 16.5073 17.242 16.2422 17.2422ZM19.707 4.293C19.6141 4.20012 19.5039 4.12644 19.3826 4.07617C19.2613 4.0259 19.1313 4.00003 18.9999 4.00003C18.8686 4.00003 18.7386 4.0259 18.6173 4.07617C18.496 4.12644 18.3857 4.20012 18.2929 4.293L4.29291 18.293C4.19911 18.3856 4.12455 18.4959 4.07353 18.6175C4.0225 18.739 3.99602 18.8695 3.99561 19.0013C3.9952 19.1332 4.02086 19.2638 4.07112 19.3857C4.12139 19.5075 4.19526 19.6183 4.28848 19.7115C4.38171 19.8047 4.49245 19.8786 4.61433 19.9288C4.73621 19.9791 4.86683 20.0048 4.99866 20.0043C5.1305 20.0039 5.26095 19.9774 5.38251 19.9264C5.50407 19.8754 5.61434 19.8008 5.70697 19.707L19.707 5.707C19.7998 5.61417 19.8735 5.50395 19.9238 5.38264C19.974 5.26133 19.9999 5.13131 19.9999 5C19.9999 4.86869 19.974 4.73867 19.9238 4.61736C19.8735 4.49605 19.7998 4.38583 19.707 4.293Z" fill="#697586"/>
</svg>
