<svg width="24" height="24" viewBox="0 0 24 24" fill="none" xmlns="http://www.w3.org/2000/svg">
<path d="M4 4.00002H8.56C8.76964 3.99948 8.97416 4.06484 9.14463 4.18686C9.3151 4.30889 9.44291 4.4814 9.51 4.68002L10.05 6.32002C10.1171 6.51864 10.2449 6.69116 10.4154 6.81318C10.5858 6.9352 10.7904 7.00056 11 7.00002H18C18.2652 7.00002 18.5196 7.10538 18.7071 7.29292C18.8946 7.48045 19 7.73481 19 8.00002C19 8.26524 19.1054 8.51959 19.2929 8.70713C19.4804 8.89467 19.7348 9.00002 20 9.00002C20.2652 9.00002 20.5196 8.89467 20.7071 8.70713C20.8946 8.51959 21 8.26524 21 8.00002C21 7.20437 20.6839 6.44131 20.1213 5.8787C19.5587 5.31609 18.7956 5.00002 18 5.00002H11.72L11.4 4.00002C11.1926 3.41325 10.8077 2.90553 10.2989 2.54718C9.79005 2.18884 9.18236 1.99762 8.56 2.00002H4C3.20435 2.00002 2.44129 2.31609 1.87868 2.8787C1.31607 3.44131 1 4.20437 1 5.00002V18C1 18.7957 1.31607 19.5587 1.87868 20.1213C2.44129 20.684 3.20435 21 4 21H10C10.2652 21 10.5196 20.8947 10.7071 20.7071C10.8946 20.5196 11 20.2652 11 20C11 19.7348 10.8946 19.4805 10.7071 19.2929C10.5196 19.1054 10.2652 19 10 19H4C3.73478 19 3.48043 18.8947 3.29289 18.7071C3.10536 18.5196 3 18.2652 3 18V5.00002C3 4.73481 3.10536 4.48045 3.29289 4.29292C3.48043 4.10538 3.73478 4.00002 4 4.00002Z" fill="#697586"/>
<path d="M20.92 15.6199C20.8694 15.4988 20.7983 15.3871 20.71 15.2899L17.71 12.2899C17.5217 12.1016 17.2663 11.9958 17 11.9958C16.7337 11.9958 16.4783 12.1016 16.29 12.2899C16.1017 12.4782 15.9959 12.7336 15.9959 12.9999C15.9959 13.2662 16.1017 13.5216 16.29 13.7099L17.59 14.9999H12C11.7348 14.9999 11.4804 15.1053 11.2929 15.2928C11.1054 15.4804 11 15.7347 11 15.9999C11 16.2652 11.1054 16.5195 11.2929 16.707C11.4804 16.8946 11.7348 16.9999 12 16.9999H17.59L16.29 18.2899C16.1963 18.3829 16.1219 18.4935 16.0711 18.6154C16.0203 18.7372 15.9942 18.8679 15.9942 18.9999C15.9942 19.132 16.0203 19.2627 16.0711 19.3845C16.1219 19.5064 16.1963 19.617 16.29 19.7099C16.383 19.8037 16.4936 19.8781 16.6154 19.9288C16.7373 19.9796 16.868 20.0057 17 20.0057C17.132 20.0057 17.2627 19.9796 17.3846 19.9288C17.5064 19.8781 17.617 19.8037 17.71 19.7099L20.71 16.7099C20.8026 16.6161 20.8742 16.5036 20.92 16.3799C21.02 16.1365 21.02 15.8634 20.92 15.6199Z" fill="#697586"/>
</svg>
