<svg width="24" height="24" viewBox="0 0 24 24" fill="none" xmlns="http://www.w3.org/2000/svg">
<path fill-rule="evenodd" clip-rule="evenodd" d="M6.4443 3.6853C8.08879 2.58649 10.0222 2 12 2C13.3132 2 14.6136 2.25866 15.8268 2.7612C17.0401 3.26375 18.1425 4.00035 19.0711 4.92893C19.9997 5.85752 20.7363 6.95991 21.2388 8.17317C21.7413 9.38642 22 10.6868 22 12C22 13.9778 21.4135 15.9112 20.3147 17.5557C19.2159 19.2002 17.6541 20.4819 15.8268 21.2388C13.9996 21.9957 11.9889 22.1937 10.0491 21.8079C8.10929 21.422 6.32746 20.4696 4.92894 19.0711C3.53041 17.6725 2.578 15.8907 2.19215 13.9509C1.8063 12.0111 2.00433 10.0004 2.76121 8.17317C3.51809 6.3459 4.79981 4.78412 6.4443 3.6853ZM12.38 7.07999C12.1366 6.97997 11.8635 6.97997 11.62 7.07999C11.4973 7.12758 11.3851 7.19895 11.29 7.28999C11.2017 7.38719 11.1307 7.4988 11.08 7.61999C11.0241 7.73867 10.9967 7.86881 11 7.99999C10.9993 8.13159 11.0245 8.26206 11.0743 8.38389C11.124 8.50573 11.1974 8.61655 11.29 8.70999C11.3872 8.79832 11.4988 8.86935 11.62 8.91999C11.7715 8.98223 11.936 9.0063 12.099 8.9901C12.262 8.9739 12.4185 8.91791 12.5547 8.82706C12.691 8.73621 12.8029 8.61327 12.8805 8.46906C12.9582 8.32485 12.9992 8.16377 13 7.99999C12.9964 7.73522 12.8928 7.48162 12.71 7.28999C12.6149 7.19895 12.5028 7.12758 12.38 7.07999ZM12 11C11.7348 11 11.4805 11.1053 11.2929 11.2929C11.1054 11.4804 11 11.7348 11 12V16C11 16.2652 11.1054 16.5196 11.2929 16.7071C11.4805 16.8946 11.7348 17 12 17C12.2653 17 12.5196 16.8946 12.7071 16.7071C12.8947 16.5196 13 16.2652 13 16V12C13 11.7348 12.8947 11.4804 12.7071 11.2929C12.5196 11.1053 12.2653 11 12 11Z" fill="#697586"/>
</svg>
