<svg width="24" height="24" viewBox="0 0 24 24" fill="none" xmlns="http://www.w3.org/2000/svg">
<path d="M12.11 15.39L8.22996 19.27C7.7602 19.7234 7.13282 19.9767 6.47996 19.9767C5.8271 19.9767 5.19972 19.7234 4.72996 19.27C4.49956 19.0405 4.31675 18.7678 4.19201 18.4675C4.06727 18.1672 4.00306 17.8452 4.00306 17.52C4.00306 17.1948 4.06727 16.8728 4.19201 16.5725C4.31675 16.2722 4.49956 15.9995 4.72996 15.77L8.60996 11.89C8.79826 11.7017 8.90405 11.4463 8.90405 11.18C8.90405 10.9137 8.79826 10.6583 8.60996 10.47C8.42165 10.2817 8.16626 10.1759 7.89996 10.1759C7.63366 10.1759 7.37826 10.2817 7.18996 10.47L3.30996 14.36C2.52831 15.2108 2.10558 16.3307 2.13003 17.4858C2.15449 18.6408 2.62424 19.7418 3.44119 20.5588C4.25814 21.3757 5.35912 21.8455 6.51421 21.8699C7.66929 21.8944 8.78916 21.4716 9.63996 20.69L13.53 16.81C13.7183 16.6217 13.8241 16.3663 13.8241 16.1C13.8241 15.8337 13.7183 15.5783 13.53 15.39C13.3417 15.2017 13.0863 15.0959 12.82 15.0959C12.5537 15.0959 12.2983 15.2017 12.11 15.39ZM20.69 3.31C19.8487 2.47401 18.7109 2.00479 17.525 2.00479C16.339 2.00479 15.2012 2.47401 14.36 3.31L10.47 7.19C10.3767 7.28324 10.3028 7.39393 10.2523 7.51575C10.2018 7.63758 10.1759 7.76814 10.1759 7.9C10.1759 8.03186 10.2018 8.16243 10.2523 8.28425C10.3028 8.40607 10.3767 8.51676 10.47 8.61C10.5632 8.70324 10.6739 8.7772 10.7957 8.82766C10.9175 8.87812 11.0481 8.90409 11.18 8.90409C11.3118 8.90409 11.4424 8.87812 11.5642 8.82766C11.686 8.7772 11.7967 8.70324 11.89 8.61L15.77 4.73C16.2397 4.27663 16.8671 4.02326 17.52 4.02326C18.1728 4.02326 18.8002 4.27663 19.27 4.73C19.5004 4.95949 19.6832 5.23221 19.8079 5.53252C19.9326 5.83283 19.9969 6.15482 19.9969 6.48C19.9969 6.80519 19.9326 7.12717 19.8079 7.42748C19.6832 7.72779 19.5004 8.00052 19.27 8.23L15.39 12.11C15.2962 12.203 15.2218 12.3136 15.1711 12.4354C15.1203 12.5573 15.0942 12.688 15.0942 12.82C15.0942 12.952 15.1203 13.0827 15.1711 13.2046C15.2218 13.3264 15.2962 13.437 15.39 13.53C15.4829 13.6237 15.5935 13.6981 15.7154 13.7489C15.8372 13.7997 15.9679 13.8258 16.1 13.8258C16.232 13.8258 16.3627 13.7997 16.4845 13.7489C16.6064 13.6981 16.717 13.6237 16.81 13.53L20.69 9.64C21.526 8.79878 21.9952 7.66098 21.9952 6.475C21.9952 5.28903 21.526 4.15122 20.69 3.31ZM8.82996 15.17C8.9234 15.2627 9.03421 15.336 9.15605 15.3858C9.27789 15.4355 9.40835 15.4608 9.53996 15.46C9.67157 15.4608 9.80203 15.4355 9.92386 15.3858C10.0457 15.336 10.1565 15.2627 10.25 15.17L15.17 10.25C15.3583 10.0617 15.4641 9.8063 15.4641 9.54C15.4641 9.2737 15.3583 9.01831 15.17 8.83C14.9817 8.6417 14.7263 8.53591 14.46 8.53591C14.1937 8.53591 13.9383 8.6417 13.75 8.83L8.82996 13.75C8.73623 13.843 8.66184 13.9536 8.61107 14.0754C8.5603 14.1973 8.53416 14.328 8.53416 14.46C8.53416 14.592 8.5603 14.7227 8.61107 14.8446C8.66184 14.9664 8.73623 15.077 8.82996 15.17Z" fill="#697586"/>
</svg>
