<svg width="24" height="24" viewBox="0 0 24 24" fill="none" xmlns="http://www.w3.org/2000/svg">
<path d="M20.172 4.87907C19.112 3.81628 17.7068 3.16761 16.2103 3.05024C14.7139 2.93287 13.2248 3.35454 12.012 4.23907C10.7397 3.29271 9.15599 2.86358 7.57991 3.03811C6.00384 3.21264 4.55243 3.97785 3.51797 5.17966C2.4835 6.38146 1.94282 7.93059 2.0048 9.51509C2.06677 11.0996 2.72681 12.6017 3.85199 13.7191L10.062 19.9391C10.582 20.4509 11.2824 20.7377 12.012 20.7377C12.7416 20.7377 13.442 20.4509 13.962 19.9391L20.172 13.7191C21.3396 12.5443 21.9949 10.9553 21.9949 9.29907C21.9949 7.6428 21.3396 6.0538 20.172 4.87907ZM18.762 12.3391L12.552 18.5491C12.4813 18.6204 12.3972 18.6771 12.3045 18.7157C12.2118 18.7544 12.1124 18.7743 12.012 18.7743C11.9116 18.7743 11.8121 18.7544 11.7195 18.7157C11.6268 18.6771 11.5427 18.6204 11.472 18.5491L5.26199 12.3091C4.47775 11.5074 4.0386 10.4305 4.0386 9.30907C4.0386 8.18761 4.47775 7.11073 5.26199 6.30907C6.06115 5.52006 7.13897 5.07764 8.26199 5.07764C9.38502 5.07764 10.4628 5.52006 11.262 6.30907C11.355 6.4028 11.4656 6.47719 11.5874 6.52796C11.7093 6.57873 11.84 6.60487 11.972 6.60487C12.104 6.60487 12.2347 6.57873 12.3566 6.52796C12.4784 6.47719 12.589 6.4028 12.682 6.30907C13.4811 5.52006 14.559 5.07764 15.682 5.07764C16.805 5.07764 17.8828 5.52006 18.682 6.30907C19.477 7.10022 19.9306 8.17126 19.9455 9.29276C19.9605 10.4143 19.5356 11.497 18.762 12.3091V12.3391Z" fill="#697586"/>
<path d="M14.7278 9.59316L13.4278 10.8832L14.7278 12.1732C14.8215 12.2661 14.8959 12.3767 14.9467 12.4986C14.9975 12.6204 15.0236 12.7512 15.0236 12.8832C15.0236 13.0152 14.9975 13.1459 14.9467 13.2677C14.8959 13.3896 14.8215 13.5002 14.7278 13.5932C14.6348 13.6869 14.5242 13.7613 14.4024 13.8121C14.2805 13.8628 14.1498 13.889 14.0178 13.889C13.8858 13.889 13.7551 13.8628 13.6332 13.8121C13.5114 13.7613 13.4008 13.6869 13.3078 13.5932L12.0178 12.2932L10.7278 13.5932C10.6348 13.6869 10.5242 13.7613 10.4024 13.8121C10.2805 13.8628 10.1498 13.889 10.0178 13.889C9.88578 13.889 9.75507 13.8628 9.63322 13.8121C9.51136 13.7613 9.40075 13.6869 9.30779 13.5932C9.21406 13.5002 9.13967 13.3896 9.0889 13.2677C9.03813 13.1459 9.01199 13.0152 9.01199 12.8832C9.01199 12.7512 9.03813 12.6204 9.0889 12.4986C9.13967 12.3767 9.21406 12.2661 9.30779 12.1732L10.6078 10.8832L9.30779 9.59316C9.11949 9.40486 9.0137 9.14946 9.0137 8.88316C9.0137 8.61686 9.11949 8.36147 9.30779 8.17316C9.4961 7.98486 9.75149 7.87907 10.0178 7.87907C10.2841 7.87907 10.5395 7.98486 10.7278 8.17316L12.0178 9.47316L13.3078 8.17316C13.4961 7.98486 13.7515 7.87907 14.0178 7.87907C14.2841 7.87907 14.5395 7.98486 14.7278 8.17316C14.9161 8.36147 15.0219 8.61686 15.0219 8.88316C15.0219 9.14946 14.9161 9.40486 14.7278 9.59316Z" fill="#697586"/>
</svg>
