<svg width="24" height="24" viewBox="0 0 24 24" fill="none" xmlns="http://www.w3.org/2000/svg">
<g clip-path="url(#clip0_16084_44814)">
<path d="M4.1983 17.4014C4.39929 17.2859 4.6479 17.2853 4.84966 17.3994L8.44732 19.6309C8.76448 19.8106 9.1601 19.7676 9.43267 19.5244L11.5635 17.6211C11.8117 17.3999 12.1884 17.3999 12.4366 17.6211L14.5674 19.5244C14.84 19.7676 15.2356 19.8106 15.5528 19.6309L18.9864 17.4365C19.1881 17.3223 19.4368 17.323 19.6377 17.4385C19.8389 17.5545 19.9629 17.769 19.9629 18V19.4199C19.9628 19.6502 19.8399 19.8642 19.6397 19.9805L12.3292 23.9121C12.126 24.0295 11.8741 24.0296 11.671 23.9121L4.19732 19.9434C3.99712 19.8271 3.87423 19.6131 3.87408 19.3828V17.9629C3.87411 17.7319 3.99725 17.5175 4.1983 17.4014Z" fill="#697586"/>
<path fill-rule="evenodd" clip-rule="evenodd" d="M11.6221 5.64746C11.9044 5.53578 12.2272 5.55511 12.4961 5.7041L19.4971 9.58301C19.5744 9.62593 19.6447 9.67796 19.7061 9.7373L22.7081 12.6475C22.9258 12.8589 23.0302 13.1567 22.9922 13.4531C22.9537 13.7498 22.7759 14.0142 22.5108 14.167L15.7803 18.0459C15.3875 18.2717 14.8847 18.2114 14.5616 17.8984L12.7696 16.1592C12.3421 15.7446 11.658 15.7446 11.2305 16.1592L9.43951 17.8984C9.11623 18.2116 8.6127 18.2721 8.21978 18.0459L1.49029 14.167C1.22514 14.0142 1.0464 13.7499 1.00787 13.4531C0.969886 13.1566 1.07522 12.8589 1.29302 12.6475L4.29498 9.7373C4.3564 9.67801 4.42674 9.62589 4.50396 9.58301L11.504 5.7041L11.6221 5.64746ZM7.0147 10.4248L12.0001 13.1855L16.9844 10.4248L12.0001 7.66211L7.0147 10.4248Z" fill="#697586"/>
<path d="M4.294 3.9209C4.68451 3.5424 5.31662 3.54234 5.70709 3.9209L7.12212 5.29199C7.51205 5.67058 7.51205 6.2845 7.12212 6.66309C6.73162 7.04162 6.09757 7.04165 5.70709 6.66309L4.294 5.29199C3.90348 4.9133 3.9035 4.2996 4.294 3.9209Z" fill="#697586"/>
<path d="M18.1221 3.9209C18.5126 3.5425 19.1448 3.54241 19.5352 3.9209C19.9257 4.29956 19.9256 4.9133 19.5352 5.29199L18.1221 6.66309C17.7316 7.04166 17.0976 7.04161 16.7071 6.66309C16.317 6.28445 16.317 5.67059 16.7071 5.29199L18.1221 3.9209Z" fill="#697586"/>
<path d="M12.0001 0C12.5522 5.34428e-05 12.9999 0.434311 13.0001 0.969727V2.90918C12.9999 3.44455 12.5522 3.87885 12.0001 3.87891C11.4481 3.8787 11.0002 3.44446 11.0001 2.90918V0.969727C11.0002 0.434407 11.448 0.000208845 12.0001 0Z" fill="#697586"/>
</g>
<defs>
<clipPath id="clip0_16084_44814">
<rect width="24" height="24" fill="white"/>
</clipPath>
</defs>
</svg>
