<svg width="24" height="24" viewBox="0 0 24 24" fill="none" xmlns="http://www.w3.org/2000/svg">
<path fill-rule="evenodd" clip-rule="evenodd" d="M12.9333 1.64102C12.7848 1.25483 12.4138 1 12 1C11.5862 1 11.2152 1.25483 11.0667 1.64102L9.38291 6.01876C8.96165 7.11405 8.80682 7.49624 8.58372 7.80999C8.37087 8.10933 8.10933 8.37087 7.80999 8.58372C7.49624 8.80682 7.11405 8.96165 6.01876 9.38291L1.64102 11.0667C1.25483 11.2152 1 11.5862 1 12C1 12.4138 1.25483 12.7848 1.64102 12.9333L6.01876 14.6171C7.11405 15.0384 7.49624 15.1932 7.80999 15.4163C8.10933 15.6291 8.37087 15.8907 8.58372 16.19C8.80682 16.5038 8.96165 16.886 9.38291 17.9812L11.0667 22.359C11.2152 22.7452 11.5862 23 12 23C12.4138 23 12.7848 22.7452 12.9333 22.359L14.6171 17.9812C15.0384 16.886 15.1932 16.5038 15.4163 16.19C15.6291 15.8907 15.8907 15.6291 16.19 15.4163C16.5038 15.1932 16.886 15.0384 17.9812 14.6171L22.359 12.9333C22.7452 12.7848 23 12.4138 23 12C23 11.5862 22.7452 11.2152 22.359 11.0667L17.9812 9.38291C16.886 8.96165 16.5038 8.80682 16.19 8.58372C15.8907 8.37087 15.6291 8.10933 15.4163 7.80999C15.1932 7.49624 15.0384 7.11405 14.6171 6.01876L12.9333 1.64102ZM12 4.78568L12.7953 6.85364C13.1547 7.78879 13.3989 8.42407 13.7863 8.96898C14.1287 9.45053 14.5495 9.87126 15.031 10.2137C15.5759 10.6011 16.2112 10.8453 17.1464 11.2047L19.2143 12L17.1464 12.7953C16.2112 13.1547 15.5759 13.3989 15.031 13.7863C14.5495 14.1287 14.1287 14.5495 13.7863 15.031C13.3989 15.5759 13.1547 16.2112 12.7953 17.1464L12 19.2143L11.2047 17.1464C10.8453 16.2112 10.6011 15.5759 10.2137 15.031C9.87126 14.5495 9.45053 14.1287 8.96898 13.7863C8.42407 13.3989 7.78878 13.1547 6.85362 12.7953L4.78568 12L6.85364 11.2047C7.78878 10.8453 8.42407 10.6011 8.96898 10.2137C9.45053 9.87126 9.87126 9.45053 10.2137 8.96898C10.6011 8.42406 10.8453 7.78878 11.2047 6.85362L12 4.78568Z" fill="#697586"/>
</svg>
