<svg width="24" height="24" viewBox="0 0 24 24" fill="none" xmlns="http://www.w3.org/2000/svg">
<path fill-rule="evenodd" clip-rule="evenodd" d="M6.4443 3.6853C8.08879 2.58649 10.0222 2 12 2C13.3132 2 14.6136 2.25866 15.8268 2.7612C17.0401 3.26375 18.1425 4.00035 19.0711 4.92893C19.9997 5.85752 20.7363 6.95991 21.2388 8.17317C21.7413 9.38642 22 10.6868 22 12C22 13.9778 21.4135 15.9112 20.3147 17.5557C19.2159 19.2002 17.6541 20.4819 15.8268 21.2388C13.9996 21.9957 11.9889 22.1937 10.0491 21.8079C8.10929 21.422 6.32746 20.4696 4.92894 19.0711C3.53041 17.6725 2.578 15.8907 2.19215 13.9509C1.8063 12.0111 2.00433 10.0004 2.76121 8.17317C3.51809 6.3459 4.79981 4.78412 6.4443 3.6853ZM12 7C11.473 6.99966 10.9553 7.13812 10.4989 7.40144C10.0425 7.66476 9.66345 8.04366 9.39998 8.5C9.32763 8.61382 9.27904 8.7411 9.25715 8.87418C9.23527 9.00726 9.24052 9.14339 9.27261 9.27439C9.3047 9.40538 9.36295 9.52854 9.44387 9.63644C9.52478 9.74433 9.62669 9.83475 9.74345 9.90225C9.86022 9.96974 9.98943 10.0129 10.1233 10.0292C10.2572 10.0454 10.393 10.0345 10.5225 9.99688C10.652 9.9593 10.7726 9.89591 10.877 9.81052C10.9814 9.72513 11.0675 9.61951 11.13 9.5C11.2181 9.3474 11.3449 9.22078 11.4977 9.13298C11.6505 9.04518 11.8238 8.9993 12 9C12.2652 9 12.5196 9.10536 12.7071 9.29289C12.8946 9.48043 13 9.73478 13 10C13 10.2652 12.8946 10.5196 12.7071 10.7071C12.5196 10.8946 12.2652 11 12 11C11.7348 11 11.4804 11.1054 11.2929 11.2929C11.1053 11.4804 11 11.7348 11 12V13C11 13.2652 11.1053 13.5196 11.2929 13.7071C11.4804 13.8946 11.7348 14 12 14C12.2652 14 12.5196 13.8946 12.7071 13.7071C12.8946 13.5196 13 13.2652 13 13V12.82C13.6614 12.58 14.2173 12.1152 14.5708 11.5069C14.9242 10.8985 15.0525 10.1853 14.9334 9.49189C14.8142 8.79849 14.4552 8.16902 13.919 7.71352C13.3828 7.25801 12.7035 7.00546 12 7ZM11.29 15.29C11.247 15.3375 11.2069 15.3876 11.17 15.44C11.1321 15.4957 11.1019 15.5563 11.08 15.62C11.0511 15.6767 11.0309 15.7374 11.02 15.8C11.0151 15.8666 11.0151 15.9334 11.02 16C11.0166 16.1312 11.044 16.2613 11.1 16.38C11.1449 16.5041 11.2165 16.6168 11.3099 16.7101C11.4032 16.8034 11.5159 16.8751 11.64 16.92C11.7597 16.9729 11.8891 17.0002 12.02 17.0002C12.1509 17.0002 12.2803 16.9729 12.4 16.92C12.5241 16.8751 12.6368 16.8034 12.7301 16.7101C12.8234 16.6168 12.8951 16.5041 12.94 16.38C12.9844 16.2584 13.0048 16.1294 13 16C13.0007 15.8684 12.9755 15.7379 12.9258 15.6161C12.876 15.4943 12.8027 15.3834 12.71 15.29C12.617 15.1963 12.5064 15.1219 12.3846 15.0711C12.2627 15.0203 12.132 14.9942 12 14.9942C11.868 14.9942 11.7373 15.0203 11.6154 15.0711C11.4935 15.1219 11.3829 15.1963 11.29 15.29Z" fill="#697586"/>
</svg>
