<svg width="24" height="24" viewBox="0 0 24 24" fill="none" xmlns="http://www.w3.org/2000/svg">
<path d="M19.5211 12.9998C19.3003 12.9998 19.0694 12.9296 18.8487 12.8794C18.4015 12.7808 17.9621 12.65 17.5339 12.488C17.0684 12.3186 16.5566 12.3274 16.0971 12.5127C15.6376 12.6979 15.2629 13.0466 15.045 13.4916L14.8242 13.9432C13.8467 13.3994 12.9485 12.724 12.1546 11.936C11.3666 11.1422 10.6912 10.2439 10.1474 9.2664L10.5689 8.98539C11.0139 8.76753 11.3626 8.3928 11.5478 7.93331C11.7331 7.47382 11.7419 6.96204 11.5725 6.49646C11.4132 6.06734 11.2824 5.62814 11.1811 5.18174C11.1309 4.96095 11.0908 4.73012 11.0607 4.49929C10.9388 3.79237 10.5686 3.1522 10.0166 2.69405C9.46458 2.2359 8.76716 1.98989 8.04989 2.00032H5.03908C4.60656 1.99626 4.17824 2.08544 3.78328 2.26179C3.38832 2.43814 3.036 2.69752 2.75029 3.02227C2.46459 3.34702 2.25221 3.72952 2.12761 4.14373C2.00302 4.55793 1.96914 4.99413 2.02827 5.4226C2.56293 9.62708 4.48311 13.5336 7.48551 16.5251C10.4879 19.5166 14.4014 21.4226 18.6078 21.9419H18.9892C19.7292 21.943 20.4438 21.6715 20.9964 21.1792C21.3139 20.8952 21.5675 20.5471 21.7405 20.1578C21.9135 19.7686 22.0019 19.347 22 18.9211V15.9103C21.9877 15.2131 21.7338 14.5419 21.2817 14.0111C20.8296 13.4803 20.2073 13.1229 19.5211 12.9998ZM20.0229 19.0214C20.0227 19.1639 19.9922 19.3047 19.9333 19.4345C19.8745 19.5643 19.7887 19.6801 19.6816 19.7741C19.5695 19.8709 19.4384 19.9433 19.2967 19.9865C19.1549 20.0297 19.0058 20.0428 18.8587 20.025C15.1001 19.5431 11.6089 17.8236 8.93578 15.1378C6.26267 12.4519 4.55977 8.95261 4.09569 5.19178C4.07972 5.04477 4.09372 4.89604 4.13684 4.7546C4.17996 4.61315 4.25132 4.48191 4.34659 4.36882C4.44064 4.26177 4.55641 4.17597 4.68619 4.11714C4.81597 4.0583 4.9568 4.02778 5.09929 4.0276H8.1101C8.34349 4.0224 8.57138 4.09873 8.75456 4.24344C8.93774 4.38815 9.06474 4.59219 9.11371 4.82044C9.15385 5.09476 9.20403 5.36573 9.26425 5.63336C9.38018 6.1624 9.53448 6.68231 9.7259 7.18895L8.32086 7.84129C8.20073 7.89641 8.09266 7.97471 8.00288 8.07171C7.91309 8.16871 7.84335 8.28249 7.79765 8.40651C7.75196 8.53054 7.73121 8.66237 7.73661 8.79443C7.74201 8.9265 7.77344 9.05619 7.82909 9.17608C9.27348 12.2699 11.7605 14.7569 14.8543 16.2013C15.0987 16.3017 15.3727 16.3017 15.6171 16.2013C15.7422 16.1565 15.8572 16.0873 15.9554 15.9978C16.0536 15.9082 16.1331 15.8 16.1891 15.6794L16.8113 14.2744C17.3302 14.4599 17.8597 14.6141 18.397 14.736C18.6647 14.7963 18.9356 14.8464 19.21 14.8866C19.4382 14.9355 19.6422 15.0625 19.787 15.2457C19.9317 15.4289 20.008 15.6568 20.0028 15.8902L20.0229 19.0214Z" fill="#697586"/>
</svg>
