<svg width="24" height="24" viewBox="0 0 24 24" fill="none" xmlns="http://www.w3.org/2000/svg">
<path d="M17.9999 19H2.9999C2.82944 18.9995 2.66194 18.9554 2.5133 18.8719C2.36467 18.7885 2.23984 18.6684 2.15067 18.5231C2.06149 18.3778 2.01094 18.2122 2.00381 18.0419C1.99667 17.8715 2.03319 17.7022 2.1099 17.55L4.8799 12L2.1099 6.45C2.03319 6.29777 1.99667 6.12846 2.00381 5.95814C2.01094 5.78783 2.06149 5.62216 2.15067 5.47688C2.23984 5.3316 2.36467 5.21153 2.5133 5.12806C2.66194 5.0446 2.82944 5.00052 2.9999 5H17.9999C18.1846 5.00056 18.3655 5.05224 18.5226 5.14932C18.6797 5.2464 18.8068 5.38509 18.8899 5.55L21.8899 11.55C21.9602 11.6896 21.9969 11.8437 21.9969 12C21.9969 12.1563 21.9602 12.3104 21.8899 12.45L18.8899 18.45C18.8068 18.6149 18.6797 18.7536 18.5226 18.8507C18.3655 18.9478 18.1846 18.9994 17.9999 19ZM4.6199 17H17.3799L19.8799 12L17.3799 7H4.6199L6.8899 11.55C6.96024 11.6896 6.99688 11.8437 6.99688 12C6.99688 12.1563 6.96024 12.3104 6.8899 12.45L4.6199 17Z" fill="#697586"/>
</svg>
