<svg width="24" height="24" viewBox="0 0 24 24" fill="none" xmlns="http://www.w3.org/2000/svg">
<path d="M10 13H14C14.2653 13 14.5196 12.8946 14.7072 12.7071C14.8947 12.5196 15 12.2652 15 12C15 11.7348 14.8947 11.4804 14.7072 11.2929C14.5196 11.1054 14.2653 11 14 11H10C9.73483 11 9.48048 11.1054 9.29294 11.2929C9.1054 11.4804 9.00005 11.7348 9.00005 12C9.00005 12.2652 9.1054 12.5196 9.29294 12.7071C9.48048 12.8946 9.73483 13 10 13ZM19 3H5.00005C4.29651 3.00546 3.61726 3.25801 3.08105 3.71352C2.54485 4.16902 2.18579 4.79849 2.06665 5.49189C1.94751 6.18529 2.07586 6.89851 2.42928 7.50687C2.78269 8.11523 3.33868 8.58002 4.00005 8.82V18C4.00005 18.7956 4.31612 19.5587 4.87873 20.1213C5.44134 20.6839 6.2044 21 7.00005 21H17C17.7957 21 18.5588 20.6839 19.1214 20.1213C19.684 19.5587 20 18.7956 20 18V8.82C20.6614 8.58002 21.2174 8.11523 21.5708 7.50687C21.9242 6.89851 22.0526 6.18529 21.9334 5.49189C21.8143 4.79849 21.4552 4.16902 20.919 3.71352C20.3828 3.25801 19.7036 3.00546 19 3ZM18 18C18 18.2652 17.8947 18.5196 17.7072 18.7071C17.5196 18.8946 17.2653 19 17 19H7.00005C6.73483 19 6.48048 18.8946 6.29294 18.7071C6.1054 18.5196 6.00005 18.2652 6.00005 18V9H18V18ZM19 7H5.00005C4.73483 7 4.48048 6.89464 4.29294 6.70711C4.1054 6.51957 4.00005 6.26522 4.00005 6C4.00005 5.73478 4.1054 5.48043 4.29294 5.29289C4.48048 5.10536 4.73483 5 5.00005 5H19C19.2653 5 19.5196 5.10536 19.7072 5.29289C19.8947 5.48043 20 5.73478 20 6C20 6.26522 19.8947 6.51957 19.7072 6.70711C19.5196 6.89464 19.2653 7 19 7Z" fill="#697586"/>
</svg>
