<svg width="24" height="24" viewBox="0 0 24 24" fill="none" xmlns="http://www.w3.org/2000/svg">
<path d="M17.4 10.938C17.1613 10.938 16.9324 11.0328 16.7636 11.2016C16.5948 11.3704 16.5 11.5993 16.5 11.838V18.3C16.5 18.5387 16.4052 18.7676 16.2364 18.9364C16.0676 19.1052 15.8387 19.2 15.6 19.2H5.7C5.4613 19.2 5.23239 19.1052 5.0636 18.9364C4.89482 18.7676 4.8 18.5387 4.8 18.3V8.4C4.8 8.1613 4.89482 7.93239 5.0636 7.7636C5.23239 7.59482 5.4613 7.5 5.7 7.5H12.162C12.4007 7.5 12.6296 7.40518 12.7984 7.2364C12.9672 7.06761 13.062 6.83869 13.062 6.6C13.062 6.3613 12.9672 6.13239 12.7984 5.9636C12.6296 5.79482 12.4007 5.7 12.162 5.7H5.7C4.98392 5.7 4.29716 5.98446 3.79081 6.49081C3.28446 6.99716 3 7.68392 3 8.4V18.3C3 19.0161 3.28446 19.7028 3.79081 20.2092C4.29716 20.7155 4.98392 21 5.7 21H15.6C16.3161 21 17.0028 20.7155 17.5092 20.2092C18.0155 19.7028 18.3 19.0161 18.3 18.3V11.838C18.3 11.5993 18.2052 11.3704 18.0364 11.2016C17.8676 11.0328 17.6387 10.938 17.4 10.938ZM20.928 3.558C20.8367 3.33809 20.6619 3.16333 20.442 3.072C20.3338 3.02588 20.2176 3.00142 20.1 3H14.7C14.4613 3 14.2324 3.09482 14.0636 3.2636C13.8948 3.43239 13.8 3.66131 13.8 3.9C13.8 4.13869 13.8948 4.36761 14.0636 4.5364C14.2324 4.70518 14.4613 4.8 14.7 4.8H17.931L8.661 14.061C8.57664 14.1447 8.50969 14.2442 8.464 14.3539C8.41831 14.4636 8.39478 14.5812 8.39478 14.7C8.39478 14.8188 8.41831 14.9364 8.464 15.0461C8.50969 15.1558 8.57664 15.2553 8.661 15.339C8.74467 15.4234 8.84421 15.4903 8.95388 15.536C9.06355 15.5817 9.18119 15.6052 9.3 15.6052C9.41881 15.6052 9.53645 15.5817 9.64612 15.536C9.75579 15.4903 9.85533 15.4234 9.939 15.339L19.2 6.069V9.3C19.2 9.53869 19.2948 9.76761 19.4636 9.9364C19.6324 10.1052 19.8613 10.2 20.1 10.2C20.3387 10.2 20.5676 10.1052 20.7364 9.9364C20.9052 9.76761 21 9.53869 21 9.3V3.9C20.9986 3.78239 20.9741 3.6662 20.928 3.558Z" fill="#697586"/>
</svg>
