<svg width="24" height="24" viewBox="0 0 24 24" fill="none" xmlns="http://www.w3.org/2000/svg">
<path fill-rule="evenodd" clip-rule="evenodd" d="M11.622 5.64746C11.9043 5.53574 12.227 5.55507 12.496 5.7041L19.496 9.58203C19.5737 9.62508 19.6442 9.67768 19.706 9.7373L22.7069 12.6475C22.9251 12.859 23.0303 13.1573 22.9921 13.4541C22.9536 13.7508 22.7757 14.0142 22.5106 14.167L19.9999 15.6123V19.1514C19.9999 19.4992 19.8074 19.8205 19.496 19.9932L12.496 23.8721C12.1886 24.0423 11.8112 24.0424 11.5038 23.8721L4.50381 19.9932C4.19252 19.8205 3.99998 19.4991 3.9999 19.1514V15.6123L1.48916 14.167C1.22399 14.0142 1.04623 13.7509 1.00772 13.4541C0.969484 13.1572 1.07469 12.859 1.29287 12.6475L4.29385 9.7373C4.35556 9.67769 4.42615 9.62507 4.50381 9.58203L11.5038 5.7041L11.622 5.64746ZM9.43838 17.8975C9.11512 18.2109 8.61269 18.2722 8.21963 18.0459L5.9999 16.7666V18.5879L11.9999 21.9131L17.9999 18.5879V16.7666L15.7802 18.0459C15.3871 18.2722 14.8847 18.2109 14.5614 17.8975L11.9989 15.4131L9.43838 17.8975ZM3.61612 13.1367L8.57315 15.9932L10.1952 14.4199L5.16592 11.6328L3.61612 13.1367ZM13.8036 14.4199L15.4267 15.9932L20.3837 13.1367L18.8329 11.6328L13.8036 14.4199ZM7.01455 10.4238L11.9999 13.1855L16.9843 10.4238L11.9999 7.66211L7.01455 10.4238Z" fill="#697586"/>
<path d="M4.29287 3.9209C4.6834 3.54224 5.31642 3.54222 5.70694 3.9209L7.121 5.29199C7.51131 5.67069 7.51142 6.28446 7.121 6.66309C6.73051 7.04167 6.09745 7.04161 5.70694 6.66309L4.29287 5.29199C3.9024 4.91336 3.90252 4.2996 4.29287 3.9209Z" fill="#697586"/>
<path d="M18.121 3.9209C18.5115 3.54228 19.1445 3.54234 19.5351 3.9209C19.9254 4.2996 19.9255 4.91337 19.5351 5.29199L18.121 6.66309C17.7305 7.04164 17.0974 7.04165 16.7069 6.66309C16.3166 6.28444 16.3166 5.67066 16.7069 5.29199L18.121 3.9209Z" fill="#697586"/>
<path d="M11.9999 0C12.5522 3.99575e-05 12.9999 0.434199 12.9999 0.969727V2.90918C12.9999 3.44467 12.5521 3.87887 11.9999 3.87891C11.4476 3.8789 10.9999 3.4447 10.9999 2.90918V0.969727C10.9999 0.434176 11.4476 2.02255e-06 11.9999 0Z" fill="#697586"/>
</svg>
