<svg width="24" height="24" viewBox="0 0 24 24" fill="none" xmlns="http://www.w3.org/2000/svg">
<path d="M5.6 7C6 7.4 6.6 7.4 7 7C7.4 6.6 7.4 6 7 5.6L6.3 4.9C5.9 4.5 5.3 4.5 4.9 4.9C4.5 5.3 4.5 5.9 4.9 6.3L5.6 7ZM17.7 7.3C18 7.3 18.2 7.2 18.4 7L19.1 6.3C19.5 5.9 19.5 5.3 19.1 4.9C18.7 4.5 18.1 4.5 17.7 4.9L17 5.6C16.6 6 16.6 6.6 17 7C17.1 7.2 17.4 7.3 17.7 7.3ZM12 5C12.6 5 13 4.6 13 4V3C13 2.4 12.6 2 12 2C11.4 2 11 2.4 11 3V4C11 4.6 11.4 5 12 5ZM5.6 17L4.9 17.7C4.5 18.1 4.5 18.7 4.9 19.1C5.3 19.5 5.9 19.5 6.3 19.1L7 18.4C7.4 18 7.4 17.4 7 17C6.6 16.6 6 16.6 5.6 17ZM5 12C5 11.4 4.6 11 4 11H3C2.4 11 2 11.4 2 12C2 12.6 2.4 13 3 13H4C4.6 13 5 12.6 5 12ZM18.4 17C18 16.6 17.4 16.6 17 17C16.6 17.4 16.6 18 17 18.4L17.7 19.1C18.1 19.5 18.7 19.5 19.1 19.1C19.5 18.7 19.5 18.1 19.1 17.7L18.4 17ZM12 19C11.4 19 11 19.4 11 20V21C11 21.6 11.4 22 12 22C12.6 22 13 21.6 13 21V20C13 19.4 12.6 19 12 19ZM21 11H20C19.4 11 19 11.4 19 12C19 12.6 19.4 13 20 13H21C21.6 13 22 12.6 22 12C22 11.4 21.6 11 21 11ZM12 6.5C9 6.5 6.5 9 6.5 12C6.5 15 9 17.5 12 17.5C15 17.5 17.5 15 17.5 12C17.5 9 15 6.5 12 6.5Z" fill="#697586"/>
</svg>
