<svg width="24" height="24" viewBox="0 0 24 24" fill="none" xmlns="http://www.w3.org/2000/svg">
<path d="M15.3324 9.50001C15.3324 8.72953 15.0782 7.98058 14.6091 7.36933C14.1401 6.75807 13.4824 6.31867 12.7382 6.11926C11.994 5.91985 11.2047 5.97158 10.4929 6.26642C9.78108 6.56127 9.18643 7.08276 8.80118 7.75001C8.66873 7.97973 8.63293 8.25265 8.70165 8.50876C8.77037 8.76487 8.93799 8.98321 9.16764 9.11577C9.3973 9.24834 9.6702 9.28428 9.92635 9.21569C10.1825 9.1471 10.4009 8.9796 10.5336 8.75001C10.6654 8.52219 10.8548 8.333 11.0828 8.20138C11.3107 8.06975 11.5692 8.00031 11.8324 8.00001C12.2303 8.00001 12.6118 8.15804 12.8931 8.43935C13.1744 8.72065 13.3324 9.10218 13.3324 9.50001C13.3324 9.89783 13.1744 10.2794 12.8931 10.5607C12.6118 10.842 12.2303 11 11.8324 11H11.83C11.7657 11.0064 11.7023 11.0194 11.6407 11.0387C11.5733 11.0457 11.5068 11.0593 11.4421 11.0794C11.387 11.1093 11.335 11.1444 11.2866 11.1842C11.2292 11.2155 11.1749 11.2522 11.1246 11.294C11.0796 11.3476 11.0404 11.4058 11.0075 11.4677C10.9711 11.5128 10.9387 11.561 10.9108 11.6118C10.8891 11.6808 10.8748 11.7518 10.868 11.8237C10.8506 11.8812 10.8387 11.9403 10.8324 12V13L10.8347 13.0114L10.8358 13.5024C10.8365 13.7672 10.9422 14.0209 11.1296 14.2079C11.3171 14.3949 11.5711 14.5 11.8358 14.5H11.8383C12.1035 14.4993 12.3576 14.3934 12.5447 14.2054C12.7317 14.0174 12.8365 13.7628 12.8358 13.4976L12.8343 12.8362C13.5539 12.6223 14.1854 12.1823 14.6353 11.5814C15.0853 10.9805 15.3297 10.2507 15.3324 9.50001ZM11.1298 16.29C10.9894 16.4293 10.8934 16.607 10.854 16.8008C10.8146 16.9946 10.8336 17.1957 10.9085 17.3787C10.9834 17.5617 11.1108 17.7185 11.2748 17.829C11.4387 17.9396 11.6317 17.9991 11.8295 18C12.0947 17.9978 12.349 17.894 12.5399 17.71C12.7256 17.5203 12.8295 17.2655 12.8295 17C12.8295 16.7346 12.7256 16.4798 12.5399 16.2901C12.3485 16.1117 12.0966 16.0125 11.8349 16.0125C11.5732 16.0124 11.3212 16.1116 11.1298 16.29Z" fill="#697586"/>
</svg>
