<svg width="24" height="24" viewBox="0 0 24 24" fill="none" xmlns="http://www.w3.org/2000/svg">
<path d="M3.6455 2.16699C2.183 2.16699 1 3.35049 1 4.81249V8.03399V12.3875V15.025V20.573C0.999002 21.0735 1.332 21.566 1.797 21.75C2.2615 21.934 2.8455 21.802 3.1865 21.4365L6.4375 17.951C6.458 17.9295 6.4865 17.917 6.5165 17.917H7.3975H7.868H8.3005H13.7225H20.3505C21.8135 17.917 23 16.736 23 15.2725V12.3875V8.03399V4.81249C23 3.34949 21.8135 2.16699 20.3505 2.16699H13.9415H8.301H7.6165H3.6455ZM3.6455 3.83699H7.616H8.3005H13.941H20.351C20.91 3.83699 21.3275 4.25349 21.3275 4.81249V8.03399V12.3875V15.2695C21.3275 15.829 20.9105 16.248 20.351 16.248H13.425C13.42 16.249 13.4145 16.2495 13.4095 16.249H8.301C8.298 16.249 8.2945 16.249 8.291 16.248H7.868H6.376C5.978 16.2485 5.583 16.4205 5.3115 16.711L2.8555 19.343C2.8145 19.387 2.7465 19.389 2.703 19.3485C2.681 19.328 2.6685 19.299 2.669 19.269V15.023V12.388V8.03449V4.81249C2.669 4.25349 3.0865 3.83699 3.6455 3.83699ZM13.032 6.32849C12.928 6.31799 12.907 6.32999 12.9605 6.33149C13.055 6.33299 13.0505 6.32949 12.947 6.32949C12.833 6.32949 12.819 6.33999 12.907 6.33649C12.8275 6.34049 12.739 6.35349 12.649 6.38849C12.5865 6.41199 12.5555 6.43599 12.5515 6.43849H12.5505C12.5595 6.43399 12.501 6.44749 12.4165 6.51649C12.3325 6.58549 12.3245 6.60699 12.3785 6.55649L12.3815 6.55449C12.326 6.60599 12.3005 6.64899 12.2885 6.66499C12.2875 6.66549 12.2875 6.66599 12.2865 6.66699C12.268 6.69149 12.2265 6.73599 12.19 6.81549C12.1565 6.88799 12.151 6.93849 12.147 6.95299C12.147 6.95349 12.1465 6.95399 12.146 6.95499C12.1375 6.98699 12.1185 7.04349 12.1145 7.12499C12.117 7.06549 12.1065 7.07249 12.1065 7.17099V13.276C12.1065 13.7365 12.4865 14.116 12.9465 14.116C13.4065 14.116 13.7875 13.737 13.7875 13.276V9.50999L17.312 13.8085C17.4095 13.9275 17.531 13.998 17.64 14.043L17.641 14.044C17.6975 14.0685 17.733 14.0735 17.722 14.0695C17.725 14.071 17.728 14.072 17.731 14.0725C17.7735 14.085 17.8375 14.106 17.9245 14.1095H17.9145C17.8515 14.1045 17.875 14.1195 17.979 14.1195C18.086 14.1195 18.144 14.0915 18.15 14.09C18.153 14.09 18.155 14.089 18.158 14.088C18.144 14.092 18.1685 14.088 18.205 14.0775C18.5515 13.98 18.8195 13.663 18.8195 13.2785V7.17099C18.8195 6.71049 18.4395 6.33099 17.9795 6.33099C17.5195 6.33099 17.1395 6.71099 17.1395 7.17099V10.9515L13.5975 6.63199C13.531 6.55099 13.5085 6.54349 13.5545 6.59199H13.5535C13.5125 6.54949 13.489 6.53599 13.493 6.53949L13.492 6.53849C13.4385 6.49249 13.372 6.43999 13.282 6.40099L13.281 6.40049C13.218 6.37299 13.206 6.37299 13.249 6.38949C13.207 6.37299 13.1375 6.33899 13.032 6.32849ZM5.8875 6.35099C5.4295 6.35099 5.0495 6.73099 5.0495 7.18899V13.255C5.0495 13.713 5.4295 14.093 5.8875 14.093H9.6825C10.1405 14.093 10.5205 13.713 10.5205 13.255C10.5205 12.7975 10.1405 12.418 9.6825 12.418H6.7255V11.06H9.084C9.542 11.06 9.922 10.68 9.922 10.222C9.922 9.76399 9.542 9.38399 9.084 9.38399H6.7255V8.02649H9.6825C10.1405 8.02649 10.5205 7.64649 10.5205 7.18849C10.5205 6.73049 10.1405 6.35049 9.6825 6.35049L5.8875 6.35099Z" fill="#697586"/>
</svg>
