<svg width="24" height="24" viewBox="0 0 24 24" fill="none" xmlns="http://www.w3.org/2000/svg">
<path fill-rule="evenodd" clip-rule="evenodd" d="M15.82 4H17C17.7956 4 18.5587 4.31607 19.1213 4.87868C19.6839 5.44129 20 6.20435 20 7V9C20 9.55228 19.5523 10 19 10C18.4477 10 18 9.55228 18 9V7C18 6.73478 17.8946 6.48043 17.7071 6.29289C17.5196 6.10536 17.2652 6 17 6H16V7C16 7.26522 15.8946 7.51957 15.7071 7.70711C15.5196 7.89464 15.2652 8 15 8H9C8.73478 8 8.48043 7.89464 8.29289 7.70711C8.10536 7.51957 8 7.26522 8 7V6H7C6.73478 6 6.48043 6.10536 6.29289 6.29289C6.10536 6.48043 6 6.73478 6 7V19C6 19.2652 6.10536 19.5196 6.29289 19.7071C6.48043 19.8946 6.73478 20 7 20H13C13.5523 20 14 20.4477 14 21C14 21.5523 13.5523 22 13 22H7C6.20435 22 5.44129 21.6839 4.87868 21.1213C4.31607 20.5587 4 19.7956 4 19V7C4 6.20435 4.31607 5.44129 4.87868 4.87868C5.44129 4.31607 6.20435 4 7 4H8.18C8.38631 3.41645 8.76807 2.911 9.27293 2.55294C9.7778 2.19488 10.3811 2.00174 11 2H13C13.6189 2.00174 14.2222 2.19488 14.7271 2.55294C15.2319 2.911 15.6137 3.41645 15.82 4ZM10.2929 4.29289C10.1054 4.48043 10 4.73478 10 5V6H14V5C14 4.73478 13.8946 4.48043 13.7071 4.29289C13.5196 4.10536 13.2652 4 13 4H11C10.7348 4 10.4804 4.10536 10.2929 4.29289Z" fill="#697586"/>
<path d="M11.4444 15.1685C11.6089 15.0586 11.8022 15 12 15C12.2652 15 12.5196 15.1054 12.7071 15.2929C12.8946 15.4804 13 15.7348 13 16C13 16.1978 12.9414 16.3911 12.8315 16.5556C12.7216 16.72 12.5654 16.8482 12.3827 16.9239C12.2 16.9996 11.9989 17.0194 11.8049 16.9808C11.6109 16.9422 11.4327 16.847 11.2929 16.7071C11.153 16.5673 11.0578 16.3891 11.0192 16.1951C10.9806 16.0011 11.0004 15.8 11.0761 15.6173C11.1518 15.4346 11.28 15.2784 11.4444 15.1685Z" fill="#697586"/>
<path d="M15.4444 15.1685C15.6089 15.0586 15.8022 15 16 15C16.2652 15 16.5196 15.1054 16.7071 15.2929C16.8946 15.4804 17 15.7348 17 16C17 16.1978 16.9414 16.3911 16.8315 16.5556C16.7216 16.72 16.5654 16.8482 16.3827 16.9239C16.2 16.9996 15.9989 17.0194 15.8049 16.9808C15.6109 16.9422 15.4327 16.847 15.2929 16.7071C15.153 16.5673 15.0578 16.3891 15.0192 16.1951C14.9806 16.0011 15.0004 15.8 15.0761 15.6173C15.1518 15.4346 15.28 15.2784 15.4444 15.1685Z" fill="#697586"/>
<path d="M19.4444 15.1685C19.6089 15.0586 19.8022 15 20 15C20.2652 15 20.5196 15.1054 20.7071 15.2929C20.8946 15.4804 21 15.7348 21 16C21 16.1978 20.9414 16.3911 20.8315 16.5556C20.7216 16.72 20.5654 16.8482 20.3827 16.9239C20.2 16.9996 19.9989 17.0194 19.8049 16.9808C19.6109 16.9422 19.4327 16.847 19.2929 16.7071C19.153 16.5673 19.0578 16.3891 19.0192 16.1951C18.9806 16.0011 19.0004 15.8 19.0761 15.6173C19.1518 15.4346 19.28 15.2784 19.4444 15.1685Z" fill="#697586"/>
</svg>
