<svg width="24" height="24" viewBox="0 0 24 24" fill="none" xmlns="http://www.w3.org/2000/svg">
<path d="M11 18.9999H8C7.73478 18.9999 7.48043 19.1053 7.29289 19.2928C7.10536 19.4804 7 19.7347 7 19.9999C7 20.2652 7.10536 20.5195 7.29289 20.707C7.48043 20.8946 7.73478 20.9999 8 20.9999H11C11.2652 20.9999 11.5196 20.8946 11.7071 20.707C11.8946 20.5195 12 20.2652 12 19.9999C12 19.7347 11.8946 19.4804 11.7071 19.2928C11.5196 19.1053 11.2652 18.9999 11 18.9999ZM20 14.9999H18.84C19.4149 14.1014 19.8089 13.0994 20 12.0499C20.0289 11.8787 20.0128 11.703 19.9532 11.5399C19.8936 11.3768 19.7925 11.2321 19.66 11.1199C19.5256 11.0016 19.3619 10.9216 19.186 10.8882C19.0101 10.8548 18.8284 10.8692 18.66 10.9299C18.0417 11.1404 17.3932 11.2485 16.74 11.2499C15.1431 11.25 13.6108 10.6198 12.476 9.49627C11.3412 8.37274 10.6958 6.84673 10.68 5.24993C10.6893 4.91464 10.7228 4.58044 10.78 4.24993C10.806 4.07942 10.7874 3.90509 10.726 3.74389C10.6647 3.58268 10.5627 3.44008 10.43 3.32993C10.2946 3.21332 10.1304 3.13512 9.95457 3.10346C9.7787 3.07181 9.59756 3.08785 9.43 3.14993C7.85902 3.69212 6.49405 4.70666 5.522 6.05464C4.54995 7.40262 4.01835 9.01813 4 10.6799C4.00099 12.2118 4.44179 13.7112 5.27 14.9999H4C3.73478 14.9999 3.48043 15.1053 3.29289 15.2928C3.10536 15.4804 3 15.7347 3 15.9999C3 16.2652 3.10536 16.5195 3.29289 16.707C3.48043 16.8946 3.73478 16.9999 4 16.9999H20C20.2652 16.9999 20.5196 16.8946 20.7071 16.707C20.8946 16.5195 21 16.2652 21 15.9999C21 15.7347 20.8946 15.4804 20.7071 15.2928C20.5196 15.1053 20.2652 14.9999 20 14.9999ZM16 18.9999H15C14.7348 18.9999 14.4804 19.1053 14.2929 19.2928C14.1054 19.4804 14 19.7347 14 19.9999C14 20.2652 14.1054 20.5195 14.2929 20.707C14.4804 20.8946 14.7348 20.9999 15 20.9999H16C16.2652 20.9999 16.5196 20.8946 16.7071 20.707C16.8946 20.5195 17 20.2652 17 19.9999C17 19.7347 16.8946 19.4804 16.7071 19.2928C16.5196 19.1053 16.2652 18.9999 16 18.9999Z" fill="#697586"/>
</svg>
