<svg width="24" height="24" viewBox="0 0 24 24" fill="none" xmlns="http://www.w3.org/2000/svg">
<path d="M20.6465 12.9044C20.5166 12.794 20.3593 12.7233 20.1923 12.7004C20.0254 12.6775 19.8555 12.7033 19.7022 12.7749C18.7512 13.2227 17.7172 13.4532 16.6714 13.4504C14.7368 13.448 12.8815 12.6587 11.5102 11.2545C10.1389 9.85038 9.36262 7.94528 9.35076 5.95463C9.35486 5.33075 9.43032 4.70954 9.57559 4.10382C9.60642 3.94237 9.59486 3.77538 9.5421 3.62006C9.48934 3.46474 9.39729 3.32671 9.27543 3.22017C9.15357 3.11364 9.00632 3.04246 8.84883 3.01398C8.69135 2.98549 8.52933 3.00072 8.37947 3.0581C6.9696 3.71043 5.74402 4.72084 4.81787 5.99441C3.89172 7.26798 3.2954 8.7629 3.08492 10.3387C2.87445 11.9146 3.05674 13.5196 3.61465 15.0031C4.17257 16.4865 5.08781 17.7997 6.27439 18.8192C7.46096 19.8387 8.87993 20.5311 10.398 20.8313C11.916 21.1316 13.4834 21.0298 14.9527 20.5356C16.422 20.0414 17.7452 19.1709 18.7978 18.006C19.8504 16.8411 20.5979 15.42 20.9702 13.8761C21.0156 13.6994 21.009 13.5128 20.9514 13.3398C20.8938 13.1669 20.7877 13.0154 20.6465 12.9044ZM12.1027 19.0954C10.5934 19.0845 9.1243 18.5937 7.89652 17.6904C6.66873 16.7871 5.74231 15.5153 5.24409 14.0493C4.74587 12.5832 4.70022 10.9946 5.11338 9.5008C5.52654 8.00702 6.37831 6.68117 7.55208 5.70477V5.95463C7.55446 8.44258 8.516 10.8279 10.2257 12.5872C11.9354 14.3464 14.2535 15.3358 16.6714 15.3383C17.3062 15.3407 17.9394 15.2724 18.56 15.1347C17.9394 16.3428 17.01 17.3537 15.872 18.0582C14.7341 18.7627 13.4308 19.1341 12.1027 19.1324V19.0954Z" fill="#697586"/>
</svg>
