<svg width="24" height="24" viewBox="0 0 24 24" fill="none" xmlns="http://www.w3.org/2000/svg">
<path d="M17.0338 3.00706C17.6488 3.0948 18.0764 3.66456 17.9888 4.27965L17.5292 7.50126L19.8752 7.5015C20.4965 7.50156 21 8.00529 21 8.62662C21 9.24793 20.4961 9.75156 19.8748 9.7515L17.2083 9.75121L16.5666 14.2495L18.375 14.2494C18.9963 14.2494 19.5 14.753 19.5 15.3744C19.5 15.9957 18.9963 16.4994 18.375 16.4994L16.2457 16.4995L15.7416 20.0338C15.6538 20.649 15.0842 21.0765 14.469 20.9888C13.8539 20.901 13.4264 20.3313 13.5142 19.7162L13.9729 16.4995L8.74504 16.4998L8.24059 20.034C8.1528 20.649 7.58299 21.0765 6.96792 20.9888C6.35283 20.9009 5.92537 20.3312 6.01317 19.716L6.47223 16.4998L4.12505 16.5C3.50373 16.5 3 15.9963 3 15.375C3 14.7537 3.50362 14.25 4.12495 14.25L6.79338 14.2499L7.43565 9.75019L5.62488 9.75C5.00356 9.74994 4.49994 9.24619 4.5 8.62488C4.50006 8.00356 5.00381 7.49994 5.62512 7.5L7.7568 7.50023L8.26127 3.96604C8.34906 3.35095 8.91885 2.9235 9.53394 3.01129C10.149 3.09909 10.5765 3.66888 10.4887 4.28397L10.0296 7.50046L15.2565 7.50102L15.7612 3.96193C15.849 3.34684 16.4187 2.91933 17.0338 3.00706ZM14.9355 9.75097L9.70842 9.75043L9.06621 14.2498L14.2939 14.2496L14.9355 9.75097Z" fill="#697586"/>
</svg>
