<svg width="24" height="24" viewBox="0 0 24 24" fill="none" xmlns="http://www.w3.org/2000/svg">
<path d="M20.71 16.7099L18.29 14.2899C18.1971 14.1962 18.0865 14.1218 17.9646 14.071C17.8427 14.0203 17.712 13.9941 17.58 13.9941C17.448 13.9941 17.3173 14.0203 17.1954 14.071C17.0736 14.1218 16.963 14.1962 16.87 14.2899L13.29 17.8699C13.1973 17.9634 13.124 18.0742 13.0742 18.196C13.0245 18.3179 12.9993 18.4483 13 18.5799V20.9999C13 21.2652 13.1054 21.5195 13.2929 21.707C13.4804 21.8946 13.7348 21.9999 14 21.9999H16.42C16.5516 22.0007 16.6821 21.9755 16.8039 21.9257C16.9258 21.8759 17.0366 21.8026 17.13 21.7099L20.71 18.1299C20.8037 18.037 20.8781 17.9264 20.9289 17.8045C20.9797 17.6827 21.0058 17.552 21.0058 17.4199C21.0058 17.2879 20.9797 17.1572 20.9289 17.0354C20.8781 16.9135 20.8037 16.8029 20.71 16.7099ZM16 19.9999H15V18.9999L17.58 16.4199L18.58 17.4199L16 19.9999Z" fill="#697586"/>
<path fill-rule="evenodd" clip-rule="evenodd" d="M15.82 4H17C17.7956 4 18.5587 4.31607 19.1213 4.87868C19.6839 5.44129 20 6.20435 20 7V12C20 12.5523 19.5523 13 19 13C18.4477 13 18 12.5523 18 12V7C18 6.73478 17.8946 6.48043 17.7071 6.29289C17.5196 6.10536 17.2652 6 17 6H16V7C16 7.26522 15.8946 7.51957 15.7071 7.70711C15.5196 7.89464 15.2652 8 15 8H9C8.73478 8 8.48043 7.89464 8.29289 7.70711C8.10536 7.51957 8 7.26522 8 7V6H7C6.73478 6 6.48043 6.10536 6.29289 6.29289C6.10536 6.48043 6 6.73478 6 7V19C6 19.2652 6.10536 19.5196 6.29289 19.7071C6.48043 19.8946 6.73478 20 7 20H10C10.5523 20 11 20.4477 11 21C11 21.5523 10.5523 22 10 22H7C6.20435 22 5.44129 21.6839 4.87868 21.1213C4.31607 20.5587 4 19.7956 4 19V7C4 6.20435 4.31607 5.44129 4.87868 4.87868C5.44129 4.31607 6.20435 4 7 4H8.18C8.38631 3.41645 8.76807 2.911 9.27293 2.55294C9.7778 2.19488 10.3811 2.00174 11 2H13C13.6189 2.00174 14.2222 2.19488 14.7271 2.55294C15.2319 2.911 15.6137 3.41645 15.82 4ZM10.2929 4.29289C10.1054 4.48043 10 4.73478 10 5V6H14V5C14 4.73478 13.8946 4.48043 13.7071 4.29289C13.5196 4.10536 13.2652 4 13 4H11C10.7348 4 10.4804 4.10536 10.2929 4.29289Z" fill="#697586"/>
</svg>
