<svg width="24" height="24" viewBox="0 0 24 24" fill="none" xmlns="http://www.w3.org/2000/svg">
<path d="M4 4.00002H8.56C8.76964 3.99948 8.97416 4.06484 9.14463 4.18686C9.3151 4.30889 9.44291 4.4814 9.51 4.68002L10.05 6.32002C10.1171 6.51864 10.2449 6.69116 10.4154 6.81318C10.5858 6.9352 10.7904 7.00056 11 7.00002H18C18.2652 7.00002 18.5196 7.10538 18.7071 7.29292C18.8946 7.48045 19 7.73481 19 8.00002C19 8.26524 19.1054 8.51959 19.2929 8.70713C19.4804 8.89467 19.7348 9.00002 20 9.00002C20.2652 9.00002 20.5196 8.89467 20.7071 8.70713C20.8946 8.51959 21 8.26524 21 8.00002C21 7.20437 20.6839 6.44131 20.1213 5.8787C19.5587 5.31609 18.7956 5.00002 18 5.00002H11.72L11.4 4.00002C11.1926 3.41325 10.8077 2.90553 10.2989 2.54718C9.79005 2.18884 9.18236 1.99762 8.56 2.00002H4C3.20435 2.00002 2.44129 2.31609 1.87868 2.8787C1.31607 3.44131 1 4.20437 1 5.00002V18C1 18.7957 1.31607 19.5587 1.87868 20.1213C2.44129 20.684 3.20435 21 4 21H10C10.2652 21 10.5196 20.8947 10.7071 20.7071C10.8946 20.5196 11 20.2652 11 20C11 19.7348 10.8946 19.4805 10.7071 19.2929C10.5196 19.1054 10.2652 19 10 19H4C3.73478 19 3.48043 18.8947 3.29289 18.7071C3.10536 18.5196 3 18.2652 3 18V5.00002C3 4.73481 3.10536 4.48045 3.29289 4.29292C3.48043 4.10538 3.73478 4.00002 4 4.00002Z" fill="#697586"/>
<path d="M17.3199 17.89C17.6619 17.638 18.0752 17.5014 18.4999 17.5L18.5199 17.53C18.9051 17.5326 19.2814 17.6463 19.6035 17.8575C19.9256 18.0688 20.1798 18.3685 20.3357 18.7208C20.4915 19.073 20.5423 19.4628 20.482 19.8432C20.4217 20.2237 20.2528 20.5786 19.9956 20.8653C19.7384 21.1521 19.4039 21.3585 19.0322 21.4597C18.6606 21.5609 18.2676 21.5527 17.9006 21.4359C17.5335 21.3192 17.2079 21.0989 16.963 20.8016C16.7181 20.5043 16.5642 20.1427 16.5199 19.76L14.4199 18.76C14.1389 18.9175 13.8221 19.0002 13.4999 19C13.1826 19.0107 12.8673 18.9457 12.5801 18.8103C12.2928 18.675 12.042 18.4732 11.8482 18.2217C11.6544 17.9701 11.5233 17.6761 11.4658 17.3638C11.4082 17.0516 11.4258 16.7301 11.5171 16.426C11.6084 16.1219 11.7708 15.8439 11.9909 15.615C12.211 15.3861 12.4824 15.2129 12.7826 15.1097C13.0829 15.0065 13.4035 14.9763 13.7177 15.0216C14.032 15.0668 14.331 15.1863 14.5899 15.37L16.4799 14.5C16.4799 14.1045 16.5972 13.7178 16.817 13.3889C17.0368 13.06 17.3491 12.8036 17.7146 12.6523C18.08 12.5009 18.4822 12.4613 18.8701 12.5385C19.2581 12.6156 19.6145 12.8061 19.8942 13.0858C20.1739 13.3655 20.3643 13.7219 20.4415 14.1098C20.5187 14.4978 20.4791 14.8999 20.3277 15.2654C20.1763 15.6308 19.92 15.9432 19.5911 16.163C19.2622 16.3827 18.8755 16.5 18.4799 16.5C18.1269 16.4933 17.7818 16.3933 17.4799 16.21L15.5699 17.09L17.3199 17.89Z" fill="#697586"/>
</svg>
