<svg width="24" height="24" viewBox="0 0 24 24" fill="none" xmlns="http://www.w3.org/2000/svg">
<path d="M21.71 6.52994L20.29 5.11994L21.71 3.70994C21.8983 3.52164 22.0041 3.26624 22.0041 2.99994C22.0041 2.73364 21.8983 2.47824 21.71 2.28994C21.5217 2.10164 21.2663 1.99585 21 1.99585C20.7337 1.99585 20.4783 2.10164 20.29 2.28994L9.74997 12.8299C8.71601 12.1478 7.46564 11.8737 6.24114 12.0608C5.01664 12.248 3.90519 12.883 3.12216 13.8428C2.33913 14.8026 1.94026 16.0189 2.00285 17.2561C2.06544 18.4932 2.58503 19.6631 3.46093 20.539C4.33684 21.4149 5.5067 21.9345 6.74383 21.9971C7.98097 22.0597 9.19729 21.6608 10.1571 20.8778C11.117 20.0947 11.752 18.9833 11.9391 17.7588C12.1262 16.5343 11.8521 15.2839 11.17 14.2499L16.05 9.35994L17.46 10.7799C17.5534 10.8726 17.6642 10.9459 17.7861 10.9957C17.9079 11.0455 18.0384 11.0707 18.17 11.0699C18.3016 11.0707 18.432 11.0455 18.5539 10.9957C18.6757 10.9459 18.7865 10.8726 18.88 10.7799C18.9737 10.687 19.0481 10.5764 19.0989 10.4545C19.1496 10.3327 19.1758 10.202 19.1758 10.0699C19.1758 9.93793 19.1496 9.80722 19.0989 9.68537C19.0481 9.56351 18.9737 9.4529 18.88 9.35994L17.46 7.99994L18.88 6.57994L20.29 7.99994C20.3834 8.09262 20.4942 8.16595 20.6161 8.21571C20.7379 8.26548 20.8684 8.2907 21 8.28994C21.1316 8.2907 21.262 8.26548 21.3839 8.21571C21.5057 8.16595 21.6165 8.09262 21.71 7.99994C21.8115 7.9063 21.8925 7.79265 21.9479 7.66615C22.0033 7.53965 22.0319 7.40304 22.0319 7.26494C22.0319 7.12684 22.0033 6.99023 21.9479 6.86374C21.8925 6.73724 21.8115 6.62358 21.71 6.52994ZM6.99997 19.9999C6.40663 19.9999 5.82661 19.824 5.33326 19.4944C4.83992 19.1647 4.4554 18.6962 4.22834 18.148C4.00127 17.5998 3.94186 16.9966 4.05762 16.4147C4.17337 15.8327 4.4591 15.2982 4.87865 14.8786C5.29821 14.4591 5.83276 14.1733 6.4147 14.0576C6.99665 13.9418 7.59985 14.0012 8.14802 14.2283C8.6962 14.4554 9.16474 14.8399 9.49438 15.3332C9.82403 15.8266 9.99997 16.4066 9.99997 16.9999C9.99997 17.7956 9.6839 18.5587 9.12129 19.1213C8.55869 19.6839 7.79562 19.9999 6.99997 19.9999Z" fill="#697586"/>
</svg>
