<svg width="24" height="24" viewBox="0 0 24 24" fill="none" xmlns="http://www.w3.org/2000/svg">
<path d="M4.76002 10.59C5.02523 10.6245 5.29328 10.5522 5.5052 10.389C5.71712 10.2259 5.85554 9.98522 5.89002 9.72001C5.92449 9.45479 5.8522 9.18674 5.68905 8.97482C5.52589 8.76291 5.28523 8.62448 5.02002 8.59001L3.26002 8.15001C3.1317 8.11067 2.99679 8.09757 2.8633 8.11147C2.72982 8.12538 2.6005 8.16601 2.48305 8.23095C2.3656 8.29589 2.26242 8.38381 2.17966 8.48946C2.09691 8.59512 2.03627 8.71635 2.00135 8.84594C1.96644 8.97552 1.95796 9.11081 1.97644 9.24374C1.99491 9.37667 2.03995 9.50452 2.10888 9.61968C2.17781 9.73483 2.26921 9.83493 2.37764 9.91402C2.48607 9.9931 2.60931 10.0496 2.74002 10.08L4.50002 10.55C4.58379 10.578 4.67171 10.5915 4.76002 10.59ZM8.62002 5.00001C8.67862 5.21817 8.80936 5.41006 8.99094 5.54443C9.17252 5.67881 9.39425 5.74774 9.62002 5.74001C9.70613 5.75383 9.7939 5.75383 9.88002 5.74001C10.1338 5.66979 10.3497 5.50229 10.4808 5.27387C10.6118 5.04546 10.6475 4.77456 10.58 4.52001L10.11 2.76001C10.0796 2.6293 10.0231 2.50606 9.94403 2.39763C9.86494 2.2892 9.76484 2.1978 9.64969 2.12887C9.53453 2.05994 9.40668 2.0149 9.27375 1.99643C9.14082 1.97795 9.00553 1.98643 8.87595 2.02134C8.74636 2.05626 8.62513 2.1169 8.51947 2.19965C8.41382 2.28241 8.3259 2.38558 8.26096 2.50303C8.19602 2.62048 8.15539 2.7498 8.14148 2.88329C8.12758 3.01677 8.14068 3.15169 8.18002 3.28001L8.62002 5.00001ZM13.45 15C13.3566 14.9017 13.2441 14.8234 13.1195 14.7699C12.9949 14.7163 12.8607 14.6888 12.725 14.6888C12.5894 14.6888 12.4552 14.7163 12.3305 14.7699C12.2059 14.8234 12.0934 14.9017 12 15L8.50002 18.56C8.0885 18.9548 7.5403 19.1753 6.97002 19.1753C6.39974 19.1753 5.85153 18.9548 5.44002 18.56C5.23744 18.36 5.0766 18.1218 4.96682 17.8591C4.85704 17.5965 4.80051 17.3147 4.80051 17.03C4.80051 16.7453 4.85704 16.4635 4.96682 16.2009C5.0766 15.9382 5.23744 15.7 5.44002 15.5L9.00002 12C9.1047 11.9104 9.18972 11.8 9.24974 11.676C9.30977 11.5519 9.3435 11.4168 9.34882 11.2791C9.35414 11.1413 9.33093 11.004 9.28065 10.8757C9.23038 10.7474 9.15412 10.6308 9.05667 10.5334C8.95921 10.4359 8.84267 10.3596 8.71434 10.3094C8.58602 10.2591 8.44868 10.2359 8.31096 10.2412C8.17324 10.2465 8.03811 10.2803 7.91405 10.3403C7.78998 10.4003 7.67966 10.4853 7.59002 10.59L4.00002 14.08C3.6113 14.4687 3.30296 14.9302 3.09259 15.4381C2.88222 15.9459 2.77394 16.4903 2.77394 17.04C2.77394 17.5897 2.88222 18.1341 3.09259 18.6419C3.30296 19.1498 3.6113 19.6113 4.00002 20C4.38873 20.3887 4.8502 20.6971 5.35808 20.9074C5.86595 21.1178 6.41029 21.2261 6.96002 21.2261C7.50974 21.2261 8.05408 21.1178 8.56196 20.9074C9.06984 20.6971 9.5313 20.3887 9.92002 20L13.45 16.47C13.5515 16.3764 13.6325 16.2627 13.6879 16.1362C13.7433 16.0097 13.7719 15.8731 13.7719 15.735C13.7719 15.5969 13.7433 15.4603 13.6879 15.3338C13.6325 15.2073 13.5515 15.0936 13.45 15ZM5.18002 6.59001C5.36628 6.77475 5.61768 6.8789 5.88002 6.88001C6.01162 6.88077 6.14209 6.85554 6.26392 6.80578C6.38576 6.75601 6.49658 6.68269 6.59002 6.59001C6.77627 6.40264 6.88081 6.14919 6.88081 5.88501C6.88081 5.62082 6.77627 5.36737 6.59002 5.18001L5.30002 3.89001C5.10872 3.72618 4.86264 3.64057 4.61096 3.65029C4.35929 3.66002 4.12055 3.76435 3.94245 3.94244C3.76436 4.12054 3.66003 4.35928 3.65031 4.61095C3.64058 4.86263 3.72619 5.1087 3.89002 5.30001L5.18002 6.59001ZM21.26 13.92L19.5 13.45C19.3696 13.4049 19.2312 13.3873 19.0937 13.3983C18.9561 13.4093 18.8223 13.4487 18.7007 13.5139C18.5791 13.5791 18.4723 13.6688 18.387 13.7773C18.3018 13.8858 18.2399 14.0108 18.2053 14.1444C18.1707 14.2779 18.1641 14.4172 18.186 14.5535C18.2078 14.6898 18.2576 14.82 18.3323 14.9361C18.4069 15.0521 18.5048 15.1515 18.6197 15.2279C18.7346 15.3043 18.8641 15.3561 19 15.38L20.76 15.85H21.02C21.2852 15.8845 21.5533 15.8122 21.7652 15.649C21.9771 15.4859 22.1155 15.2452 22.15 14.98C22.1845 14.7148 22.1122 14.4467 21.949 14.2348C21.7859 14.0229 21.5452 13.8845 21.28 13.85L21.26 13.92ZM15.38 19C15.3453 18.8732 15.2859 18.7545 15.2053 18.6507C15.1247 18.5469 15.0244 18.46 14.9101 18.395C14.7959 18.33 14.67 18.2881 14.5395 18.2718C14.4091 18.2555 14.2767 18.2651 14.15 18.3C13.8962 18.3702 13.6803 18.5377 13.5493 18.7661C13.4182 18.9946 13.3825 19.2654 13.45 19.52L13.92 21.28C13.9786 21.4982 14.1094 21.6901 14.2909 21.8244C14.4725 21.9588 14.6943 22.0277 14.92 22.02C15.0064 22.0298 15.0936 22.0298 15.18 22.02C15.3077 21.9864 15.4274 21.9278 15.5324 21.8476C15.6373 21.7674 15.7253 21.6673 15.7913 21.5529C15.8573 21.4386 15.9 21.3123 15.917 21.1813C15.9339 21.0504 15.9247 20.9174 15.89 20.79L15.38 19ZM18.82 17.43C18.6287 17.2662 18.3826 17.1806 18.131 17.1903C17.8793 17.2 17.6405 17.3043 17.4625 17.4824C17.2844 17.6605 17.18 17.8993 17.1703 18.151C17.1606 18.4026 17.2462 18.6487 17.41 18.84L18.7 20.13C18.8874 20.3163 19.1408 20.4208 19.405 20.4208C19.6692 20.4208 19.9227 20.3163 20.11 20.13C20.2963 19.9426 20.4008 19.6892 20.4008 19.425C20.4008 19.1608 20.2963 18.9074 20.11 18.72L18.82 17.43ZM21.2 7.00001C21.2156 6.16844 20.9815 5.35131 20.528 4.65411C20.0745 3.9569 19.4225 3.41163 18.656 3.08869C17.8896 2.76574 17.0439 2.67996 16.2282 2.8424C15.4125 3.00485 14.6643 3.40807 14.08 4.00001L10.55 7.56001C10.4555 7.65521 10.3806 7.76811 10.3297 7.89226C10.2788 8.0164 10.2528 8.14936 10.2532 8.28354C10.2537 8.41772 10.2806 8.5505 10.3324 8.67429C10.3842 8.79808 10.4598 8.91045 10.555 9.00501C10.6502 9.09956 10.7631 9.17443 10.8873 9.22535C11.0114 9.27627 11.1444 9.30224 11.2786 9.30178C11.4127 9.30131 11.5455 9.27442 11.6693 9.22265C11.7931 9.17087 11.9055 9.09521 12 9.00001L15.5 5.44001C15.9115 5.0452 16.4597 4.82475 17.03 4.82475C17.6003 4.82475 18.1485 5.0452 18.56 5.44001C18.7626 5.64 18.9234 5.87823 19.0332 6.14087C19.143 6.40351 19.1995 6.68534 19.1995 6.97001C19.1995 7.25467 19.143 7.5365 19.0332 7.79914C18.9234 8.06179 18.7626 8.30001 18.56 8.50001L15 12C14.8138 12.1874 14.7092 12.4408 14.7092 12.705C14.7092 12.9692 14.8138 13.2226 15 13.41C15.1874 13.5963 15.4408 13.7008 15.705 13.7008C15.9692 13.7008 16.2227 13.5963 16.41 13.41L20 9.92001C20.7654 9.14035 21.196 8.09257 21.2 7.00001Z" fill="#697586"/>
</svg>
