<svg width="24" height="24" viewBox="0 0 24 24" fill="none" xmlns="http://www.w3.org/2000/svg">
<path d="M20.71 16.71L18.29 14.29C18.197 14.1963 18.0864 14.1219 17.9646 14.0711C17.8427 14.0203 17.712 13.9942 17.58 13.9942C17.448 13.9942 17.3173 14.0203 17.1954 14.0711C17.0736 14.1219 16.963 14.1963 16.87 14.29L13.29 17.87C13.1973 17.9634 13.124 18.0743 13.0742 18.1961C13.0245 18.3179 12.9992 18.4484 13 18.58V21C13 21.2652 13.1054 21.5196 13.2929 21.7071C13.4804 21.8946 13.7348 22 14 22H16.42C16.5516 22.0008 16.6821 21.9755 16.8039 21.9258C16.9257 21.876 17.0366 21.8027 17.13 21.71L20.71 18.13C20.8037 18.037 20.8781 17.9264 20.9289 17.8046C20.9797 17.6827 21.0058 17.552 21.0058 17.42C21.0058 17.288 20.9797 17.1573 20.9289 17.0354C20.8781 16.9136 20.8037 16.803 20.71 16.71ZM16 20H15V19L17.58 16.42L18.58 17.42L16 20Z" fill="#697586"/>
<path d="M4 4.00002H8.56C8.76964 3.99948 8.97416 4.06484 9.14463 4.18686C9.3151 4.30889 9.44291 4.4814 9.51 4.68002L10.05 6.32002C10.1171 6.51864 10.2449 6.69116 10.4154 6.81318C10.5858 6.9352 10.7904 7.00056 11 7.00002H18C18.2652 7.00002 18.5196 7.10538 18.7071 7.29292C18.8946 7.48045 19 7.73481 19 8.00002C19 8.26524 19.1054 8.51959 19.2929 8.70713C19.4804 8.89467 19.7348 9.00002 20 9.00002C20.2652 9.00002 20.5196 8.89467 20.7071 8.70713C20.8946 8.51959 21 8.26524 21 8.00002C21 7.20437 20.6839 6.44131 20.1213 5.8787C19.5587 5.31609 18.7956 5.00002 18 5.00002H11.72L11.4 4.00002C11.1926 3.41325 10.8077 2.90553 10.2989 2.54718C9.79005 2.18884 9.18236 1.99762 8.56 2.00002H4C3.20435 2.00002 2.44129 2.31609 1.87868 2.8787C1.31607 3.44131 1 4.20437 1 5.00002V18C1 18.7957 1.31607 19.5587 1.87868 20.1213C2.44129 20.684 3.20435 21 4 21H10C10.2652 21 10.5196 20.8947 10.7071 20.7071C10.8946 20.5196 11 20.2652 11 20C11 19.7348 10.8946 19.4805 10.7071 19.2929C10.5196 19.1054 10.2652 19 10 19H4C3.73478 19 3.48043 18.8947 3.29289 18.7071C3.10536 18.5196 3 18.2652 3 18V5.00002C3 4.73481 3.10536 4.48045 3.29289 4.29292C3.48043 4.10538 3.73478 4.00002 4 4.00002Z" fill="#697586"/>
</svg>
