<svg width="24" height="24" viewBox="0 0 24 24" fill="none" xmlns="http://www.w3.org/2000/svg">
<path d="M15.9999 13C16.2651 13 16.5195 13.1054 16.707 13.293C16.8945 13.4805 16.9999 13.7348 16.9999 14C16.9999 14.2652 16.8945 14.5195 16.707 14.707C16.5195 14.8946 16.2651 15 15.9999 15H7.99995C7.73475 15 7.48045 14.8946 7.29292 14.707C7.10538 14.5195 6.99995 14.2652 6.99995 14C6.99995 13.7348 7.10538 13.4805 7.29292 13.293C7.48045 13.1054 7.73475 13 7.99995 13H15.9999Z" fill="#697586"/>
<path d="M15.9999 9C16.2651 9.00001 16.5195 9.10545 16.707 9.29297C16.8945 9.4805 16.9999 9.7348 16.9999 10C16.9999 10.2652 16.8945 10.5195 16.707 10.707C16.5195 10.8946 16.2651 11 15.9999 11H7.99995C7.73475 11 7.48045 10.8946 7.29292 10.707C7.10538 10.5195 6.99995 10.2652 6.99995 10C6.99995 9.73478 7.10538 9.4805 7.29292 9.29297C7.48045 9.10545 7.73475 9 7.99995 9H15.9999Z" fill="#697586"/>
<path fill-rule="evenodd" clip-rule="evenodd" d="M11.9999 2C13.3132 2.00001 14.6139 2.2582 15.8271 2.76074C17.0403 3.26329 18.1427 4.00016 19.0712 4.92871C19.9998 5.85726 20.7367 6.95965 21.2392 8.17285C21.7418 9.3861 22 10.6868 22 12C22 13.9778 21.4132 15.9112 20.3144 17.5557C19.2156 19.2001 17.6543 20.4824 15.8271 21.2393C13.9999 21.9961 11.9886 22.1935 10.0488 21.8076C8.1091 21.4217 6.32711 20.4697 4.92866 19.0713C3.53021 17.6728 2.57822 15.8909 2.19233 13.9512C1.80648 12.0114 2.00382 10.0001 2.76069 8.17285C3.51756 6.34568 4.79987 4.78433 6.44429 3.68555C8.08877 2.58675 10.0222 2 11.9999 2ZM15.0615 4.60938C13.5998 4.00391 11.9912 3.84472 10.4394 4.15332C8.88757 4.462 7.46154 5.22397 6.34272 6.34277C5.22391 7.46159 4.46195 8.88761 4.15327 10.4395C3.84465 11.9912 4.00386 13.5998 4.60932 15.0615C5.21483 16.5232 6.2401 17.7724 7.55561 18.6514C8.8712 19.5304 10.4177 20 11.9999 20C14.1217 20 16.1569 19.1575 17.6572 17.6572C19.1575 16.1569 20 14.1217 20 12C20 10.4178 19.5304 8.87125 18.6513 7.55566C17.7723 6.24015 16.5232 5.21488 15.0615 4.60938Z" fill="#697586"/>
</svg>
