<svg width="24" height="24" viewBox="0 0 24 24" fill="none" xmlns="http://www.w3.org/2000/svg">
<path d="M14 20H6C5.73478 20 5.48043 19.8946 5.29289 19.7071C5.10536 19.5196 5 19.2652 5 19V5C5 4.73478 5.10536 4.48043 5.29289 4.29289C5.48043 4.10536 5.73478 4 6 4H11V7C11 7.79565 11.3161 8.55871 11.8787 9.12132C12.4413 9.68393 13.2044 10 14 10H18C18.1974 9.99901 18.3901 9.93961 18.5539 9.82928C18.7176 9.71895 18.845 9.56262 18.92 9.38C18.9966 9.19789 19.0175 8.99718 18.9801 8.80319C18.9428 8.6092 18.8488 8.43062 18.71 8.29L12.71 2.29C12.6273 2.21222 12.5328 2.14808 12.43 2.1H12.34L12.06 2H6C5.20435 2 4.44129 2.31607 3.87868 2.87868C3.31607 3.44129 3 4.20435 3 5V19C3 19.7956 3.31607 20.5587 3.87868 21.1213C4.44129 21.6839 5.20435 22 6 22H14C14.2652 22 14.5196 21.8946 14.7071 21.7071C14.8946 21.5196 15 21.2652 15 21C15 20.7348 14.8946 20.4804 14.7071 20.2929C14.5196 20.1054 14.2652 20 14 20ZM13 5.41L15.59 8H14C13.7348 8 13.4804 7.89464 13.2929 7.70711C13.1054 7.51957 13 7.26522 13 7V5.41Z" fill="#697586"/>
<path d="M19.8845 12.0769C20.0064 12.1277 20.117 12.2021 20.2099 12.2958C20.3037 12.3888 20.3781 12.4994 20.4288 12.6212C20.4796 12.7431 20.5057 12.8738 20.5057 13.0058C20.5057 13.1378 20.4796 13.2685 20.4288 13.3904C20.3781 13.5122 20.3037 13.6228 20.2099 13.7158L16.2099 17.7158C16.117 17.8095 16.0064 17.8839 15.8845 17.9347C15.7627 17.9855 15.632 18.0116 15.4999 18.0116C15.3679 18.0116 15.2372 17.9855 15.1154 17.9347C14.9935 17.8839 14.8829 17.8095 14.7899 17.7158L12.7899 15.7158C12.6967 15.6226 12.6227 15.5119 12.5723 15.39C12.5218 15.2682 12.4958 15.1377 12.4958 15.0058C12.4958 14.8739 12.5218 14.7434 12.5723 14.6215C12.6227 14.4997 12.6967 14.389 12.7899 14.2958C12.8832 14.2026 12.9939 14.1286 13.1157 14.0781C13.2375 14.0277 13.3681 14.0017 13.4999 14.0017C13.6318 14.0017 13.7624 14.0277 13.8842 14.0781C14.006 14.1286 14.1167 14.2026 14.2099 14.2958L15.4999 15.5958L18.7899 12.2958C18.8829 12.2021 18.9935 12.1277 19.1154 12.0769C19.2372 12.0261 19.3679 12 19.4999 12C19.632 12 19.7627 12.0261 19.8845 12.0769Z" fill="#697586"/>
</svg>
