<svg width="24" height="24" viewBox="0 0 24 24" fill="none" xmlns="http://www.w3.org/2000/svg">
<path fill-rule="evenodd" clip-rule="evenodd" d="M15.82 4H17C17.7956 4 18.5587 4.31607 19.1213 4.87868C19.6839 5.44129 20 6.20435 20 7V9C20 9.55228 19.5523 10 19 10C18.4477 10 18 9.55228 18 9V7C18 6.73478 17.8946 6.48043 17.7071 6.29289C17.5196 6.10536 17.2652 6 17 6H16V7C16 7.26522 15.8946 7.51957 15.7071 7.70711C15.5196 7.89464 15.2652 8 15 8H9C8.73478 8 8.48043 7.89464 8.29289 7.70711C8.10536 7.51957 8 7.26522 8 7V6H7C6.73478 6 6.48043 6.10536 6.29289 6.29289C6.10536 6.48043 6 6.73478 6 7V19C6 19.2652 6.10536 19.5196 6.29289 19.7071C6.48043 19.8946 6.73478 20 7 20H13C13.5523 20 14 20.4477 14 21C14 21.5523 13.5523 22 13 22H7C6.20435 22 5.44129 21.6839 4.87868 21.1213C4.31607 20.5587 4 19.7956 4 19V7C4 6.20435 4.31607 5.44129 4.87868 4.87868C5.44129 4.31607 6.20435 4 7 4H8.18C8.38631 3.41645 8.76807 2.911 9.27293 2.55294C9.7778 2.19488 10.3811 2.00174 11 2H13C13.6189 2.00174 14.2222 2.19488 14.7271 2.55294C15.2319 2.911 15.6137 3.41645 15.82 4ZM10.2929 4.29289C10.1054 4.48043 10 4.73478 10 5V6H14V5C14 4.73478 13.8946 4.48043 13.7071 4.29289C13.5196 4.10536 13.2652 4 13 4H11C10.7348 4 10.4804 4.10536 10.2929 4.29289Z" fill="#697586"/>
<path d="M20.8845 13.0769C21.0064 13.1277 21.117 13.2021 21.2099 13.2958C21.3037 13.3888 21.3781 13.4994 21.4288 13.6212C21.4796 13.7431 21.5057 13.8738 21.5057 14.0058C21.5057 14.1378 21.4796 14.2685 21.4288 14.3904C21.3781 14.5122 21.3037 14.6228 21.2099 14.7158L17.2099 18.7158C17.117 18.8095 17.0064 18.8839 16.8845 18.9347C16.7627 18.9855 16.632 19.0116 16.4999 19.0116C16.3679 19.0116 16.2372 18.9855 16.1154 18.9347C15.9935 18.8839 15.8829 18.8095 15.7899 18.7158L13.7899 16.7158C13.6967 16.6226 13.6227 16.5119 13.5723 16.39C13.5218 16.2682 13.4958 16.1377 13.4958 16.0058C13.4958 15.8739 13.5218 15.7434 13.5723 15.6215C13.6227 15.4997 13.6967 15.389 13.7899 15.2958C13.8832 15.2026 13.9939 15.1286 14.1157 15.0781C14.2375 15.0277 14.3681 15.0017 14.4999 15.0017C14.6318 15.0017 14.7624 15.0277 14.8842 15.0781C15.006 15.1286 15.1167 15.2026 15.2099 15.2958L16.4999 16.5958L19.7899 13.2958C19.8829 13.2021 19.9935 13.1277 20.1154 13.0769C20.2372 13.0261 20.3679 13 20.4999 13C20.632 13 20.7627 13.0261 20.8845 13.0769Z" fill="#697586"/>
</svg>
