<svg width="24" height="24" viewBox="0 0 24 24" fill="none" xmlns="http://www.w3.org/2000/svg">
<path d="M16.1555 9H8.15552V7C8.15552 6.2 8.45552 5.5 9.05552 4.9C10.2555 3.7 12.1555 3.7 13.2555 4.9C13.6555 5.3 13.8555 5.8 14.0555 6.3C14.1555 6.8 14.7555 7.1 15.2555 7C15.7555 6.9 16.1555 6.3 15.9555 5.8C15.7555 4.9 15.2555 4.1 14.6555 3.5C13.7555 2.5 12.4555 2 11.1555 2C8.35552 2 6.15552 4.2 6.15552 7V9C4.45552 9 3.15552 10.3 3.15552 12V19C3.15552 20.7 4.45552 22 6.15552 22H16.1555C17.8555 22 19.1555 20.7 19.1555 19V12C19.1555 10.3 17.8555 9 16.1555 9ZM12.2555 15.5L12.1555 15.6V17C12.1555 17.6 11.7555 18 11.1555 18C10.5555 18 10.1555 17.6 10.1555 17V15.6C9.55552 15 9.45552 14.1 10.0555 13.5C10.6555 12.9 11.5555 12.8 12.1555 13.4C12.7555 13.9 12.8555 14.9 12.2555 15.5Z" fill="#697586"/>
</svg>
