<svg width="24" height="24" viewBox="0 0 24 24" fill="none" xmlns="http://www.w3.org/2000/svg">
<path d="M14 20H6C5.73478 20 5.48043 19.8946 5.29289 19.7071C5.10536 19.5196 5 19.2652 5 19V5C5 4.73478 5.10536 4.48043 5.29289 4.29289C5.48043 4.10536 5.73478 4 6 4H11V7C11 7.79565 11.3161 8.55871 11.8787 9.12132C12.4413 9.68393 13.2044 10 14 10H18C18.1974 9.99901 18.3901 9.93961 18.5539 9.82928C18.7176 9.71895 18.845 9.56262 18.92 9.38C18.9966 9.19789 19.0175 8.99718 18.9801 8.80319C18.9428 8.6092 18.8488 8.43062 18.71 8.29L12.71 2.29C12.6273 2.21222 12.5328 2.14808 12.43 2.1H12.34L12.06 2H6C5.20435 2 4.44129 2.31607 3.87868 2.87868C3.31607 3.44129 3 4.20435 3 5V19C3 19.7956 3.31607 20.5587 3.87868 21.1213C4.44129 21.6839 5.20435 22 6 22H14C14.2652 22 14.5196 21.8946 14.7071 21.7071C14.8946 21.5196 15 21.2652 15 21C15 20.7348 14.8946 20.4804 14.7071 20.2929C14.5196 20.1054 14.2652 20 14 20ZM13 5.41L15.59 8H14C13.7348 8 13.4804 7.89464 13.2929 7.70711C13.1054 7.51957 13 7.26522 13 7V5.41Z" fill="#697586"/>
<path d="M19.7158 13.7141L18.4158 15.0041L19.7158 16.2941C19.8095 16.3871 19.8839 16.4977 19.9347 16.6195C19.9855 16.7414 20.0116 16.8721 20.0116 17.0041C20.0116 17.1361 19.9855 17.2668 19.9347 17.3887C19.8839 17.5105 19.8095 17.6211 19.7158 17.7141C19.6228 17.8078 19.5122 17.8822 19.3904 17.933C19.2685 17.9838 19.1378 18.0099 19.0058 18.0099C18.8738 18.0099 18.7431 17.9838 18.6212 17.933C18.4994 17.8822 18.3888 17.8078 18.2958 17.7141L17.0058 16.4141L15.7158 17.7141C15.6228 17.8078 15.5122 17.8822 15.3904 17.933C15.2685 17.9838 15.1378 18.0099 15.0058 18.0099C14.8738 18.0099 14.7431 17.9838 14.6212 17.933C14.4994 17.8822 14.3888 17.8078 14.2958 17.7141C14.2021 17.6211 14.1277 17.5105 14.0769 17.3887C14.0261 17.2668 14 17.1361 14 17.0041C14 16.8721 14.0261 16.7414 14.0769 16.6195C14.1277 16.4977 14.2021 16.3871 14.2958 16.2941L15.5958 15.0041L14.2958 13.7141C14.1075 13.5258 14.0017 13.2704 14.0017 13.0041C14.0017 12.7378 14.1075 12.4824 14.2958 12.2941C14.4841 12.1058 14.7395 12 15.0058 12C15.2721 12 15.5275 12.1058 15.7158 12.2941L17.0058 13.5941L18.2958 12.2941C18.4841 12.1058 18.7395 12 19.0058 12C19.2721 12 19.5275 12.1058 19.7158 12.2941C19.9041 12.4824 20.0099 12.7378 20.0099 13.0041C20.0099 13.2704 19.9041 13.5258 19.7158 13.7141Z" fill="#697586"/>
</svg>
