<svg width="24" height="24" viewBox="0 0 24 24" fill="none" xmlns="http://www.w3.org/2000/svg">
<path d="M20.9324 13.3086C20.7522 12.8453 20.2115 12.6599 19.761 12.8453C18.7697 13.3086 17.7785 13.4939 16.6971 13.4939C16.0663 13.4939 15.4355 13.4013 14.8949 13.2159C11.02 12.1966 8.58698 8.1192 9.57822 4.04183C9.66834 3.85649 9.57822 3.57849 9.48811 3.39316C9.30788 3.11515 8.85732 2.83715 8.31665 3.11515C5.07259 4.59783 3 7.93387 3 11.6406C3 16.83 7.05507 21 12.1014 21C16.2466 21 19.9412 18.0346 20.9324 13.8646C21.0225 13.6793 21.0225 13.4939 20.9324 13.3086Z" fill="#697586"/>
</svg>
