<svg width="24" height="24" viewBox="0 0 24 24" fill="none" xmlns="http://www.w3.org/2000/svg">
<path d="M21 10.41H18.5C18.3677 10.4105 18.2368 10.4373 18.1149 10.4888C17.9931 10.5403 17.8826 10.6155 17.79 10.71L16.55 12L13.75 8.80999C13.6565 8.71008 13.5434 8.63043 13.4179 8.57598C13.2923 8.52153 13.1569 8.49343 13.02 8.49343C12.8831 8.49343 12.7477 8.52153 12.6222 8.57598C12.4966 8.63043 12.3836 8.71008 12.29 8.80999L10.59 10.51H9.00001C8.7348 10.51 8.48044 10.6153 8.2929 10.8029C8.10537 10.9904 8.00001 11.2448 8.00001 11.51C8.00001 11.7752 8.10537 12.0296 8.2929 12.2171C8.48044 12.4046 8.7348 12.51 9.00001 12.51H11C11.1316 12.5107 11.2621 12.4855 11.3839 12.4358C11.5058 12.386 11.6166 12.3127 11.71 12.22L13 10.88L15.8 14.07C15.8903 14.1729 16.0009 14.2563 16.1247 14.3147C16.2486 14.3732 16.3831 14.4056 16.52 14.41C16.6516 14.4107 16.7821 14.3855 16.9039 14.3358C17.0258 14.286 17.1366 14.2127 17.23 14.12L18.93 12.41H21C21.2652 12.41 21.5196 12.3046 21.7071 12.1171C21.8947 11.9296 22 11.6752 22 11.41C22 11.1448 21.8947 10.8904 21.7071 10.7029C21.5196 10.5153 21.2652 10.41 21 10.41ZM13.61 15.71L11.71 17.61C11.617 17.7037 11.5064 17.7781 11.3846 17.8289C11.2627 17.8796 11.132 17.9058 11 17.9058C10.868 17.9058 10.7373 17.8796 10.6154 17.8289C10.4936 17.7781 10.383 17.7037 10.29 17.61L5.08001 12.4C4.73713 12.0573 4.46513 11.6504 4.27955 11.2026C4.09398 10.7548 3.99846 10.2747 3.99846 9.78999C3.99846 9.30522 4.09398 8.82521 4.27955 8.37738C4.46513 7.92954 4.73713 7.52266 5.08001 7.17999C5.77167 6.49056 6.70843 6.10343 7.68501 6.10343C8.66159 6.10343 9.59835 6.49056 10.29 7.17999C10.383 7.27371 10.4936 7.34811 10.6154 7.39888C10.7373 7.44965 10.868 7.47578 11 7.47578C11.132 7.47578 11.2627 7.44965 11.3846 7.39888C11.5064 7.34811 11.617 7.27371 11.71 7.17999C12.4127 6.51171 13.3453 6.13903 14.315 6.13903C15.2847 6.13903 16.2173 6.51171 16.92 7.17999C17.1428 7.40573 17.3376 7.65755 17.5 7.92999C17.6456 8.1302 17.8603 8.26929 18.1026 8.32033C18.3448 8.37138 18.5974 8.33076 18.8114 8.20633C19.0254 8.0819 19.1856 7.88251 19.2611 7.64674C19.3366 7.41097 19.322 7.15558 19.22 6.92999C18.9728 6.51953 18.6774 6.14017 18.34 5.79999C17.391 4.83984 16.1311 4.24909 14.786 4.13364C13.4409 4.01819 12.0988 4.3856 11 5.16999C10.1509 4.55828 9.14924 4.19306 8.10565 4.11464C7.06206 4.03621 6.0171 4.24763 5.08607 4.72555C4.15504 5.20348 3.37416 5.92934 2.82958 6.82302C2.28501 7.7167 1.99793 8.74346 2.00001 9.78999C1.99971 10.5341 2.14718 11.2708 2.43385 11.9575C2.72053 12.6441 3.14071 13.267 3.67001 13.79L8.88001 19C9.44251 19.5618 10.205 19.8773 11 19.8773C11.795 19.8773 12.5575 19.5618 13.12 19L15 17.12C15.1863 16.9326 15.2908 16.6792 15.2908 16.415C15.2908 16.1508 15.1863 15.8973 15 15.71C14.8135 15.5297 14.5644 15.429 14.305 15.429C14.0457 15.429 13.7965 15.5297 13.61 15.71Z" fill="#697586"/>
</svg>
