<svg width="24" height="24" viewBox="0 0 24 24" fill="none" xmlns="http://www.w3.org/2000/svg">
<path d="M15.3845 8.07105C15.5064 8.12182 15.617 8.19621 15.7099 8.28994C15.8037 8.3829 15.8781 8.4935 15.9288 8.61536C15.9796 8.73722 16.0057 8.86793 16.0057 8.99994C16.0057 9.13195 15.9796 9.26266 15.9288 9.38452C15.8781 9.50638 15.8037 9.61698 15.7099 9.70994L13.4099 11.9999L15.7099 14.2899C15.8037 14.3829 15.8781 14.4935 15.9288 14.6154C15.9796 14.7372 16.0057 14.8679 16.0057 14.9999C16.0057 15.132 15.9796 15.2627 15.9288 15.3845C15.8781 15.5064 15.8037 15.617 15.7099 15.7099C15.617 15.8037 15.5064 15.8781 15.3845 15.9288C15.2627 15.9796 15.132 16.0057 14.9999 16.0057C14.8679 16.0057 14.7372 15.9796 14.6154 15.9288C14.4935 15.8781 14.3829 15.8037 14.2899 15.7099L11.9999 13.4099L9.70994 15.7099C9.61698 15.8037 9.50638 15.8781 9.38452 15.9288C9.26266 15.9796 9.13195 16.0057 8.99994 16.0057C8.86793 16.0057 8.73722 15.9796 8.61536 15.9288C8.4935 15.8781 8.3829 15.8037 8.28994 15.7099C8.19621 15.617 8.12182 15.5064 8.07105 15.3845C8.02028 15.2627 7.99414 15.132 7.99414 14.9999C7.99414 14.8679 8.02028 14.7372 8.07105 14.6154C8.12182 14.4935 8.19621 14.3829 8.28994 14.2899L10.5899 11.9999L8.28994 9.70994C8.10164 9.52164 7.99585 9.26624 7.99585 8.99994C7.99585 8.73364 8.10164 8.47824 8.28994 8.28994C8.47824 8.10164 8.73364 7.99585 8.99994 7.99585C9.26624 7.99585 9.52164 8.10164 9.70994 8.28994L11.9999 10.5899L14.2899 8.28994C14.3829 8.19621 14.4935 8.12182 14.6154 8.07105C14.7372 8.02028 14.8679 7.99414 14.9999 7.99414C15.132 7.99414 15.2627 8.02028 15.3845 8.07105Z" fill="#697586"/>
<path d="M21 2H3C2.73478 2 2.48043 2.10536 2.29289 2.29289C2.10536 2.48043 2 2.73478 2 3V21C2 21.2652 2.10536 21.5196 2.29289 21.7071C2.48043 21.8946 2.73478 22 3 22H21C21.2652 22 21.5196 21.8946 21.7071 21.7071C21.8946 21.5196 22 21.2652 22 21V3C22 2.73478 21.8946 2.48043 21.7071 2.29289C21.5196 2.10536 21.2652 2 21 2ZM20 20H4V4H20V20Z" fill="#697586"/>
</svg>
