<svg width="24" height="24" viewBox="0 0 24 24" fill="none" xmlns="http://www.w3.org/2000/svg">
<path d="M9 3C7.9 3 7 3.9 7 5V5.1L6.4 5C5.8 4.9 5.2 5.1 4.7 5.5C4.2 5.9 4 6.4 4 7C4 7.3 4.1 7.6 4.2 7.9L3.5 8.4C2.6 8.9 2 9.9 2 11C2 12.2 2.7 13.3 3.9 13.8L3.5 14.4C3.2 14.9 3 15.4 3 16C3 17.7 4.3 19 6 19C6.4 19 6.7 18.9 6.7 18.9L7.1 19.8C7.5 20.5 8.2 21 9 21C10.1 21 11 20.1 11 19V17.5C11 16.7 10.5 15.9 9.7 15.6C9.2 15.4 8.9 14.9 9.1 14.3C9.3 13.8 9.8 13.5 10.4 13.7C10.6 13.8 10.9 13.9 11.1 14V12.4C11.1 11.6 10.6 10.8 9.8 10.5C9.3 10.3 9 9.8 9.2 9.2C9.4 8.7 9.9 8.4 10.5 8.6C10.6 8.8 10.8 8.9 11 9V5C11 3.9 10.1 3 9 3ZM22 11C22 9.9 21.4 8.9 20.5 8.4L19.8 7.9C19.9 7.6 20 7.3 20 7C20 6.4 19.7 5.9 19.3 5.5C18.9 5.1 18.2 4.9 17.6 5L17 5.1V5C17 3.9 16.1 3 15 3C13.9 3 13 3.9 13 5V9C13.2 8.9 13.4 8.8 13.7 8.7C14.2 8.5 14.8 8.8 15 9.3C15.2 9.8 14.9 10.4 14.4 10.6C13.6 10.9 13.1 11.6 13.1 12.5V14C13.3 13.9 13.5 13.8 13.8 13.7C14.3 13.5 14.9 13.8 15.1 14.3C15.3 14.8 15 15.4 14.5 15.6C13.7 15.9 13.2 16.6 13.2 17.5V19C13.2 20.1 14.1 21 15.2 21C16 21 16.7 20.5 17 19.9L17.4 19C17.4 19 17.7 19.1 18.1 19.1C19.8 19.1 21.1 17.8 21.1 16.1C21.1 15.5 20.9 15 20.6 14.5L20.2 13.9C21.3 13.3 22 12.2 22 11Z" fill="#697586"/>
</svg>
